<?xml version="1.0" encoding="UTF-8"?>
<!DOCTYPE svg PUBLIC "-//W3C//DTD SVG 1.1//EN" "http://www.w3.org/Graphics/SVG/1.1/DTD/svg11.dtd">
<!-- Creator: CorelDRAW -->
<svg xmlns="http://www.w3.org/2000/svg" xml:space="preserve" width="2480px" height="2480px" style="shape-rendering:geometricPrecision; text-rendering:geometricPrecision; image-rendering:optimizeQuality; fill-rule:evenodd; clip-rule:evenodd"
viewBox="0 0 2480 2480"
 xmlns:xlink="http://www.w3.org/1999/xlink">
 <defs>
  <style type="text/css">
   <![CDATA[
    .fil0 {fill:white}
   ]]>
  </style>
 </defs>
 <g id="Capa_x0020_1">
  <metadata id="CorelCorpID_0Corel-Layer"/>
  <path class="fil0" d="M-0.00118095 -0.00118095l2480 0 0 2480 -2480 0 0 -2480zm1223.48 2491.17l1.5187 -884.198 -229.713 0c-29.8533,0 -54.0817,-24.1398 -54.1986,-53.9931l-1.10065 -285.012c-0.115733,-30.0163 24.1871,-54.4112 54.2034,-54.4112l229.296 0 0 -275.395c0,-319.593 195.187,-493.617 480.287,-493.617l233.944 0c29.9324,0 54.2045,24.2662 54.2045,54.2045l0 240.325c0,29.9242 -24.2544,54.1856 -54.1726,54.2034l-143.571 0.0673143c-155.047,0 -185.067,73.6761 -185.067,181.799l0 238.419 340.689 -0.00118095c32.4608,0 57.6482,28.3452 53.8219,60.584l-33.7811 285.015c-3.23109,27.2741 -26.36,47.8238 -53.8207,47.8238l-305.388 0 -1.5187 884.198c3791.72,0 -5183.4,-0.0177143 -385.634,-0.0118095z"/>
 </g>
</svg>
