<?xml version="1.0" encoding="UTF-8"?>
<!DOCTYPE svg PUBLIC "-//W3C//DTD SVG 1.1//EN" "http://www.w3.org/Graphics/SVG/1.1/DTD/svg11.dtd">
<!-- Creator: CorelDRAW -->
<svg xmlns="http://www.w3.org/2000/svg" xml:space="preserve" width="25px" height="25px" style="shape-rendering:geometricPrecision; text-rendering:geometricPrecision; image-rendering:optimizeQuality; fill-rule:evenodd; clip-rule:evenodd"
viewBox="0 0 25 25"
 xmlns:xlink="http://www.w3.org/1999/xlink"
 version="1.1">
 <defs>
  <style type="text/css">
   <![CDATA[
    .str0 {stroke:#1F1A17;stroke-width:0.0759684}
    .fil0 {fill:none}
    .fil1 {fill:white}
   ]]>
  </style>
 </defs>
 <g id="Capa_x0020_1">
  <metadata id="CorelCorpID_0Corel-Layer"/>
  <rect class="fil0 str0" x="0.0378845" y="0.0378845" width="24.9242" height="24.9242"/>
  <g id="_231807000">
   <g>
    <path id="LinkedIn" class="fil1" d="M24.5016 14.5831l0 8.92011 -5.17134 0 0 -8.32263c0,-2.09073 -0.74802,-3.51758 -2.61981,-3.51758 -1.42894,0 -2.27925,0.961569 -2.65341,1.89173 -0.136384,0.332586 -0.171477,0.795376 -0.171477,1.26086l0 8.68762 -5.17303 0c0,0 0.0695879,-14.0958 0,-15.5563l5.17253 0 0 2.20498c-0.0105678,0.0165496 -0.0241265,0.0342955 -0.0339964,0.0503465l0.0339964 0 0 -0.0503465c0.687205,-1.05837 1.91446,-2.57047 4.66159,-2.57047 3.40343,0 5.95495,2.22342 5.95495,7.00166zm-21.2004 -14.1351c-1.76971,0 -2.92718,1.16076 -2.92718,2.68721 0,1.49325 1.12407,2.6892 2.85859,2.6892l0.0344949 0c1.804,0 2.92588,-1.19576 2.92588,-2.6892 -0.0339964,-1.52645 -1.12188,-2.68721 -2.89179,-2.68721zm-2.61991 23.0552l5.17104 0 0 -15.5563 -5.17104 0 0 15.5563z"/>
   </g>
   <g>
   </g>
   <g>
   </g>
   <g>
   </g>
   <g>
   </g>
   <g>
   </g>
   <g>
   </g>
   <g>
   </g>
   <g>
   </g>
   <g>
   </g>
   <g>
   </g>
   <g>
   </g>
   <g>
   </g>
   <g>
   </g>
   <g>
   </g>
   <g>
   </g>
  </g>
 </g>
</svg>
