<?xml version="1.0" encoding="iso-8859-1"?>
<!-- Generator: Adobe Illustrator 19.0.0, SVG Export Plug-In . SVG Version: 6.00 Build 0)  -->
<svg xmlns="http://www.w3.org/2000/svg" xmlns:xlink="http://www.w3.org/1999/xlink" version="1.1" id="Layer_1" x="0px" y="0px" viewBox="0 0 512 512" style="enable-background:new 0 0 512 512;" xml:space="preserve" width="512px" height="512px">
<g>
	<g>
		<rect x="247.07" y="130.977" width="148.837" height="35.721" fill="#ed8211"/>
	</g>
</g>
<g>
	<g>
		<rect x="247.07" y="202.419" width="148.837" height="35.721" fill="#ed8211"/>
	</g>
</g>
<g>
	<g>
		<rect x="247.07" y="273.86" width="148.837" height="35.721" fill="#ed8211"/>
	</g>
</g>
<g>
	<g>
		<rect x="247.07" y="345.302" width="148.837" height="35.721" fill="#ed8211"/>
	</g>
</g>
<g>
	<g>
		<rect x="175.628" y="130.977" width="35.721" height="35.721" fill="#ed8211"/>
	</g>
</g>
<g>
	<g>
		<rect x="175.628" y="202.419" width="35.721" height="35.721" fill="#ed8211"/>
	</g>
</g>
<g>
	<g>
		<rect x="175.628" y="273.86" width="35.721" height="35.721" fill="#ed8211"/>
	</g>
</g>
<g>
	<g>
		<rect x="175.628" y="345.302" width="35.721" height="35.721" fill="#ed8211"/>
	</g>
</g>
<g>
	<g>
		<path d="M62.512,0v59.535H32.744v35.721h29.767v35.721H32.744v35.721h29.767v35.721H32.744v35.721h29.767v35.721H32.744v35.721    h29.767v35.721H32.744v35.721h29.767v35.721H32.744v35.721h29.767V512h416.744V0H62.512z M443.535,476.279H98.233v-23.814H128    v-35.721H98.233v-35.721H128v-35.721H98.233v-35.721H128V273.86H98.233V238.14H128v-35.721H98.233v-35.721H128v-35.721H98.233    V95.256H128V59.535H98.233V35.721h345.302V476.279z" fill="#ed8211"/>
	</g>
</g>
<g>
</g>
<g>
</g>
<g>
</g>
<g>
</g>
<g>
</g>
<g>
</g>
<g>
</g>
<g>
</g>
<g>
</g>
<g>
</g>
<g>
</g>
<g>
</g>
<g>
</g>
<g>
</g>
<g>
</g>
</svg>
