<?xml version="1.0" encoding="UTF-8"?>
<!DOCTYPE svg PUBLIC "-//W3C//DTD SVG 1.1//EN" "http://www.w3.org/Graphics/SVG/1.1/DTD/svg11.dtd">
<!-- Creator: CorelDRAW -->
<svg xmlns="http://www.w3.org/2000/svg" xml:space="preserve" width="40.0002mm" height="40.0002mm" style="shape-rendering:geometricPrecision; text-rendering:geometricPrecision; image-rendering:optimizeQuality; fill-rule:evenodd; clip-rule:evenodd"
viewBox="0 0 40.0002 40.0002"
 xmlns:xlink="http://www.w3.org/1999/xlink"
 version="1.1">
 <defs>
  <style type="text/css">
   <![CDATA[
    .fil0 {fill:none}
    .fil1 {fill:black}
   ]]>
  </style>
 </defs>
 <g id="Capa_x0020_1">
  <metadata id="CorelCorpID_0Corel-Layer"/>
  <rect class="fil0" width="40.0002" height="40.0002"/>
  <g id="_123372128">
   <g>
    <g id="Search_1_">
     <g>
      <path id="_168432112" class="fil1" d="M35.8005 32.7679l-5.9107 -5.9087c1.6204,-2.3221 2.5779,-5.1393 2.5779,-8.1837 0,-7.9095 -6.412,-14.3215 -14.3215,-14.3215 -7.9096,0 -14.3216,6.412 -14.3216,14.3215 0,7.9096 6.412,14.3216 14.3215,14.3216 3.0444,0 5.8616,-0.9575 8.1837,-2.5779l5.9087 5.9086c0.9841,0.9841 2.5779,0.9841 3.562,0 0.982,-0.982 0.982,-2.5758 0,-3.5599zm-17.6544 -3.8627c-5.6488,0 -10.2296,-4.5809 -10.2296,-10.2297 0,-5.6488 4.5809,-10.2296 10.2296,-10.2296 5.6488,0 10.2296,4.5809 10.2296,10.2296 0,5.6488 -4.5808,10.2297 -10.2296,10.2297z"/>
     </g>
    </g>
   </g>
   <g>
   </g>
   <g>
   </g>
   <g>
   </g>
   <g>
   </g>
   <g>
   </g>
   <g>
   </g>
   <g>
   </g>
   <g>
   </g>
   <g>
   </g>
   <g>
   </g>
   <g>
   </g>
   <g>
   </g>
   <g>
   </g>
   <g>
   </g>
   <g>
   </g>
  </g>
 </g>
</svg>
