<?xml version="1.0" encoding="UTF-8" standalone="no"?>
<!-- Created with Inkscape (http://www.inkscape.org/) -->

<svg
   xmlns:dc="http://purl.org/dc/elements/1.1/"
   xmlns:cc="http://creativecommons.org/ns#"
   xmlns:rdf="http://www.w3.org/1999/02/22-rdf-syntax-ns#"
   xmlns:svg="http://www.w3.org/2000/svg"
   xmlns="http://www.w3.org/2000/svg"
   xmlns:sodipodi="http://sodipodi.sourceforge.net/DTD/sodipodi-0.dtd"
   xmlns:inkscape="http://www.inkscape.org/namespaces/inkscape"
   width="25mm"
   height="25mm"
   viewBox="0 0 25 25"
   version="1.1"
   id="svg3833"
   inkscape:version="0.92.2 (5c3e80d, 2017-08-06)"
   sodipodi:docname="reddit--branco.svg">
  <defs
     id="defs3827" />
  <sodipodi:namedview
     id="base"
     pagecolor="#ffffff"
     bordercolor="#666666"
     borderopacity="1.0"
     inkscape:pageopacity="0.0"
     inkscape:pageshadow="2"
     inkscape:zoom="2.8195883"
     inkscape:cx="81.670833"
     inkscape:cy="19.887655"
     inkscape:document-units="mm"
     inkscape:current-layer="layer1"
     showgrid="false"
     inkscape:window-width="1440"
     inkscape:window-height="837"
     inkscape:window-x="-8"
     inkscape:window-y="-8"
     inkscape:window-maximized="1"
     showguides="false" />
  <metadata
     id="metadata3830">
    <rdf:RDF>
      <cc:Work
         rdf:about="">
        <dc:format>image/svg+xml</dc:format>
        <dc:type
           rdf:resource="http://purl.org/dc/dcmitype/StillImage" />
        <dc:title></dc:title>
      </cc:Work>
    </rdf:RDF>
  </metadata>
  <g
     inkscape:label="Camada 1"
     inkscape:groupmode="layer"
     id="layer1"
     transform="translate(0,-272)">
    <g
       id="g3910"
       transform="matrix(0.05303776,0,0,0.05303776,0.33846795,272.49276)" />
    <g
       id="g3912"
       transform="matrix(0.05303776,0,0,0.05303776,0.33846795,272.49276)" />
    <g
       id="g3914"
       transform="matrix(0.05303776,0,0,0.05303776,0.33846795,272.49276)" />
    <g
       id="g3916"
       transform="matrix(0.05303776,0,0,0.05303776,0.33846795,272.49276)" />
    <g
       id="g3918"
       transform="matrix(0.05303776,0,0,0.05303776,0.33846795,272.49276)" />
    <g
       id="g3920"
       transform="matrix(0.05303776,0,0,0.05303776,0.33846795,272.49276)" />
    <g
       id="g3922"
       transform="matrix(0.05303776,0,0,0.05303776,0.33846795,272.49276)" />
    <g
       id="g3924"
       transform="matrix(0.05303776,0,0,0.05303776,0.33846795,272.49276)" />
    <g
       id="g3926"
       transform="matrix(0.05303776,0,0,0.05303776,0.33846795,272.49276)" />
    <g
       id="g3928"
       transform="matrix(0.05303776,0,0,0.05303776,0.33846795,272.49276)" />
    <g
       id="g3930"
       transform="matrix(0.05303776,0,0,0.05303776,0.33846795,272.49276)" />
    <g
       id="g3932"
       transform="matrix(0.05303776,0,0,0.05303776,0.33846795,272.49276)" />
    <g
       id="g3934"
       transform="matrix(0.05303776,0,0,0.05303776,0.33846795,272.49276)" />
    <g
       id="g3936"
       transform="matrix(0.05303776,0,0,0.05303776,0.33846795,272.49276)" />
    <g
       id="g3938"
       transform="matrix(0.05303776,0,0,0.05303776,0.33846795,272.49276)" />
    <g
       id="g4120"
       transform="matrix(0.4503507,0,0,0.4503507,0.11247777,271.93046)"
       style="fill:#f9f9f9">
      <g
         id="g4060"
         style="fill:#f9f9f9">
        <g
           id="g4058"
           style="fill:#f9f9f9">
          <path
             id="path4050"
             d="m 33.393,29.715 c 0,0.019 0.057,0.528 0.377,1.019 0.19,0.291 0.445,0.535 0.763,0.734 0.624,0.473 1.332,0.707 2.14,0.707 0.139,0 0.293,-0.019 0.459,-0.058 0.252,-0.058 0.467,-0.136 0.491,-0.136 0.024,0 0.497,-0.082 0.953,-0.385 0.456,-0.303 1.019,-1 1.183,-1.511 0.098,-0.303 0.147,-0.621 0.147,-0.955 0,-0.157 -0.019,-0.323 -0.054,-0.495 -0.059,-0.269 -0.25,-0.931 -0.594,-1.363 -0.195,-0.246 -0.443,-0.466 -0.744,-0.664 -0.605,-0.345 -1.24,-0.521 -1.914,-0.521 -0.364,0 -0.742,0.066 -1.133,0.193 -0.623,0.221 -1.132,0.596 -1.52,1.136 -0.407,0.473 -0.613,1.046 -0.613,1.714 0,0.103 0.004,0.196 0.012,0.279 0.013,0.154 0.047,0.287 0.047,0.306 z"
             inkscape:connector-curvature="0"
             style="fill:#f9f9f9" />
          <path
             id="path4052"
             d="m 51.262,19.651 c -0.967,-0.572 -1.886,-0.78 -1.902,-0.78 -0.01,0 -0.172,-0.034 -0.395,-0.072 -0.017,-0.01 -0.037,-0.023 -0.053,-0.033 l -0.057,-0.035 -0.023,-0.002 -0.223,-0.17 0.119,0.161 -0.133,-0.013 c -0.554,-0.042 -1.049,-0.117 -1.641,-0.15 l -0.336,-0.006 c -0.271,-0.008 -0.543,-0.014 -0.814,-0.017 l -0.494,-0.01 -0.043,-0.001 -0.043,0.012 c -0.465,0.129 -0.902,0.294 -1.334,0.467 -0.004,0.001 -0.006,0.002 -0.01,0.003 -0.008,0.003 -0.014,0.006 -0.021,0.01 -0.194,0.078 -0.391,0.155 -0.583,0.237 -0.315,0.136 -0.628,0.276 -0.94,0.427 -0.076,0.034 -0.164,0.081 -0.246,0.127 -0.5,-0.25 -1.285,-0.62 -2.199,-0.97 -1.013,-0.387 -2.049,-0.709 -3.11,-0.965 -0.997,-0.243 -2.002,-0.437 -3.017,-0.592 -0.285,-0.062 -0.582,-0.109 -0.875,-0.155 -1.334,-0.284 -2.342,-0.803 -2.297,-1.361 0.029,-0.387 0.074,-0.774 0.135,-1.162 0.115,-0.778 0.371,-1.502 0.761,-2.168 0.181,-0.355 0.429,-0.634 0.709,-0.877 0.598,-0.174 1.284,-0.191 1.95,-0.105 0.688,0.069 1.281,0.212 1.969,0.439 0.331,0.108 0.65,0.202 0.939,0.335 0.092,0.042 0.186,0.089 0.271,0.135 0.002,0.061 0.003,0.12 0.009,0.19 0.077,1.577 0.963,2.99 2.078,3.994 1.212,1.022 2.688,1.5 4.186,1.653 l 0.02,0.002 h 0.025 c 1.526,-0.008 3.053,-0.386 4.367,-1.254 0.17,-0.115 0.308,-0.213 0.489,-0.371 0.04,-0.037 0.079,-0.071 0.118,-0.106 0.217,-0.14 0.436,-0.275 0.643,-0.445 0.541,-0.45 0.981,-0.974 1.328,-1.567 0.18,-0.305 0.321,-0.631 0.43,-0.977 0.179,-0.563 0.259,-1.173 0.273,-1.336 0.01,-0.087 0.014,-0.185 0.014,-0.296 C 51.327,10.729 50.976,9.681 50.265,8.708 49.912,8.25 49.517,7.856 49.08,7.529 48.341,6.97 47.597,6.729 47.578,6.729 47.565,6.729 47.32,6.623 46.97,6.517 L 46.775,6.412 46.706,6.376 46.639,6.344 C 46.567,6.313 46.485,6.293 46.407,6.288 c 0.111,0.008 0.021,0 0.042,10e-4 C 46.555,6.306 46.432,6.28 46.411,6.27 L 45.879,6.114 C 45.519,6.013 45.162,5.914 44.763,5.838 L 44.705,5.827 44.649,5.828 c -0.611,0.008 -1.154,0.016 -1.803,0.083 l -1.627,0.238 -0.24,0.036 -0.144,0.096 C 39.827,6.96 38.4,7.513 37.152,7.706 36.84,7.747 36.525,7.76 36.282,7.712 35.931,7.642 35.528,7.583 35.171,7.546 34.434,7.468 33.707,7.426 32.962,7.426 h -0.036 l -0.025,0.003 -0.893,0.113 -0.441,0.062 -0.23,0.036 c -0.152,0.036 -0.16,0.047 -0.199,0.059 L 31.03,7.736 c -0.569,0.203 -1.117,0.403 -1.693,0.671 l -0.062,0.028 -0.049,0.038 c -0.496,0.391 -0.936,0.803 -1.359,1.25 -0.409,0.434 -0.847,0.958 -1.128,1.527 -0.567,1.171 -0.863,2.288 -1.09,3.501 l -0.005,0.018 -0.003,0.025 c -0.013,0.14 -0.144,0.424 -0.326,0.649 -0.18,0.235 -0.399,0.455 -0.64,0.649 -0.483,0.382 -1.05,0.67 -1.632,0.771 -1.356,0.218 -2.744,0.486 -4.082,0.836 -1.102,0.29 -2.158,0.682 -3.189,1.128 -0.004,10e-4 -0.007,0.002 -0.011,0.003 -0.675,0.25 -1.391,0.573 -2.123,0.946 l -0.063,0.032 C 13.476,19.756 13.377,19.703 13.27,19.648 12.926,19.472 12.567,19.319 12.19,19.192 11.394,18.934 10.556,18.803 9.669,18.803 H 9.471 C 8.153,18.651 6.819,18.72 5.631,19.151 4.734,19.487 3.941,19.982 3.294,20.495 2.642,21.03 2.135,21.597 1.712,22.086 1.541,22.095 2.295,20.552 3.778,19.549 4.127,19.3 4.483,19.085 4.861,18.894 5.008,18.821 5.189,18.734 5.368,18.658 5.54,18.584 5.704,18.522 5.854,18.468 6.458,18.257 6.853,18.16 6.771,18.06 6.346,18.056 5.849,18.106 5.307,18.251 5.17,18.293 5.038,18.329 4.889,18.383 c -0.12,0.043 -0.214,0.067 -0.373,0.138 -0.305,0.125 -0.557,0.253 -0.838,0.41 -1.082,0.589 -2.182,1.677 -2.861,2.94 -0.18,0.325 -0.32,0.628 -0.471,1.045 -0.132,0.37 -0.222,0.758 -0.28,1.146 -0.03,0.195 -0.046,0.39 -0.058,0.584 L 0,24.936 v 0.072 l 0.005,0.186 0.012,0.113 c 0.008,0.116 0.072,0.515 0.117,0.652 0.047,0.199 0.106,0.373 0.166,0.547 0.507,1.345 1.17,2.33 1.902,3.193 l 0.145,0.171 0.044,0.029 c 0.484,0.34 0.919,0.617 1.29,0.851 l 0.483,0.295 c 0.017,0.009 0.029,0.017 0.043,0.024 l 0.024,-0.176 c -0.01,-0.045 -0.018,-0.096 -0.017,-0.141 0,-0.044 0.005,-0.088 0.013,-0.128 0.002,-0.005 0.002,0.009 0.003,0.011 l 0.018,0.133 -0.017,0.125 c 0.009,0.041 0.021,0.082 0.034,0.109 0.004,0.029 0.012,0.059 0.025,0.085 -0.007,0.021 -0.04,0.005 -0.083,-0.019 l -0.038,0.285 -0.002,0.019 -0.002,0.06 c -0.018,0.826 0.024,1.629 0.138,2.448 0.054,0.415 0.131,0.81 0.244,1.259 0.089,0.352 0.237,0.809 0.379,1.189 0.295,0.785 0.693,1.568 1.138,2.26 0.186,0.318 0.455,0.693 0.699,1.039 0.253,0.334 0.509,0.669 0.787,0.984 1.077,1.281 2.476,2.384 3.804,3.267 1.379,0.917 2.803,1.701 4.361,2.368 2.998,1.273 6.231,2.064 9.448,2.33 3.276,0.294 6.44,-0.051 9.431,-0.713 l 0.514,-0.151 0.22,-0.067 0.024,-0.008 0.113,-0.029 0.047,-0.019 0.09,-0.036 c 0.231,-0.093 0.406,-0.17 0.539,-0.236 0.262,-0.131 0.381,-0.237 0.404,-0.307 0.061,-0.148 -0.15,-0.214 0.272,-0.469 1.837,-0.427 3.655,-1.086 5.385,-1.938 0.508,-0.256 0.815,-0.418 1.278,-0.693 0.449,-0.264 0.867,-0.542 1.266,-0.827 0.799,-0.582 1.555,-1.217 2.23,-1.912 0.662,-0.687 1.312,-1.442 1.826,-2.202 0.569,-0.836 0.981,-1.673 1.299,-2.541 0.218,-0.586 0.363,-1.173 0.479,-1.754 0.301,-0.986 0.462,-2.012 0.462,-3.084 0,-0.263 -0.014,-0.512 -0.038,-0.762 -0.01,-0.109 -0.021,-0.215 -0.035,-0.318 0.002,-0.002 0.002,-0.004 0.004,-0.005 L 51.73,29.7 c 0.181,-0.146 0.375,-0.305 0.578,-0.477 0.418,-0.355 0.793,-0.765 1.127,-1.228 0.713,-0.974 1.074,-2.051 1.074,-3.235 v -0.328 c -0.131,-1.356 -0.688,-2.538 -1.658,-3.53 -0.489,-0.495 -1.019,-0.914 -1.589,-1.251 z M 6.039,24.699 c 0.07,-0.778 0.407,-1.462 1.038,-2.04 0.346,-0.264 0.702,-0.473 1.07,-0.628 0.632,-0.267 1.211,-0.311 1.227,-0.311 0.017,0 0.03,0 0.03,0 h 0.263 c 0.319,0 0.62,0.04 0.891,0.128 0.137,0.045 0.277,0.09 0.424,0.134 0.235,0.072 -0.155,0.586 -0.815,1.22 -0.402,0.387 -0.781,0.788 -1.138,1.203 -0.35,0.412 -0.675,0.843 -0.975,1.293 -0.495,0.745 -1.033,1.25 -1.237,1.004 C 6.612,26.457 6.266,25.978 6.143,25.601 6.074,25.387 6.039,25.151 6.039,24.893 Z m 7.503,14.144 C 12.947,38.371 12.392,37.876 11.872,37.359 10.834,36.189 10.123,34.931 9.73,33.57 9.554,33.05 9.47,32.437 9.47,31.724 c 0,-1.836 0.571,-3.463 1.718,-4.892 0.233,-0.296 0.482,-0.576 0.735,-0.852 0.216,-0.201 0.435,-0.402 0.658,-0.593 1.059,-0.927 2.229,-1.689 2.767,-2.171 0.135,-0.079 0.272,-0.15 0.408,-0.226 1.314,-0.587 2.686,-1.016 4.123,-1.307 1.528,-0.325 3.078,-0.516 4.627,-0.585 1.54,-0.068 3.098,-0.041 4.587,0.082 1.506,0.119 3.023,0.326 4.371,0.569 1.514,0.243 0.76,-0.071 1.229,-0.084 1.688,0.558 3.478,1.259 5.062,2.024 1.596,0.774 2.914,1.731 3.961,2.673 1.071,0.921 1.688,1.834 2.135,2.356 0.418,0.525 0.668,0.629 0.621,0.047 -1.846,-3.58 -5.42,-5.704 -9.11,-6.995 -2.916,-1.067 -6.045,-1.677 -9.218,-1.819 0.166,-0.003 0.328,-0.017 0.496,-0.017 1.013,0 2.054,0.056 3.119,0.163 1.071,0.108 2.112,0.27 3.127,0.489 l 1.002,0.256 1.037,0.26 c 1.77,0.499 3.452,1.211 5.051,2.134 1.603,0.933 2.94,2.105 4.049,3.533 0.516,0.734 0.929,1.511 1.244,2.33 0.314,0.823 0.47,1.674 0.47,2.56 v 0.776 c 0,0.117 -0.011,0.231 -0.033,0.344 -0.035,0.189 -0.272,1.22 -0.767,2.201 -0.287,0.572 -0.647,1.127 -1.079,1.662 -0.753,1.016 -1.724,1.943 -2.912,2.785 -1.771,1.188 -3.69,2.094 -5.763,2.719 -2.071,0.627 -4.189,1.022 -6.349,1.197 -0.364,0.049 -0.735,0.065 -1.097,0.065 h -1.102 c -2.159,0 -4.293,-0.222 -6.396,-0.664 -2.103,-0.44 -4.08,-1.147 -5.938,-2.119 L 15.848,40.364 15.604,40.25 C 15.473,40.188 14.51,39.61 13.542,38.843 Z M 48.191,24.404 c -0.358,-0.415 -0.739,-0.816 -1.145,-1.203 -0.66,-0.634 -0.883,-1.282 -0.398,-1.389 0.287,-0.062 0.584,-0.094 0.894,-0.094 0.647,0 1.287,0.151 1.911,0.45 0.627,0.349 1.09,0.79 1.395,1.331 0.209,0.452 0.321,0.875 0.321,1.265 0,0.536 -0.126,1.02 -0.386,1.456 -0.118,0.178 -0.242,0.343 -0.373,0.496 -0.225,0.261 -0.738,-0.235 -1.232,-0.999 -0.297,-0.461 -0.625,-0.899 -0.987,-1.313 z m -3.552,-5.133 c -0.621,0.28 -1.108,0.591 -1.27,0.694 -0.238,0.154 -0.466,0.245 -0.538,0.206 -0.073,-0.039 -0.157,-0.053 -0.176,-0.071 0,0 -0.005,-0.003 -0.007,-0.003 0.273,-0.13 0.552,-0.256 0.83,-0.375 0.384,-0.162 0.771,-0.312 1.161,-0.451 z M 43.643,17.703 H 43.639 43.637 C 42.236,17.565 40.83,17.097 39.741,16.18 38.7,15.245 37.892,13.955 37.819,12.535 37.812,12.448 37.806,12.36 37.806,12.272 c -0.01,-0.078 0.026,-0.199 -0.074,-0.239 -0.146,-0.1 -0.305,-0.176 -0.465,-0.25 -0.32,-0.148 -0.66,-0.249 -0.994,-0.357 -0.666,-0.221 -1.354,-0.394 -2.057,-0.461 -0.285,-0.031 -0.574,-0.046 -0.863,-0.046 0.488,-0.134 0.908,-0.144 1.014,-0.144 0.16,0 0.29,0 0.29,0 0.754,0 1.489,0.107 2.198,0.309 0.359,0.103 0.72,0.213 1.076,0.33 0.592,0.192 1.065,0.41 1.065,0.464 0,0.054 0,0.098 0,0.098 0,0.753 0.154,1.439 0.455,2.056 0.302,0.613 0.698,1.171 1.194,1.669 1.039,1.055 2.311,1.649 3.824,1.775 h 0.739 c 0.15,0 0.291,-0.026 0.438,-0.036 -0.652,0.169 -1.329,0.26 -2.003,0.263 z m 1.505,-8.576 c 0.388,-0.012 0.744,0.045 1.072,0.173 0.564,0.219 1.328,0.892 1.601,1.427 0.161,0.317 0.241,0.667 0.241,1.052 v 0.064 c 0,0.035 -0.041,0.539 -0.307,1.041 -0.156,0.292 -0.365,0.562 -0.631,0.807 -0.564,0.494 -1.197,0.743 -1.914,0.743 h -0.19 c -0.713,0 -1.354,-0.249 -1.945,-0.743 -0.559,-0.477 -0.838,-1.069 -0.838,-1.784 v -0.128 c 0,-0.671 0.211,-1.227 0.652,-1.684 0.385,-0.472 0.89,-0.776 1.514,-0.904 0.195,-0.047 0.445,-0.064 0.745,-0.064 z M 41.161,6.705 41.182,6.691 41.217,6.686 42.909,6.437 c 0.377,-0.04 0.75,-0.058 1.124,-0.069 -0.609,0.093 -1.1,0.232 -1.115,0.232 -0.017,0 -0.865,0.281 -1.705,0.931 -0.797,0.617 -2.261,0.879 -3.652,0.648 1.274,-0.26 2.529,-0.754 3.6,-1.474 z m -11.58,2.236 v 0 c 0.531,-0.25 1.081,-0.456 1.634,-0.656 0.569,-0.171 1.156,-0.201 1.74,-0.287 h 0.002 0.003 c 0.011,0 0.022,10e-4 0.034,10e-4 -0.199,0.031 -0.332,0.056 -0.342,0.056 -0.02,0 -0.614,0.125 -1.271,0.434 -0.398,0.188 -0.773,0.415 -1.121,0.681 -0.693,0.531 -1.254,1.172 -1.687,1.931 -0.539,0.882 -0.896,1.825 -1.068,2.816 -0.085,0.492 -0.149,0.981 -0.193,1.468 -0.052,0.585 -0.76,1.131 -1.76,1.481 0.48,-0.458 0.932,-1 1.059,-1.865 -0.041,-0.233 -0.161,0.276 -0.404,0.525 -0.177,0.216 -0.349,0.363 -0.365,0.28 0.206,-0.278 0.366,-0.589 0.429,-0.956 l -0.001,0.008 c 0.197,-1.13 0.501,-2.268 1,-3.313 0.537,-1.032 1.416,-1.855 2.311,-2.604 z M 13.405,42.69 C 11.259,41.477 9.276,39.959 7.928,38.008 7.756,37.783 7.581,37.491 7.408,37.237 7.268,37.012 7.109,36.744 6.98,36.49 6.714,35.977 6.484,35.425 6.317,34.889 5.979,33.809 5.852,32.617 5.846,31.471 l -0.005,0.047 0.004,-0.086 c 0,0.014 0.001,0.026 0.001,0.039 L 5.885,31.116 5.907,30.927 5.913,30.882 5.916,30.857 5.924,30.761 C 5.926,30.666 5.915,30.566 5.891,30.47 5.879,30.425 5.864,30.376 5.848,30.336 L 5.828,30.295 C 5.802,30.241 5.771,30.189 5.739,30.138 5.557,29.878 5.468,29.812 5.348,29.685 L 5.023,29.376 C 4.632,29.019 4.244,28.694 3.867,28.372 c 0.014,0.02 0.027,0.044 0.041,0.064 l -0.141,-0.15 c 0.032,0.027 0.067,0.059 0.099,0.086 C 3.489,27.843 3.142,27.247 2.86,26.65 2.572,26.026 2.331,25.381 2.351,24.921 2.372,24.292 2.512,23.718 2.792,23.14 c 0.213,-0.441 0.49,-0.841 0.794,-1.221 -0.144,0.225 -0.293,0.447 -0.412,0.688 -0.357,0.727 -0.533,1.486 -0.533,2.285 0.039,1.097 0.442,2.158 1.195,3.171 0.302,0.438 0.671,0.843 1.107,1.213 0.691,0.588 1.32,1.08 1.295,1.271 -0.016,0.112 -0.027,0.229 -0.039,0.348 -0.021,0.252 -0.035,0.48 -0.035,0.697 0,1.016 0.154,2.026 0.456,3.043 0.305,1.012 0.747,1.965 1.328,2.846 1.101,1.686 2.479,3.09 4.147,4.211 1.662,1.119 3.421,2.037 5.275,2.75 1.252,0.474 2.532,0.859 3.836,1.162 -2.739,-0.593 -5.392,-1.539 -7.801,-2.914 z"
             inkscape:connector-curvature="0"
             style="fill:#f9f9f9" />
          <path
             id="path4054"
             d="m 22.054,36.379 c -0.257,-0.177 -0.505,-0.382 -0.585,-0.417 -0.046,-0.02 -0.094,-0.04 -0.145,-0.062 -0.108,-0.043 -0.221,-0.086 -0.33,-0.127 -0.256,-0.088 -0.452,-0.135 -0.581,-0.135 -0.076,0 -0.175,0.016 -0.295,0.047 -0.161,0.041 -0.303,0.086 -0.322,0.086 -0.019,0 -0.243,0.067 -0.446,0.235 -0.202,0.169 -0.43,0.509 -0.479,0.736 -0.028,0.128 -0.042,0.267 -0.042,0.418 0,0.258 0.063,0.528 0.193,0.806 0.067,0.113 0.151,0.213 0.253,0.303 0.166,0.143 1.462,0.965 3.009,1.56 1.724,0.662 3.549,0.991 5.479,0.991 0.151,0 0.316,0 0.481,0 1.428,0 2.812,-0.137 4.146,-0.404 1.338,-0.27 2.636,-0.697 3.888,-1.277 0.171,-0.088 0.354,-0.175 0.554,-0.263 0.102,-0.044 0.203,-0.095 0.311,-0.151 0.168,-0.088 0.445,-0.224 0.602,-0.332 0.093,-0.064 0.178,-0.141 0.256,-0.227 0.1,-0.102 0.182,-0.206 0.243,-0.312 0.11,-0.19 0.179,-0.438 0.194,-0.526 0.01,-0.05 0.015,-0.104 0.015,-0.165 0,-0.128 -0.046,-0.324 -0.138,-0.583 -0.129,-0.324 -0.344,-0.55 -0.646,-0.679 -0.34,-0.174 -0.631,-0.262 -0.872,-0.262 -0.256,0 -0.533,0.064 -0.809,0.197 -2.35,1.316 -4.911,1.984 -7.674,2.005 -2.07,0 -3.991,-0.397 -5.762,-1.196 -0.147,-0.05 -0.314,-0.139 -0.498,-0.266 z"
             inkscape:connector-curvature="0"
             style="fill:#f9f9f9" />
          <path
             id="path4056"
             d="m 18.631,31.599 c 0.465,0.289 1.121,0.479 1.4,0.531 0.163,0.03 0.333,0.045 0.512,0.045 0.842,0 1.599,-0.279 2.269,-0.843 0.715,-0.58 1.068,-1.294 1.068,-2.133 v -0.068 -0.13 c 0,-0.795 -0.336,-1.477 -1.002,-2.036 -0.712,-0.584 -1.493,-0.877 -2.335,-0.877 -0.117,0 -0.226,0.004 -0.324,0.013 -0.112,0.01 -0.365,0.049 -0.642,0.122 -0.076,-0.005 -0.157,-0.006 -0.243,0.004 -0.028,0.013 0.093,0.025 0.086,0.038 -0.006,0.002 -0.012,0.004 -0.018,0.006 -0.082,0.007 -0.159,0.007 -0.233,0.004 -0.135,0.013 -0.262,0.021 -0.379,0.044 -0.104,0.034 -0.16,0.059 -0.172,0.072 l 0.553,-0.078 c -10e-4,0 -10e-4,0 -0.002,0 h 0.003 -0.001 c 0.032,0 0.068,0.006 0.101,0.006 -0.065,0.023 -0.131,0.044 -0.193,0.072 -0.258,0.116 -0.497,0.269 -0.719,0.459 -0.221,0.188 -0.407,0.395 -0.56,0.623 -0.26,0.385 -0.426,0.834 -0.462,0.953 -0.021,0.07 -0.032,0.143 -0.032,0.219 v 0.424 c 0,0.712 0.196,1.337 0.585,1.877 0.216,0.263 0.462,0.481 0.74,0.653 z"
             inkscape:connector-curvature="0"
             style="fill:#f9f9f9" />
        </g>
      </g>
      <g
         id="g4062"
         style="fill:#f9f9f9" />
      <g
         id="g4064"
         style="fill:#f9f9f9" />
      <g
         id="g4066"
         style="fill:#f9f9f9" />
      <g
         id="g4068"
         style="fill:#f9f9f9" />
      <g
         id="g4070"
         style="fill:#f9f9f9" />
      <g
         id="g4072"
         style="fill:#f9f9f9" />
      <g
         id="g4074"
         style="fill:#f9f9f9" />
      <g
         id="g4076"
         style="fill:#f9f9f9" />
      <g
         id="g4078"
         style="fill:#f9f9f9" />
      <g
         id="g4080"
         style="fill:#f9f9f9" />
      <g
         id="g4082"
         style="fill:#f9f9f9" />
      <g
         id="g4084"
         style="fill:#f9f9f9" />
      <g
         id="g4086"
         style="fill:#f9f9f9" />
      <g
         id="g4088"
         style="fill:#f9f9f9" />
      <g
         id="g4090"
         style="fill:#f9f9f9" />
    </g>
  </g>
</svg>
