<?xml version="1.0" encoding="UTF-8"?>
<!DOCTYPE svg PUBLIC "-//W3C//DTD SVG 1.1//EN" "http://www.w3.org/Graphics/SVG/1.1/DTD/svg11.dtd">
<!-- Creator: CorelDRAW -->
<svg xmlns="http://www.w3.org/2000/svg" xml:space="preserve" width="1384px" height="2214px" style="shape-rendering:geometricPrecision; text-rendering:geometricPrecision; image-rendering:optimizeQuality; fill-rule:evenodd; clip-rule:evenodd"
viewBox="0 0 1311.54 2098.51"
 xmlns:xlink="http://www.w3.org/1999/xlink">
 <defs>
  <style type="text/css">
   <![CDATA[
    .fil0 {fill:#ED8211}
   ]]>
  </style>
 </defs>
 <g id="Capa_x0020_1">
  <metadata id="CorelCorpID_0Corel-Layer"/>
  <path id="XMLID_7_" class="fil0" d="M666.949 1064.53l567.76 -616.748c102.441,-102.441 102.441,-268.514 0,-370.956 -102.421,-102.441 -268.515,-102.441 -370.958,0l-786.894 786.911c-6.13921,6.13809 -11.9426,12.574 -17.437,19.2863 -2.39568,2.92071 -4.47791,6.01495 -6.73253,9.00507 -2.88377,3.84652 -5.85822,7.60572 -8.53489,11.6123 -2.44941,3.65621 -4.56411,7.44788 -6.80306,11.1903 -2.15275,3.60248 -4.4085,7.11763 -6.38326,10.8231 -2.06543,3.8454 -3.79615,7.79939 -5.64664,11.7153 -1.81691,3.82973 -3.72562,7.6046 -5.34886,11.525 -1.57398,3.82973 -2.86698,7.72887 -4.25065,11.6123 -1.52025,4.19692 -3.13118,8.3401 -4.42417,12.6232 -1.17321,3.88346 -2.02849,7.81619 -3.00803,11.7523 -1.10268,4.35476 -2.32515,8.69162 -3.20058,13.1326 -0.892223,4.52716 -1.43405,9.11254 -2.08223,13.6733 -0.557499,3.89914 -1.30979,7.74566 -1.69825,11.6985 -0.838488,8.46436 -1.2762,16.9813 -1.293,25.4793 0,0.124262 -0.0156727,0.259719 -0.0156727,0.38398 0,0.124262 0.0156727,0.259719 0.0156727,0.38398 0.0167921,8.5181 0.454508,17.0149 1.293,25.4961 0.38398,3.89914 1.11948,7.69528 1.6613,11.5586 0.664969,4.61784 1.20568,9.23232 2.11469,13.8132 0.875431,4.40738 2.08223,8.67482 3.18043,12.9915 0.996334,3.96966 1.87176,7.97291 3.06177,11.909 1.2762,4.21371 2.86586,8.29084 4.33685,12.4172 1.41726,3.95399 2.71025,7.92366 4.32118,11.8026 1.58966,3.8454 3.46142,7.53856 5.24587,11.2978 1.88744,4.00325 3.67188,8.04232 5.7709,11.9795 1.9255,3.58568 4.11072,6.99337 6.19183,10.4761 2.29269,3.86667 4.47791,7.76581 6.99449,11.525 2.55241,3.82973 5.40259,7.41429 8.14979,11.1041 2.37889,3.16364 4.5809,6.43587 7.11763,9.51331 5.22908,6.36534 10.7727,12.4665 16.5604,18.3281 0.280989,0.280989 0.508242,0.595562 0.784753,0.87655l786.927 786.944c51.2396,51.2183 118.354,76.8375 185.489,76.8375 67.1137,-0.0156727 134.266,-25.6192 185.467,-76.8218 102.442,-102.441 102.442,-268.514 0.0167921,-370.956l-567.752 -586.196z"/>
 </g>
</svg>
