<?xml version="1.0" encoding="UTF-8" standalone="no"?>
<!-- Created with Inkscape (http://www.inkscape.org/) -->

<svg
   xmlns:dc="http://purl.org/dc/elements/1.1/"
   xmlns:cc="http://creativecommons.org/ns#"
   xmlns:rdf="http://www.w3.org/1999/02/22-rdf-syntax-ns#"
   xmlns:svg="http://www.w3.org/2000/svg"
   xmlns="http://www.w3.org/2000/svg"
   xmlns:sodipodi="http://sodipodi.sourceforge.net/DTD/sodipodi-0.dtd"
   xmlns:inkscape="http://www.inkscape.org/namespaces/inkscape"
   width="25mm"
   height="25mm"
   viewBox="0 0 25 25"
   version="1.1"
   id="svg3833"
   inkscape:version="0.92.2 (5c3e80d, 2017-08-06)"
   sodipodi:docname="stumbleupon-branco.svg">
  <defs
     id="defs3827" />
  <sodipodi:namedview
     id="base"
     pagecolor="#ffffff"
     bordercolor="#666666"
     borderopacity="1.0"
     inkscape:pageopacity="0.0"
     inkscape:pageshadow="2"
     inkscape:zoom="2.8195883"
     inkscape:cx="81.670833"
     inkscape:cy="19.887655"
     inkscape:document-units="mm"
     inkscape:current-layer="layer1"
     showgrid="false"
     inkscape:window-width="1440"
     inkscape:window-height="837"
     inkscape:window-x="-8"
     inkscape:window-y="-8"
     inkscape:window-maximized="1"
     showguides="false" />
  <metadata
     id="metadata3830">
    <rdf:RDF>
      <cc:Work
         rdf:about="">
        <dc:format>image/svg+xml</dc:format>
        <dc:type
           rdf:resource="http://purl.org/dc/dcmitype/StillImage" />
        <dc:title></dc:title>
      </cc:Work>
    </rdf:RDF>
  </metadata>
  <g
     inkscape:label="Camada 1"
     inkscape:groupmode="layer"
     id="layer1"
     transform="translate(0,-272)">
    <g
       id="g3910"
       transform="matrix(0.05303776,0,0,0.05303776,0.33846795,272.49276)" />
    <g
       id="g3912"
       transform="matrix(0.05303776,0,0,0.05303776,0.33846795,272.49276)" />
    <g
       id="g3914"
       transform="matrix(0.05303776,0,0,0.05303776,0.33846795,272.49276)" />
    <g
       id="g3916"
       transform="matrix(0.05303776,0,0,0.05303776,0.33846795,272.49276)" />
    <g
       id="g3918"
       transform="matrix(0.05303776,0,0,0.05303776,0.33846795,272.49276)" />
    <g
       id="g3920"
       transform="matrix(0.05303776,0,0,0.05303776,0.33846795,272.49276)" />
    <g
       id="g3922"
       transform="matrix(0.05303776,0,0,0.05303776,0.33846795,272.49276)" />
    <g
       id="g3924"
       transform="matrix(0.05303776,0,0,0.05303776,0.33846795,272.49276)" />
    <g
       id="g3926"
       transform="matrix(0.05303776,0,0,0.05303776,0.33846795,272.49276)" />
    <g
       id="g3928"
       transform="matrix(0.05303776,0,0,0.05303776,0.33846795,272.49276)" />
    <g
       id="g3930"
       transform="matrix(0.05303776,0,0,0.05303776,0.33846795,272.49276)" />
    <g
       id="g3932"
       transform="matrix(0.05303776,0,0,0.05303776,0.33846795,272.49276)" />
    <g
       id="g3934"
       transform="matrix(0.05303776,0,0,0.05303776,0.33846795,272.49276)" />
    <g
       id="g3936"
       transform="matrix(0.05303776,0,0,0.05303776,0.33846795,272.49276)" />
    <g
       id="g3938"
       transform="matrix(0.05303776,0,0,0.05303776,0.33846795,272.49276)" />
    <g
       id="g4048"
       transform="matrix(0.06099949,0,0,0.06099949,-0.18147002,271.92816)"
       style="fill:#f9f9f9">
      <g
         id="g3991"
         style="fill:#f9f9f9">
        <path
           id="path3987"
           d="m 347.267,220.659 v 45.045 c 0,15.16 -12.405,28.069 -27.562,27.815 -14.733,-0.247 -26.641,-12.307 -26.641,-27.098 v -43.42 c 0,-5.414 -5.394,-9.171 -10.472,-7.294 l -23.911,8.838 c -1.794,0.663 -3.77,0.642 -5.55,-0.06 l -14.241,-5.619 c -5.103,-2.013 -10.63,1.748 -10.63,7.233 v 38.927 c 0,50.435 40.05,92.52 90.479,93.288 51.328,0.782 93.331,-40.743 93.331,-91.894 v -45.763 c 0,-3.882 -3.147,-7.03 -7.03,-7.03 h -50.744 c -3.882,0.003 -7.029,3.15 -7.029,7.032 z"
           style="fill:#f9f9f9"
           inkscape:connector-curvature="0" />
        <path
           id="path3989"
           d="m 228.26,141.418 v 21.523 c 0,3.193 1.952,6.062 4.922,7.233 l 20.45,8.068 c 1.78,0.702 3.755,0.724 5.55,0.06 l 28.801,-10.646 c 3.053,-1.128 5.08,-4.039 5.08,-7.294 v -18.269 c 0,-47.758 -37.924,-87.611 -85.677,-88.339 -48.604,-0.741 -88.38,38.581 -88.38,87.018 v 124.932 c 0,15.16 -12.405,28.069 -27.562,27.815 -14.733,-0.247 -26.641,-12.307 -26.641,-27.098 v -45.763 c 0,-3.882 -3.147,-7.03 -7.03,-7.03 H 7.03 c -3.882,0 -7.03,3.147 -7.03,7.03 v 44.367 c 0,50.434 40.048,92.52 90.477,93.29 51.328,0.784 93.333,-40.742 93.333,-91.894 v -125.65 c 0,-12.626 10.584,-22.827 23.345,-22.197 11.939,0.591 21.105,10.891 21.105,22.844 z"
           style="fill:#f9f9f9"
           inkscape:connector-curvature="0" />
      </g>
      <g
         id="g3993"
         style="fill:#f9f9f9" />
      <g
         id="g3995"
         style="fill:#f9f9f9" />
      <g
         id="g3997"
         style="fill:#f9f9f9" />
      <g
         id="g3999"
         style="fill:#f9f9f9" />
      <g
         id="g4001"
         style="fill:#f9f9f9" />
      <g
         id="g4003"
         style="fill:#f9f9f9" />
      <g
         id="g4005"
         style="fill:#f9f9f9" />
      <g
         id="g4007"
         style="fill:#f9f9f9" />
      <g
         id="g4009"
         style="fill:#f9f9f9" />
      <g
         id="g4011"
         style="fill:#f9f9f9" />
      <g
         id="g4013"
         style="fill:#f9f9f9" />
      <g
         id="g4015"
         style="fill:#f9f9f9" />
      <g
         id="g4017"
         style="fill:#f9f9f9" />
      <g
         id="g4019"
         style="fill:#f9f9f9" />
      <g
         id="g4021"
         style="fill:#f9f9f9" />
    </g>
  </g>
</svg>
