<?xml version="1.0" encoding="UTF-8"?>
<!DOCTYPE svg PUBLIC "-//W3C//DTD SVG 1.1//EN" "http://www.w3.org/Graphics/SVG/1.1/DTD/svg11.dtd">
<!-- Creator: CorelDRAW -->
<svg xmlns="http://www.w3.org/2000/svg" xml:space="preserve" width="100%" height="100%" style="shape-rendering:geometricPrecision; text-rendering:geometricPrecision; image-rendering:optimizeQuality; fill-rule:evenodd; clip-rule:evenodd"
viewBox="0 0 2.50002 2.50002"
 xmlns:xlink="http://www.w3.org/1999/xlink">
 <defs>
  <style type="text/css">
   <![CDATA[
    .fil0 {fill:none}
    .fil1 {fill: black}
   ]]>
  </style>
 </defs>
 <g id="Capa_x0020_1">
  <metadata id="CorelCorpID_0Corel-Layer"/>
  <rect class="fil0" width="2.50002" height="2.50002"/>
  <path class="fil1" d="M1.85227 1.18428c-0.0044,0.00659 -0.0044,0.01318 -0.0066,0.02196 -0.00219,0.02855 0.01977,0.05491 0.04833,0.05711 0.02855,0.00219 0.05491,-0.01977 0.0571,-0.04832 0,-0.00659 0,-0.01318 0.0022,-0.02416 0,-0.01098 0,-0.01758 0,-0.02416 0,-0.0637 -0.01099,-0.1252 -0.03075,-0.1845 -0.02636,-0.07686 -0.07248,-0.14495 -0.12739,-0.20205 -0.06808,-0.06809 -0.15155,-0.11641 -0.24599,-0.14276 -0.04392,-0.01099 -0.09224,-0.01757 -0.13836,-0.01757 -0.01538,0 -0.03075,0 -0.04833,0.00219 -0.01537,0.0022 -0.03075,0.00439 -0.04612,0.00659 -0.02855,0.00439 -0.04832,0.03295 -0.04173,0.0593 0.0044,0.02856 0.03295,0.04832 0.0593,0.04173 0.01318,-0.0022 0.02416,-0.00439 0.03734,-0.00439 0.0022,0 0.0044,0 0.00659,0 0.01098,0 0.02196,-0.0022 0.03295,-0.0022 0.12079,0 0.2328,0.04833 0.31187,0.12959 0.07907,0.07907 0.12739,0.18669 0.12959,0.30749l0 0.00439c0,0.00877 0,0.01537 0,0.01976zm0.19387 -0.7005c-0.20865,-0.20865 -0.49417,-0.33604 -0.81044,-0.33604 -0.03295,0 -0.06589,0.0022 -0.09884,0.0044 -0.03294,0.00219 -0.06589,0.00658 -0.09883,0.01317 -0.02856,0.00439 -0.04832,0.03295 -0.04173,0.0593 0.00439,0.02856 0.03294,0.04832 0.0593,0.04173 0.01537,-0.0022 0.02855,-0.00439 0.04393,-0.00659 0.01537,-0.00219 0.03075,-0.00439 0.04612,-0.00439 0.03074,-0.0022 0.0593,-0.00439 0.09005,-0.00439 0.28552,0 0.54468,0.1164 0.73357,0.30309 0.18669,0.18669 0.3031,0.44585 0.3031,0.73357 0,0.01538 0,0.03295 0,0.04832 0,0.01318 -0.0022,0.02636 -0.0022,0.04173 -0.0022,0.02855 0.01976,0.05491 0.04831,0.05711 0.02856,0.00219 0.05491,-0.01977 0.05711,-0.04832 0.0022,-0.03295 0.00439,-0.06589 0.00439,-0.09664 0,-0.31407 -0.12739,-0.5996 -0.33384,-0.80605zm0.25258 1.33097l-0.38875 -0.20865c-0.12959,-0.07028 -0.13398,-0.02416 -0.27015,0.1208 -0.03294,0.03514 -0.09444,0.12738 -0.16692,0.10982 -0.15154,-0.03734 -0.43487,-0.25917 -0.52711,-0.36021 -0.04393,-0.04831 -0.23282,-0.27892 -0.23501,-0.3536 -0.0044,-0.11421 0.24598,-0.17131 0.16472,-0.38875l-0.17351 -0.38875c-0.16253,-0.37337 -0.61716,0.22403 -0.57983,0.50296 0.09664,0.68745 1.30242,1.79879 1.9745,1.43201 0.14935,-0.08347 0.35141,-0.37558 0.20206,-0.46563z"/>
 </g>
</svg>
