<?xml version="1.0" encoding="UTF-8" standalone="no"?>
<!-- Created with Inkscape (http://www.inkscape.org/) -->

<svg
   xmlns:dc="http://purl.org/dc/elements/1.1/"
   xmlns:cc="http://creativecommons.org/ns#"
   xmlns:rdf="http://www.w3.org/1999/02/22-rdf-syntax-ns#"
   xmlns:svg="http://www.w3.org/2000/svg"
   xmlns="http://www.w3.org/2000/svg"
   xmlns:sodipodi="http://sodipodi.sourceforge.net/DTD/sodipodi-0.dtd"
   xmlns:inkscape="http://www.inkscape.org/namespaces/inkscape"
   width="25mm"
   height="25mm"
   viewBox="0 0 25 25"
   version="1.1"
   id="svg3833"
   inkscape:version="0.92.2 (5c3e80d, 2017-08-06)"
   sodipodi:docname="twitter-branco.svg">
  <defs
     id="defs3827" />
  <sodipodi:namedview
     id="base"
     pagecolor="#ffffff"
     bordercolor="#666666"
     borderopacity="1.0"
     inkscape:pageopacity="0.0"
     inkscape:pageshadow="2"
     inkscape:zoom="2.8195883"
     inkscape:cx="81.670833"
     inkscape:cy="-8.4852814"
     inkscape:document-units="mm"
     inkscape:current-layer="layer1"
     showgrid="false"
     inkscape:window-width="1440"
     inkscape:window-height="837"
     inkscape:window-x="-8"
     inkscape:window-y="-8"
     inkscape:window-maximized="1"
     showguides="false" />
  <metadata
     id="metadata3830">
    <rdf:RDF>
      <cc:Work
         rdf:about="">
        <dc:format>image/svg+xml</dc:format>
        <dc:type
           rdf:resource="http://purl.org/dc/dcmitype/StillImage" />
        <dc:title></dc:title>
      </cc:Work>
    </rdf:RDF>
  </metadata>
  <g
     inkscape:label="Camada 1"
     inkscape:groupmode="layer"
     id="layer1"
     transform="translate(0,-272)">
    <g
       id="g3902"
       transform="matrix(0.06004176,0,0,0.06431122,0.41997085,271.64007)">
      <path
         id="path3847"
         d="m 403.632,74.18 c -9.113,4.041 -18.573,7.229 -28.28,9.537 C 386.048,73.553 394.09,60.84 398.627,46.65 v 0 c 1.295,-4.051 -3.105,-7.554 -6.763,-5.385 v 0 c -13.504,8.01 -28.05,14.019 -43.235,17.862 -0.881,0.223 -1.79,0.336 -2.702,0.336 -2.766,0 -5.455,-1.027 -7.57,-2.891 -16.156,-14.239 -36.935,-22.081 -58.508,-22.081 -9.335,0 -18.76,1.455 -28.014,4.325 -28.672,8.893 -50.795,32.544 -57.736,61.724 -2.604,10.945 -3.309,21.9 -2.097,32.56 0.139,1.225 -0.44,2.08 -0.797,2.481 -0.627,0.703 -1.516,1.106 -2.439,1.106 -0.103,0 -0.209,-0.005 -0.314,-0.015 C 125.69,130.841 69.094,100.604 29.089,51.532 v 0 c -2.04,-2.503 -5.952,-2.196 -7.578,0.593 v 0 C 13.677,65.565 9.537,80.937 9.537,96.579 c 0,23.972 9.631,46.563 26.36,63.032 -7.035,-1.668 -13.844,-4.295 -20.169,-7.808 v 0 c -3.06,-1.7 -6.825,0.485 -6.868,3.985 v 0 c -0.438,35.612 20.412,67.3 51.646,81.569 -0.629,0.015 -1.258,0.022 -1.888,0.022 -4.951,0 -9.964,-0.478 -14.898,-1.421 v 0 c -3.446,-0.658 -6.341,2.611 -5.271,5.952 v 0 c 10.138,31.651 37.39,54.981 70.002,60.278 -27.066,18.169 -58.585,27.753 -91.39,27.753 L 6.834,329.935 c -3.151,0 -5.816,2.054 -6.619,5.106 -0.791,3.006 0.666,6.177 3.353,7.74 36.966,21.513 79.131,32.883 121.955,32.883 37.485,0 72.549,-7.439 104.219,-22.109 29.033,-13.449 54.689,-32.674 76.255,-57.141 20.09,-22.792 35.8,-49.103 46.692,-78.201 10.383,-27.737 15.871,-57.333 15.871,-85.589 v -1.346 c -10e-4,-4.537 2.051,-8.806 5.631,-11.712 13.585,-11.03 25.415,-24.014 35.16,-38.591 v 0 c 2.573,-3.849 -1.485,-8.673 -5.719,-6.795 z"
         style="fill:white"
         inkscape:connector-curvature="0" />
    
    </g>
  </g>
</svg>
