<?xml version="1.0" encoding="UTF-8"?>
<!DOCTYPE svg PUBLIC "-//W3C//DTD SVG 1.1//EN" "http://www.w3.org/Graphics/SVG/1.1/DTD/svg11.dtd">
<!-- Creator: CorelDRAW -->
<svg xmlns="http://www.w3.org/2000/svg" xml:space="preserve" width="100%" height="100%" style="shape-rendering:geometricPrecision; text-rendering:geometricPrecision; image-rendering:optimizeQuality; fill-rule:evenodd; clip-rule:evenodd"
viewBox="0 0 2.50002 2.50002"
 xmlns:xlink="http://www.w3.org/1999/xlink">
 <defs>
  <style type="text/css">
   <![CDATA[
    .fil0 {fill:none}
    .whatsapp {fill: green}
   ]]>
  </style>
 </defs>
 <g id="Capa_x0020_1">
  <metadata id="CorelCorpID_0Corel-Layer"/>
  <rect class="fil0" width="2.50002" height="2.50002"/>
  <path id="WhatsApp" class="whatsapp" d="M2.44063 1.21934c0,0.64064 -0.52332,1.15996 -1.16898,1.15996 -0.20497,0 -0.39754,-0.05239 -0.56507,-0.14433l-0.64719 0.20566 0.21101 -0.62235c-0.10644,-0.17478 -0.16775,-0.37978 -0.16775,-0.59894 -1e-005,-0.64063 0.52337,-1.15995 1.169,-1.15995 0.64572,0 1.16898,0.51932 1.16898,1.15995zm-1.16898 -0.97522c-0.54197,0 -0.98282,0.43749 -0.98282,0.97523 0,0.21339 0.06956,0.411 0.18722,0.57176l-0.12279 0.36219 0.37769 -0.12004c0.15518,0.10189 0.34107,0.16132 0.54073,0.16132 0.54189,0 0.98282,-0.43744 0.98282,-0.97517 0,-0.53773 -0.4409,-0.97529 -0.98285,-0.97529zm0.59031 1.24237c-0.00722,-0.01183 -0.0263,-0.01897 -0.05493,-0.03318 -0.02868,-0.01421 -0.1696,-0.08303 -0.19579,-0.09247 -0.02627,-0.00947 -0.04543,-0.01423 -0.06451,0.01421 -0.01908,0.02847 -0.074,0.09247 -0.09075,0.11144 -0.01672,0.01902 -0.03342,0.0214 -0.0621,0.00717 -0.02863,-0.01421 -0.12094,-0.04426 -0.2304,-0.1411 -0.08517,-0.07535 -0.14269,-0.16838 -0.15941,-0.19688 -0.0167,-0.02844 -0.00175,-0.04382 0.01257,-0.05797 0.01291,-0.01275 0.02868,-0.03321 0.04299,-0.04979 0.01437,-0.01662 0.01913,-0.02844 0.02863,-0.04744 0.0096,-0.01897 0.00482,-0.03556 -0.00238,-0.04982 -0.00714,-0.01421 -0.06451,-0.15412 -0.08837,-0.21106 -0.02387,-0.05689 -0.0477,-0.04741 -0.06445,-0.04741 -0.0167,0 -0.03582,-0.00238 -0.05493,-0.00238 -0.0191,0 -0.05017,0.00712 -0.07644,0.03556 -0.02625,0.02847 -0.10025,0.09726 -0.10025,0.23715 0,0.13991 0.10263,0.27509 0.117,0.29403 0.01431,0.01894 0.19817,0.31538 0.48948,0.42923 0.29134,0.1138 0.29134,0.07583 0.34389,0.07107 0.05249,-0.00474 0.16949,-0.06877 0.19346,-0.13512 0.02381,-0.06647 0.02381,-0.12338 0.01669,-0.13524z"/>
 </g>
</svg>
