<?xml version="1.0" encoding="UTF-8"?>
<!DOCTYPE svg PUBLIC "-//W3C//DTD SVG 1.1//EN" "http://www.w3.org/Graphics/SVG/1.1/DTD/svg11.dtd">
<!-- Creator: CorelDRAW -->
<svg xmlns="http://www.w3.org/2000/svg" xml:space="preserve" width="2480px" height="2480px" style="shape-rendering:geometricPrecision; text-rendering:geometricPrecision; image-rendering:optimizeQuality; fill-rule:evenodd; clip-rule:evenodd"
viewBox="0 0 2480 2480"
 xmlns:xlink="http://www.w3.org/1999/xlink"
 version="1.1">
 <defs>
  <style type="text/css">
   <![CDATA[
    .fil0 {fill:#F61C0D}
   ]]>
  </style>
 </defs>
 <g id="Capa_x0020_1">
  <metadata id="CorelCorpID_0Corel-Layer"/>
  <path class="fil0" d="M1964.94 362.548l-1449.87 0c-284.462,0 -515.064,230.601 -515.064,515.064l0 724.782c0,284.462 230.602,515.064 515.064,515.064l1449.87 0c284.462,0 515.064,-230.602 515.064,-515.064l0 -724.782c0,-284.463 -230.602,-515.064 -515.064,-515.064zm-348.335 912.718l-678.152 323.438c-18.0698,8.61859 -38.9431,-4.55611 -38.9431,-24.5744l0.00118095 -667.092c0,-20.3029 21.4213,-33.4611 39.5288,-24.2839l678.152 343.654c20.1624,10.2176 19.8128,39.132 -0.586933,48.8584z"/>
  <g id="_137950144">
  </g>
  <g id="_137949856">
  </g>
  <g id="_137950456">
  </g>
  <g id="_137950480">
  </g>
  <g id="_137949736">
  </g>
  <g id="_137950648">
  </g>
  <g id="_137950720">
  </g>
  <g id="_137950696">
  </g>
  <g id="_137950912">
  </g>
  <g id="_137950528">
  </g>
  <g id="_137951224">
  </g>
  <g id="_137951248">
  </g>
  <g id="_137951152">
  </g>
  <g id="_137950504">
  </g>
  <g id="_137950576">
  </g>
 </g>
</svg>
