<?xml version="1.0" encoding="UTF-8"?>
<!DOCTYPE svg PUBLIC "-//W3C//DTD SVG 1.1//EN" "http://www.w3.org/Graphics/SVG/1.1/DTD/svg11.dtd">
<!-- Creator: CorelDRAW -->
<svg xmlns="http://www.w3.org/2000/svg" xml:space="preserve" width="398px" height="398px" style="shape-rendering:geometricPrecision; text-rendering:geometricPrecision; image-rendering:optimizeQuality; fill-rule:evenodd; clip-rule:evenodd"
viewBox="0 0 119.875 119.875"
 xmlns:xlink="http://www.w3.org/1999/xlink">
 <defs>
  <style type="text/css">
   <![CDATA[
    .fil0 {fill:none}
    .fil1 {fill:white}
   ]]>
  </style>
 </defs>
 <g id="Capa_x0020_1">
  <metadata id="CorelCorpID_0Corel-Layer"/>
  <polygon class="fil0" points="0,0 119.875,0 119.875,119.875 0,119.875 "/>
  <path class="fil1" d="M99.1575 21.6723l-68.5451 0c-6.11862,0 -11.0926,4.97365 -11.0926,11.0926l0 46.8479c0,6.11862 4.974,11.0926 11.0926,11.0926l68.5263 0c6.11862,0 11.0926,-4.974 11.0926,-11.0926l0 -46.8291c0.0188517,-6.11898 -4.95515,-11.1115 -11.0738,-11.1115l0 0zm6.02508 57.9405c0,3.32217 -2.70291,6.02508 -6.02508,6.02508l-68.5451 0c-3.32217,0 -6.02508,-2.70291 -6.02508,-6.02508l0 -46.8291c0,-3.32217 2.70291,-6.02508 6.02508,-6.02508l68.5263 0c3.32217,0 6.02508,2.70291 6.02508,6.02508l0 46.8291 0.018496 0 0.000355693 0zm-28.4543 -24.0057l22.1853 -19.8953c1.03222,-0.938673 1.12612,-2.53395 0.187806,-3.58502 -0.938673,-1.03222 -2.53395,-1.12612 -3.58502,-0.187806l-30.5938 27.4595 -5.96852 -5.33076c-0.0188517,-0.018496 -0.0373477,-0.0373477 -0.0373477,-0.0561994 -0.131606,-0.131251 -0.262857,-0.244005 -0.412959,-0.35676l-24.2874 -21.7346c-1.05107,-0.938317 -2.64635,-0.844414 -3.58502,0.206657 -0.938317,1.05107 -0.844414,2.64635 0.206657,3.58502l22.4478 20.0643 -22.3539 20.9275c-1.01372,0.957169 -1.06992,2.55245 -0.112755,3.58467 0.506862,0.525714 1.18268,0.807066 1.85814,0.807066 0.619616,0 1.23888,-0.225153 1.72689,-0.67546l22.6918 -21.2281 6.15633 5.49936c0.48801,0.431811 1.08877,0.638112 1.68918,0.638112 0.600409,0 1.22003,-0.225153 1.68918,-0.656964l6.32528 -5.66796 22.5605 21.434c0.48801,0.469514 1.12612,0.694667 1.74538,0.694667 0.675816,0 1.33278,-0.262857 1.83964,-0.788215 0.957169,-1.01372 0.919465,-2.62786 -0.0939028,-3.58502l-22.2792 -21.1527 0 0z"/>
 </g>
</svg>
