<?xml version="1.0" encoding="UTF-8"?>
<!DOCTYPE svg PUBLIC "-//W3C//DTD SVG 1.1//EN" "http://www.w3.org/Graphics/SVG/1.1/DTD/svg11.dtd">
<!-- Creator: CorelDRAW -->
<svg xmlns="http://www.w3.org/2000/svg" xml:space="preserve" width="398px" height="398px" style="shape-rendering:geometricPrecision; text-rendering:geometricPrecision; image-rendering:optimizeQuality; fill-rule:evenodd; clip-rule:evenodd"
viewBox="0 0 117.605 117.605"
 xmlns:xlink="http://www.w3.org/1999/xlink">
 <defs>
  <style type="text/css">
   <![CDATA[
    .fil0 {fill:white}
   ]]>
  </style>
 </defs>
 <g id="Capa_x0020_1">
  <metadata id="CorelCorpID_0Corel-Layer"/>
  <path class="fil0" d="M0 0l117.605 0 0 117.605 -117.605 0 0 -117.605zm71.5064 59.0766l21.7651 -19.5185c1.01267,-0.920896 1.1048,-2.48596 0.184249,-3.51713 -0.920896,-1.01267 -2.48596,-1.1048 -3.51713,-0.184249l-30.0144 26.9394 -5.85549 -5.22981c-0.0184947,-0.0181457 -0.0366404,-0.0366404 -0.0366404,-0.0551351 -0.129114,-0.128765 -0.257879,-0.239384 -0.405138,-0.350003l-23.8274 -21.323c-1.03117,-0.920547 -2.59623,-0.828422 -3.51713,0.202744 -0.920547,1.03117 -0.828422,2.59623 0.202744,3.51713l22.0226 19.6843 -21.9305 20.5312c-0.994525,0.939041 -1.04966,2.50411 -0.110619,3.51678 0.497263,0.515757 1.16028,0.791782 1.82295,0.791782 0.607882,0 1.21541,-0.220889 1.69418,-0.662668l22.262 -20.8261 6.03974 5.39521c0.478768,0.423633 1.06816,0.626028 1.65719,0.626028 0.589038,0 1.19692,-0.220889 1.65719,-0.644522l6.20549 -5.56062 22.1333 21.0281c0.478768,0.460622 1.1048,0.681512 1.71233,0.681512 0.663017,0 1.30754,-0.257879 1.8048,-0.773287 0.939041,-0.994525 0.902052,-2.57809 -0.0921245,-3.51713l-21.8572 -20.7521 0 0zm27.9155 23.5511c0,3.25925 -2.65172,5.91097 -5.91097,5.91097l-67.247 0c-3.25925,0 -5.91097,-2.65172 -5.91097,-5.91097l0 -45.9422c0,-3.25925 2.65172,-5.91097 5.91097,-5.91097l67.2285 0c3.25925,0 5.91097,2.65172 5.91097,5.91097l0 45.9422 0.0181457 0 0.000348956 0zm-5.91097 -56.8432l-67.247 0c-6.00275,0 -10.8826,4.87946 -10.8826,10.8826l0 45.9607c0,6.00275 4.8798,10.8826 10.8826,10.8826l67.2285 0c6.00275,0 10.8826,-4.8798 10.8826,-10.8826l0 -45.9422c0.0184947,-6.0031 -4.86131,-10.901 -10.8641,-10.901l0 0z"/>
 </g>
</svg>
