<?xml version="1.0" encoding="UTF-8"?>
<!DOCTYPE svg PUBLIC "-//W3C//DTD SVG 1.1//EN" "http://www.w3.org/Graphics/SVG/1.1/DTD/svg11.dtd">
<!-- Creator: CorelDRAW -->
<svg xmlns="http://www.w3.org/2000/svg" xml:space="preserve" width="398px" height="398px" style="shape-rendering:geometricPrecision; text-rendering:geometricPrecision; image-rendering:optimizeQuality; fill-rule:evenodd; clip-rule:evenodd"
viewBox="0 0 48.2712 48.2712"
 xmlns:xlink="http://www.w3.org/1999/xlink">



  <metadata id="CorelCorpID_0Corel-Layer"/>
  <path class="fil0" d="M0 0l48.2712 0 0 48.2712 -48.2712 0 0 -48.2712zm20.4082 30.7231l-4.47122 0c-0.581086,0 -1.0526,-0.469796 -1.05489,-1.05088l-0.0214846 -5.5476c-0.00229169,-0.584237 0.470798,-1.05905 1.05504,-1.05905l4.46306 0 0 -5.36025c0,-6.22064 3.79919,-9.60789 9.34836,-9.60789l4.55358 0c0.582661,0 1.05504,0.472374 1.05504,1.05504l0 4.67776c0,0.582375 -0.472087,1.05461 -1.05446,1.05504l-2.79442 0.00128907c-3.01786,0 -3.60224,1.43402 -3.60224,3.53851l0 4.64066 6.63128 0c0.631789,0 1.12207,0.551723 1.04759,1.17922l-0.657427 5.5476c-0.0630214,0.530812 -0.513194,0.930854 -1.04759,0.930854l-5.9442 0 -0.0295055 17.2103 -7.50613 -0.000286461 0.0296487 -17.2103z"/>

</svg>
