<?xml version="1.0" encoding="UTF-8"?>
<!DOCTYPE svg PUBLIC "-//W3C//DTD SVG 1.1//EN" "http://www.w3.org/Graphics/SVG/1.1/DTD/svg11.dtd">
<!-- Creator: CorelDRAW -->
<svg xmlns="http://www.w3.org/2000/svg" xml:space="preserve" width="398px" height="398px" style="shape-rendering:geometricPrecision; text-rendering:geometricPrecision; image-rendering:optimizeQuality; fill-rule:evenodd; clip-rule:evenodd"
viewBox="0 0 73.2928 73.2928"
 xmlns:xlink="http://www.w3.org/1999/xlink">
 <defs>
  <style type="text/css">
   <![CDATA[
    .fil0 {fill:white}
   ]]>
  </style>
 </defs>
 <g id="Capa_x0020_1">
  <metadata id="CorelCorpID_0Corel-Layer"/>
  <path class="fil0" d="M0 0l73.2928 0 0 73.2928 -73.2928 0 0 -73.2928zm63.9832 48.8052l0 19.9657 -11.5757 0 0 -18.6282c0,-4.6794 -1.67368,-7.87323 -5.86376,-7.87323 -3.19774,0 -5.10173,2.15278 -5.93836,4.23445 -0.305334,0.743763 -0.38319,1.77938 -0.38319,2.82238l0 19.4446 -11.5792 0c0,0 0.155712,-31.5499 0,-34.8183l11.5773 0 0 4.93493c-0.0237047,0.0374056 -0.0539337,0.0772034 -0.0754636,0.112652l0.0754636 0 0 -0.112652c1.53841,-2.36895 4.28533,-5.75329 10.4349,-5.75329 7.61748,0 13.3281,4.97669 13.3281,15.671l0 0zm-53.3152 19.9657l11.5746 0 0 -34.8183 -11.5746 0 0 34.8183zm5.86507 -51.6036c-3.96086,0 -6.55272,2.59773 -6.55272,6.01382 0,3.34215 2.51574,6.01969 6.3981,6.01969l0.0767685 0c4.03698,0 6.54837,-2.67755 6.54837,-6.01969 -0.0758986,-3.41609 -2.5114,-6.01382 -6.4716,-6.01382l0.00108737 0 0 0z"/>
 </g>
</svg>
