<?xml version="1.0" encoding="UTF-8"?>
<!DOCTYPE svg PUBLIC "-//W3C//DTD SVG 1.1//EN" "http://www.w3.org/Graphics/SVG/1.1/DTD/svg11.dtd">
<!-- Creator: CorelDRAW -->
<svg xmlns="http://www.w3.org/2000/svg" xml:space="preserve" width="398px" height="398px" style="shape-rendering:geometricPrecision; text-rendering:geometricPrecision; image-rendering:optimizeQuality; fill-rule:evenodd; clip-rule:evenodd"
viewBox="0 0 73.9849 73.9849"
 xmlns:xlink="http://www.w3.org/1999/xlink">
 <defs>
  <style type="text/css">
   <![CDATA[
    .fil0 {fill:none}
    .fil1 {fill:white}
   ]]>
  </style>
 </defs>
 <g id="Capa_x0020_1">
  <metadata id="CorelCorpID_0Corel-Layer"/>
  <polygon class="fil0" points="0,0 73.9849,0 73.9849,73.9849 0,73.9849 "/>
  <path class="fil1" d="M16.6892 8.5482c-3.99826,0 -6.6146,2.62226 -6.6146,6.07061 0,3.37371 2.5395,6.07654 6.45852,6.07654l0.0774934 0c4.0751,0 6.61021,-2.70283 6.61021,-6.07654 -0.0766153,-3.44835 -2.53511,-6.07061 -6.53272,-6.07061l0.00109764 0 0 0z"/>
  <polygon class="fil1" points="10.7687,60.6391 22.4527,60.6391 22.4527,25.492 10.7687,25.492 "/>
  <path class="fil1" d="M64.5874 40.4849l0 20.1542 -11.685 0 0 -18.8041c0,-4.72359 -1.68949,-7.94757 -5.91914,-7.94757 -3.22794,0 -5.14991,2.17311 -5.99443,4.27443 -0.308217,0.750786 -0.386808,1.79618 -0.386808,2.84904l0 19.6282 -11.6886 0c0,0 0.157182,-31.8478 0,-35.1471l11.6866 0 0 4.98153c-0.0239286,0.0377588 -0.054443,0.0779325 -0.0761762,0.113716l0.0761762 0 0 -0.113716c1.55294,-2.39132 4.3258,-5.80762 10.5334,-5.80762 7.68941,0 13.454,5.02368 13.454,15.819l0 0z"/>
 </g>
</svg>
