<svg xmlns="http://www.w3.org/2000/svg" viewBox="0 0 455.7 455.7"><rect width="455.7" height="455.7" fill="#0084B1"/><path d="M107.3 69.2c20.9 0 38.1 17.3 38 38.2 0 22-18.3 38.5-38.3 38 -20.3 0.4-38.2-16.6-38.2-38.2C68.8 86.3 86.1 69.2 107.3 69.2z" fill="skyblue"/><path d="M129.4 386.5H84.7c-5.8 0-10.5-4.7-10.5-10.5V185.2c0-5.8 4.7-10.5 10.5-10.5h44.7c5.8 0 10.5 4.7 10.5 10.5v190.8C139.9 381.8 135.2 386.5 129.4 386.5z" fill="skyblue"/><path d="M386.9 241.7c0-40-32.4-72.4-72.4-72.4h-11.5c-21.9 0-41.2 10.9-52.8 27.6 -1.3 1.8-2.4 3.7-3.5 5.7 -0.4-0.1-0.6-0.1-0.6-0.1v-23.4c0-2.4-2-4.4-4.4-4.4h-55.8c-2.4 0-4.4 2-4.4 4.4V382.1c0 2.4 2 4.4 4.4 4.4l57 0c2.4 0 4.4-2 4.4-4.4V264.8c0-20.3 16.2-37.1 36.5-37.3 10.4-0.1 19.7 4 26.5 10.8 6.7 6.7 10.8 15.9 10.8 26.1v117.8c0 2.4 2 4.4 4.4 4.4l57.2 0c2.4 0 4.4-2 4.4-4.4V241.7z" fill="skyblue"/></svg>