<?xml version="1.0" encoding="UTF-8"?>
<!DOCTYPE svg PUBLIC "-//W3C//DTD SVG 1.1//EN" "http://www.w3.org/Graphics/SVG/1.1/DTD/svg11.dtd">
<!-- Creator: CorelDRAW -->
<svg xmlns="http://www.w3.org/2000/svg" xml:space="preserve" width="398px" height="398px" style="shape-rendering:geometricPrecision; text-rendering:geometricPrecision; image-rendering:optimizeQuality; fill-rule:evenodd; clip-rule:evenodd"
viewBox="0 0 47.3671 47.3671"
 xmlns:xlink="http://www.w3.org/1999/xlink">
 <defs>
  <style type="text/css">
   <![CDATA[
    .fil0 {fill:white}
   ]]>
  </style>
 </defs>
 <g id="Capa_x0020_1">
  <metadata id="CorelCorpID_0Corel-Layer"/>
  <path class="fil0" d="M0 0l47.3671 0 0 47.3671 -47.3671 0 0 -47.3671zm34.4672 22.62c-0.0819393,0.122698 -0.0819393,0.245537 -0.122979,0.409134 -0.0407588,0.531832 0.368375,1.02277 0.900348,1.06381 0.531832,0.0407588 1.02291,-0.368235 1.06381,-0.900067 0,-0.122839 0,-0.245537 0.0408994,-0.450174 0,-0.204497 0,-0.327476 0,-0.450034 0,-1.18664 -0.204778,-2.33225 -0.572872,-3.43695 -0.490933,-1.43176 -1.3501,-2.7002 -2.37301,-3.76387 -1.2683,-1.26844 -2.82318,-2.16865 -4.58256,-2.65944 -0.818128,-0.204778 -1.71819,-0.327335 -2.57736,-0.327335 -0.286577,0 -0.572872,0 -0.900348,0.0407588 -0.286296,0.0410399 -0.572872,0.0817987 -0.859168,0.122839 -0.531832,0.0817987 -0.900067,0.613772 -0.777369,1.1047 0.0819393,0.531973 0.613912,0.900067 1.1047,0.777369 0.245537,-0.0410399 0.450034,-0.0817987 0.69557,-0.0817987 0.0410399,0 0.0819393,0 0.122839,0 0.204497,0 0.408994,-0.0410399 0.613772,-0.0410399 2.25017,0 4.33674,0.900348 5.80968,2.41419 1.47294,1.47294 2.37315,3.47771 2.41419,5.72802l0 0.0817987c0,0.163457 0,0.286296 0,0.368094l-0.000140548 0zm3.61151 -13.0493c-3.88685,-3.88699 -9.20559,-6.25999 -15.0973,-6.25999 -0.613772,0 -1.2274,0.0410399 -1.84117,0.0819393 -0.613631,0.0407588 -1.2274,0.122558 -1.84103,0.245396 -0.532113,0.0817987 -0.900208,0.613772 -0.77751,1.1047 0.0817987,0.531973 0.613631,0.900067 1.1047,0.777369 0.286436,-0.0410399 0.531832,-0.0817987 0.818409,-0.122839 0.286296,-0.0407588 0.572872,-0.0817987 0.859168,-0.0817987 0.572591,-0.0408994 1.1047,-0.0817987 1.67744,-0.0817987 5.31888,0 10.1467,2.16837 13.6654,5.64622 3.47771,3.47771 5.64636,8.30552 5.64636,13.6653 0,0.286577 0,0.613912 0,0.900208 0,0.245537 -0.0410399,0.491073 -0.0410399,0.777369 -0.0410399,0.531832 0.368094,1.02291 0.899927,1.06381 0.531973,0.0408994 1.02291,-0.368235 1.06395,-0.900067 0.0408994,-0.613772 0.0817987,-1.2274 0.0817987,-1.80027 0,-5.85072 -2.37315,-11.1697 -6.21909,-15.0155zm4.70525 24.794l-7.24186 -3.88685c-2.41405,-1.3092 -2.49585,-0.450034 -5.03245,2.25031 -0.613631,0.654671 -1.75938,2.37301 -3.10962,2.04581 -2.8229,-0.69557 -8.10088,-4.82795 -9.81922,-6.71017 -0.818409,-0.899927 -4.33716,-5.19591 -4.37792,-6.58705 -0.0819393,-2.12761 4.58227,-3.19127 3.06844,-7.24186l-3.23217 -7.24186c-3.02768,-6.95542 -11.4968,4.17328 -10.8014,9.36933 1.80013,12.8063 24.2622,33.5089 36.7822,26.6764 2.78214,-1.55488 6.54629,-6.99646 3.76401,-8.67404l0 0z"/>
 </g>
</svg>
