<?xml version="1.0" encoding="UTF-8"?>
<!DOCTYPE svg PUBLIC "-//W3C//DTD SVG 1.1//EN" "http://www.w3.org/Graphics/SVG/1.1/DTD/svg11.dtd">
<!-- Creator: CorelDRAW -->
<svg xmlns="http://www.w3.org/2000/svg" xml:space="preserve" width="398px" height="398px" style="shape-rendering:geometricPrecision; text-rendering:geometricPrecision; image-rendering:optimizeQuality; fill-rule:evenodd; clip-rule:evenodd"
viewBox="0 0 48.5705 48.5705"
 xmlns:xlink="http://www.w3.org/1999/xlink">
 <defs>
  <style type="text/css">
   <![CDATA[
    .fil0 {fill:none}
    .fil1 {fill:white}
   ]]>
  </style>
 </defs>
 <g id="Capa_x0020_1">
  <metadata id="CorelCorpID_0Corel-Layer"/>
  <polygon class="fil0" points="0,0 48.5705,0 48.5705,48.5705 0,48.5705 "/>
  <path class="fil1" d="M20.5347 30.9135l-4.49894 0c-0.584688,0 -1.05913,-0.472708 -1.06143,-1.0574l-0.0216177 -5.58199c-0.00230589,-0.587859 0.473717,-1.06561 1.06158,-1.06561l4.49073 0 0 -5.39348c0,-6.2592 3.82274,-9.66746 9.40631,-9.66746l4.58181 0c0.586273,0 1.06158,0.475302 1.06158,1.06158l0 4.70676c0,0.585985 -0.475014,1.06114 -1.061,1.06158l-2.81175 0.00129706c-3.03657,0 -3.62458,1.44291 -3.62458,3.56044l0 4.66943 6.67239 0c0.635706,0 1.12902,0.555144 1.05408,1.18653l-0.661503 5.58199c-0.0634121,0.534102 -0.516376,0.936625 -1.05408,0.936625l-5.98105 0 -0.0296884 17.317 -7.55266 -0.000288237 0.0298325 -17.317z"/>
 </g>
</svg>
