<?xml version="1.0" encoding="UTF-8"?>
<!DOCTYPE svg PUBLIC "-//W3C//DTD SVG 1.1//EN" "http://www.w3.org/Graphics/SVG/1.1/DTD/svg11.dtd">
<!-- Creator: CorelDRAW -->
<svg xmlns="http://www.w3.org/2000/svg" xml:space="preserve" width="399px" height="399px" style="shape-rendering:geometricPrecision; text-rendering:geometricPrecision; image-rendering:optimizeQuality; fill-rule:evenodd; clip-rule:evenodd"
viewBox="0 0 164.608 164.608"
 xmlns:xlink="http://www.w3.org/1999/xlink">
 <defs>
  <style type="text/css">
   <![CDATA[
    .str0 {stroke:#1F1A17;stroke-width:0.371341}
    .fil0 {fill:none}
    .fil1 {fill:white}
   ]]>
  </style>
 </defs>
 <g id="Capa_x0020_1">
  <metadata id="CorelCorpID_0Corel-Layer"/>
  <polygon class="fil0 str0" points="0.185183,0.185183 164.422,0.185183 164.422,164.422 0.185183,164.422 "/>
  <path class="fil1" d="M104.96 30.6678l-42.9942 0c-17.4745,0 -31.6897,14.2162 -31.6897,31.6897l0 42.9942c0,17.4745 14.2162,31.6893 31.6897,31.6893l42.9942 0c17.4745,0 31.6893,-14.2162 31.6893,-31.6893l0 -42.9942c0,-17.4745 -14.2162,-31.6897 -31.6893,-31.6897zm20.9886 74.6859c0,11.5915 -9.39659,20.9886 -20.9886,20.9886l-42.9942 0c-11.592,0 -20.9886,-9.39708 -20.9886,-20.9886l0 -42.9947c0,-11.5915 9.39659,-20.9881 20.9886,-20.9881l42.9942 0c11.592,0 20.9886,9.39659 20.9886,20.9881l0 42.9947 0 0zm-42.4869 -49.0107c-15.1694,0 -27.5124,12.341 -27.5124,27.5109 0,15.1699 12.341,27.5124 27.5124,27.5124 15.1704,0 27.5129,-12.341 27.5129,-27.5124 0,-15.1699 -12.341,-27.5109 -27.5129,-27.5109l0 0zm0 44.3227c-9.28354,0 -16.8103,-7.52624 -16.8103,-16.8098 0,-9.28451 7.52673,-16.8108 16.8103,-16.8108 9.28451,0 16.8108,7.52624 16.8108,16.8108 0,9.28354 -7.52624,16.8098 -16.8108,16.8098zm34.1595 -44.1156c0,-3.6408 -2.9527,-6.5935 -6.5935,-6.5935 -3.63934,0 -6.59155,2.95319 -6.59155,6.5935 0,3.63934 2.95221,6.59204 6.59155,6.59204 3.6408,0 6.5935,-2.9527 6.5935,-6.59204z"/>
 </g>
</svg>
