<?xml version="1.0" encoding="UTF-8"?>
<!DOCTYPE svg PUBLIC "-//W3C//DTD SVG 1.1//EN" "http://www.w3.org/Graphics/SVG/1.1/DTD/svg11.dtd">
<!-- Creator: CorelDRAW -->
<svg xmlns="http://www.w3.org/2000/svg" xml:space="preserve" width="398px" height="398px" style="shape-rendering:geometricPrecision; text-rendering:geometricPrecision; image-rendering:optimizeQuality; fill-rule:evenodd; clip-rule:evenodd"
viewBox="0 0 160.616 160.616"
 xmlns:xlink="http://www.w3.org/1999/xlink">
 <defs>
  <style type="text/css">
   <![CDATA[
    .fil0 {fill:white}
   ]]>
  </style>
 </defs>
 <g id="Capa_x0020_1">
  <metadata id="CorelCorpID_0Corel-Layer"/>
  <path class="fil0" d="M0 0l160.616 0 0 160.616 -160.616 0 0 -160.616zm116.886 75.517c0,-3.5591 -2.88665,-6.44432 -6.44718,-6.44432 -3.56053,0 -6.44766,2.88522 -6.44766,6.44432 0,3.56196 2.88712,6.45242 6.44766,6.45242 3.56053,0 6.44718,-2.89046 6.44718,-6.45242zm-33.4069 43.1463c-9.07886,0 -16.4396,-7.36079 -16.4396,-16.4396 0,-9.08029 7.36079,-16.4377 16.4396,-16.4377 9.08172,0 16.4401,7.35745 16.4401,16.4377 0,9.07886 -7.3584,16.4396 -16.4401,16.4396zm0 -43.3464c-14.835,0 -26.9049,12.0689 -26.9049,26.9039 0,14.835 12.0699,26.9068 26.9049,26.9068 14.835,0 26.9068,-12.0689 26.9068,-26.9068 0,-14.835 -12.0689,-26.9039 -26.9068,-26.9039l0 0zm41.5507 47.9321c0,11.3345 -9.188,20.5254 -20.5263,20.5254l-42.0458 0c-11.3374,0 -20.5263,-9.19085 -20.5263,-20.5254l0 -42.0497c0,-11.3336 9.18895,-20.5263 20.5263,-20.5263l42.0458 0c11.3383,0 20.5263,9.19276 20.5263,20.5263l0 42.0497 0 0zm-20.5263 -73.0407l-42.0458 0c-17.0892,0 -30.9911,13.9023 -30.9911,30.9911l0 42.0458c0,17.0892 13.9023,30.9911 30.9911,30.9911l42.0458 0c17.0892,0 30.9911,-13.9023 30.9911,-30.9911l0 -42.0458c0,-17.0892 -13.9023,-30.9911 -30.9911,-30.9911z"/>
 </g>
</svg>
