<?xml version="1.0" encoding="UTF-8"?>
<!DOCTYPE svg PUBLIC "-//W3C//DTD SVG 1.1//EN" "http://www.w3.org/Graphics/SVG/1.1/DTD/svg11.dtd">
<!-- Creator: CorelDRAW -->
<svg xmlns="http://www.w3.org/2000/svg" xml:space="preserve" width="398px" height="398px" style="shape-rendering:geometricPrecision; text-rendering:geometricPrecision; image-rendering:optimizeQuality; fill-rule:evenodd; clip-rule:evenodd"
viewBox="0 0 72.0813 72.0813"
 xmlns:xlink="http://www.w3.org/1999/xlink">
 <defs>
  <style type="text/css">
   <![CDATA[
    .fil0 {fill:none}
    .fil1 {fill:white}
   ]]>
  </style>
 </defs>
 <g id="Capa_x0020_1">
  <metadata id="CorelCorpID_0Corel-Layer"/>
  <polygon class="fil0" points="0,0 72.0813,0 72.0813,72.0813 0,72.0813 "/>
  <path id="WhatsApp" class="fil1" d="M69.6497 34.4248c0,17.6008 -14.3774,31.8685 -32.1159,31.8685 -5.63124,0 -10.922,-1.43941 -15.5247,-3.96533l-17.7807 5.65027 5.79742 -17.0984c-2.92438,-4.80181 -4.60889,-10.4339 -4.60889,-16.455 -0.00021388,-17.6004 14.3789,-31.8678 32.1168,-31.8678 17.7402,0 32.1159,14.2675 32.1159,31.8678zm-32.1159 -26.7927c-14.8899,0 -27.0017,12.0194 -27.0017,26.7931 0,5.86244 1.91101,11.2916 5.14359,15.7082l-3.37352 9.95075 10.3766 -3.29802c4.26326,2.79947 9.37028,4.43223 14.8559,4.43223 14.8875,0 27.0014,-12.0181 27.0014,-26.7914 0,-14.7735 -12.1131,-26.7948 -27.0023,-26.7948l0 0zm16.2178 34.1324c-0.198266,-0.325097 -0.722485,-0.521225 -1.50913,-0.911555 -0.787932,-0.39033 -4.65958,-2.28124 -5.37907,-2.54046 -0.72163,-0.260291 -1.24799,-0.390972 -1.77221,0.39033 -0.524219,0.782158 -2.03314,2.54046 -2.49319,3.06169 -0.459413,0.522508 -0.918185,0.587955 -1.70612,0.196983 -0.786649,-0.39033 -3.32283,-1.21591 -6.32998,-3.87657 -2.33984,-2.07014 -3.9202,-4.626 -4.37961,-5.40902 -0.458772,-0.781302 -0.0481229,-1.20393 0.345416,-1.59255 0.354612,-0.350335 0.787932,-0.91241 1.18104,-1.36797 0.394822,-0.456633 0.525502,-0.781302 0.786649,-1.30338 0.263714,-0.521225 0.132391,-0.977002 -0.0654472,-1.36862 -0.196128,-0.39033 -1.77242,-4.23439 -2.42775,-5.7987 -0.655969,-1.56282 -1.31065,-1.30253 -1.77071,-1.30253 -0.458986,0 -0.984274,-0.0652333 -1.50913,-0.0652333 -0.524861,0 -1.37845,0.195486 -2.10008,0.976788 -0.721202,0.782372 -2.75434,2.67221 -2.75434,6.51541 0,3.84384 2.81979,7.55786 3.2144,8.07802 0.393111,0.520369 5.44452,8.66469 13.4479,11.7927 8.00423,3.12649 8.00423,2.08319 9.44792,1.95251 1.44198,-0.130253 4.65637,-1.88941 5.31491,-3.71231 0.654258,-1.8261 0.654258,-3.38978 0.458558,-3.71552z"/>
 </g>
</svg>
