<?xml version="1.0" encoding="UTF-8"?>
<!DOCTYPE svg PUBLIC "-//W3C//DTD SVG 1.1//EN" "http://www.w3.org/Graphics/SVG/1.1/DTD/svg11.dtd">
<!-- Creator: CorelDRAW -->
<svg xmlns="http://www.w3.org/2000/svg" xml:space="preserve" width="398px" height="398px" style="shape-rendering:geometricPrecision; text-rendering:geometricPrecision; image-rendering:optimizeQuality; fill-rule:evenodd; clip-rule:evenodd"
viewBox="0 0 72.0813 72.0813"
 xmlns:xlink="http://www.w3.org/1999/xlink">
 <defs>
  <style type="text/css">
   <![CDATA[
    .fil0 {fill:white}
   ]]>
  </style>
 </defs>
 <g id="Capa_x0020_1">
  <metadata id="CorelCorpID_0Corel-Layer"/>
  <path class="fil0" d="M0 0l72.0813 0 0 72.0813 -72.0813 0 0 -72.0813zm69.6499 34.4248c0,17.6008 -14.3776,31.8685 -32.1162,31.8685 -5.63124,0 -10.922,-1.43962 -15.5245,-3.96554l-17.7807 5.65049 5.79699 -17.0982c-2.92416,-4.80181 -4.60846,-10.4339 -4.60846,-16.4553 -0.000427759,-17.6002 14.3789,-31.8681 32.1166,-31.8681 17.74,0 32.1162,14.2679 32.1162,31.8681zm-32.1162 -26.7927c-14.8899,0 -27.0019,12.0194 -27.0019,26.7929 0,5.86287 1.91144,11.2916 5.1438,15.7086l-3.37374 9.95053 10.3768 -3.29802c4.26305,2.79926 9.37028,4.43223 14.8559,4.43223 14.8875,0 27.0014,-12.0183 27.0014,-26.7914 0,-14.7735 -12.1131,-26.7946 -27.0023,-26.7946l0 -0.00021388zm16.2181 34.1324c-0.198266,-0.325097 -0.722699,-0.521225 -1.50935,-0.911341 -0.787719,-0.390758 -4.65937,-2.28145 -5.37907,-2.54046 -0.72163,-0.260505 -1.24799,-0.3914 -1.77221,0.390116 -0.524433,0.782158 -2.03314,2.54046 -2.49341,3.06169 -0.458986,0.522722 -0.918185,0.587955 -1.70612,0.196769 -0.786649,-0.39033 -3.32241,-1.21569 -6.32977,-3.87635 -2.33984,-2.07014 -3.92041,-4.62622 -4.3794,-5.40902 -0.458986,-0.781088 -0.0483368,-1.20371 0.345202,-1.59276 0.354826,-0.350335 0.787932,-0.91241 1.18104,-1.36776 0.395036,-0.456633 0.525716,-0.781516 0.786649,-1.30317 0.263927,-0.521225 0.132178,-0.977216 -0.0654472,-1.36904 -0.196341,-0.390116 -1.77242,-4.23396 -2.42796,-5.79828 -0.655755,-1.56303 -1.31023,-1.30274 -1.7705,-1.30274 -0.458986,0 -0.98406,-0.0654472 -1.50935,-0.0654472 -0.524433,0 -1.37803,0.1957 -2.09987,0.977002 -0.720988,0.782158 -2.75456,2.672 -2.75456,6.51541 0,3.84363 2.82022,7.55765 3.21461,8.07802 0.393111,0.520583 5.44431,8.66469 13.4477,11.7927 8.00423,3.12628 8.00423,2.0834 9.44813,1.95229 1.44198,-0.130039 4.65637,-1.8892 5.31512,-3.71209 0.654044,-1.82632 0.654044,-3.38978 0.458558,-3.71552z"/>
 </g>
</svg>
