<?xml version="1.0" encoding="UTF-8"?>
<!DOCTYPE svg PUBLIC "-//W3C//DTD SVG 1.1//EN" "http://www.w3.org/Graphics/SVG/1.1/DTD/svg11.dtd">
<!-- Creator: CorelDRAW -->
<svg xmlns="http://www.w3.org/2000/svg" xml:space="preserve" width="398px" height="398px" style="shape-rendering:geometricPrecision; text-rendering:geometricPrecision; image-rendering:optimizeQuality; fill-rule:evenodd; clip-rule:evenodd"
viewBox="0 0 859.035 859.035"
 xmlns:xlink="http://www.w3.org/1999/xlink">
 <defs>
  <style type="text/css">
   <![CDATA[
    .fil0 {fill:white}
   ]]>
  </style>
 </defs>
 <g id="Capa_x0020_1">
  <metadata id="CorelCorpID_0Corel-Layer"/>
  <path class="fil0" d="M0 0l859.035 0 0 859.035 -859.035 0 0 -859.035zm519.166 558.295l-181.937 86.7783c-4.84806,2.30423 -10.4404,-1.22349 -10.4404,-6.59918l0 -178.958c0,-5.45726 5.74529,-8.99262 10.6061,-6.52781l181.932 92.2075c5.41902,2.735 5.31707,10.4914 -0.160583,13.0989l0 0zm93.459 -244.863l-388.982 0c-76.3175,0 -138.185,61.8625 -138.185,138.175l0 194.455c0,76.3098 61.8676,138.177 138.185,138.177l388.982 0c76.3175,0 138.185,-61.8676 138.185,-138.177l0 -194.455c0,-76.3124 -61.8676,-138.183 -138.185,-138.183l0 0.00764679z"/>
 </g>
</svg>
