<?xml version="1.0" encoding="UTF-8"?>
<!DOCTYPE svg PUBLIC "-//W3C//DTD SVG 1.1//EN" "http://www.w3.org/Graphics/SVG/1.1/DTD/svg11.dtd">
<!-- Creator: CorelDRAW -->
<svg xmlns="http://www.w3.org/2000/svg" xml:space="preserve" width="398px" height="398px" style="shape-rendering:geometricPrecision; text-rendering:geometricPrecision; image-rendering:optimizeQuality; fill-rule:evenodd; clip-rule:evenodd"
viewBox="0 0 748.244 748.244"
 xmlns:xlink="http://www.w3.org/1999/xlink">
 <defs>
  <style type="text/css">
   <![CDATA[
    .fil0 {fill:none}
    .fil1 {fill:white}
   ]]>
  </style>
 </defs>
 <g id="Capa_x0020_1">
  <metadata id="CorelCorpID_0Corel-Layer"/>
  <polygon class="fil0" points="0,0 748.244,0 748.244,748.244 0,748.244 "/>
  <path class="fil1" d="M456.031 391.268l-158.475 75.5819c-4.2228,2.01371 -9.09834,-1.06569 -9.09834,-5.74363l0 -155.888c0,-4.74454 5.00431,-7.81951 9.23599,-5.6748l158.475 80.3065c4.71124,2.38892 4.62909,9.14496 -0.137652,11.4184l0 0zm81.401 -213.289l-338.812 0c-66.4747,0 -120.365,53.8884 -120.365,120.363l0 169.369c0,66.4747 53.8907,120.363 120.363,120.363l338.814 0c66.4725,0 120.363,-53.8884 120.363,-120.363l0 -169.369c0,-66.4747 -53.8907,-120.365 -120.363,-120.365l0 0.00222019z"/>
 </g>
</svg>
