<?xml version="1.0" standalone="no"?>
<!DOCTYPE svg PUBLIC "-//W3C//DTD SVG 1.1//EN" "http://www.w3.org/Graphics/SVG/1.1/DTD/svg11.dtd">
<svg xmlns="http://www.w3.org/2000/svg">
<defs >
<font id="RedHatDisplay" horiz-adv-x="556" ><font-face
    font-family="Red Hat Display"
    units-per-em="1000"
    panose-1="2 1 8 3 4 2 1 13 3 3"
    ascent="1018"
    descent="-305"
    alphabetic="0" />
<glyph unicode=" " glyph-name="space" horiz-adv-x="201" />
<glyph unicode="!" glyph-name="exclam" horiz-adv-x="235" d="M56 210L151 737H288L159 210H56ZM68 -10Q38 -10 18 10T-3 61Q-3 98 24 125T88 152Q118 152 137 132T157 81Q157 45 130 18T68 -10Z" />
<glyph unicode="&quot;" glyph-name="quotedbl" horiz-adv-x="435" d="M109 425L152 705H283L206 425H109ZM294 425L337 705H468L391 425H294Z" />
<glyph unicode="#" glyph-name="numbersign" horiz-adv-x="723" d="M9 0L104 194H9L30 292H152L210 408H104L125 506H258L353 700H475L379 506H527L622 700H743L647 506H742L721 408H599L542 292H647L627 194H494L398 0H278L373 194H226L130 0H9ZM274 292H421L479
408H331L274 292Z" />
<glyph unicode="$" glyph-name="dollar" horiz-adv-x="589" d="M182 -75L202 21Q137 31 80 63T-22 146L66 238Q103 197 143 171T227 135L262 302L204 317Q135 335 99 376T63 479Q63 575 134 631T327 687H344L359 759H424L407 680Q466 669 519 643T612 577L528
483Q494 514 459 535T383 566L351 413L391 403Q474 382 515 341T556 237Q556 137 479 76T273 15H266L247 -75H182ZM270 426L287 422L320 574H311Q257 574 224 553T191 495Q191 470 210 453T270 426ZM331 290L325 292L290 128Q351 129 387 152T424 214Q424 242 403
259T331 290Z" />
<glyph unicode="%" glyph-name="percent" horiz-adv-x="803" d="M209 345Q147 345 110 383T73 486Q73 532 87 572T127 641T186 688T259 706Q321 706 358 668T395 565Q395 519 381 479T341 410T282 363T209 345ZM217 418Q257 418 285 460T314 559Q314 593 297 613T251
633Q211 633 183 591T155 492Q155 457 171 438T217 418ZM194 0H97L634 700H732L194 0ZM579 -5Q517 -5 480 33T443 136Q443 182 457 222T497 291T556 338T629 356Q691 356 728 318T765 215Q765 169 751 129T711 60T652 13T579 -5ZM587 68Q627 68 655 110T684 209Q684
243 667 263T621 283Q581 283 553 241T525 142Q525 107 541 88T587 68Z" />
<glyph unicode="&amp;" glyph-name="ampersand" horiz-adv-x="670" d="M619 81L528 -15Q509 1 489 18T450 54Q404 23 353 7T246 -10Q141 -10 78 39T14 172Q14 244 57 296T190 390Q174 421 167 450T160 509Q160 596 219 652T371 709Q447 709 495 668T544 564Q544
510 511 465T412 388L356 360Q378 328 406 294T465 226Q487 255 507 292T547 373L658 344Q632 283 603 234T542 147Q561 129 580 112T619 81ZM282 527Q282 507 288 487T307 442L354 464Q387 480 404 502T421 549Q421 576 404 592T358 608Q324 608 303 585T282 527ZM141
190Q141 148 174 123T262 97Q292 97 320 105T376 131Q338 174 303 218T240 307Q189 284 165 256T141 190Z" />
<glyph unicode="&apos;" glyph-name="quotesingle" horiz-adv-x="246" d="M109 425L152 705H283L206 425H109Z" />
<glyph unicode="(" glyph-name="parenleft" horiz-adv-x="404" d="M39 137Q39 230 64 317T137 478T251 613T402 711L458 620Q391 587 337 538T244 428T186 297T165 151Q165 61 199 -13T298 -140L208 -218Q126 -156 83 -65T39 137Z" />
<glyph unicode=")" glyph-name="parenright" horiz-adv-x="404" d="M365 357Q365 264 340 177T267 16T153 -119T2 -217L-54 -126Q13 -93 67 -44T160 66T218 197T239 343Q239 433 205 507T106 634L196 712Q278 650 321 559T365 357Z" />
<glyph unicode="*" glyph-name="asterisk" horiz-adv-x="466" d="M398 359L312 430L290 317H202L228 433L115 376L83 456L207 514L110 589L171 657L260 585L283 700H370L343 581L459 640L493 563L366 502L461 429L398 359Z" />
<glyph unicode="+" glyph-name="plus" horiz-adv-x="539" d="M294 129H190L227 306H55L78 412H250L286 584H391L354 412H526L504 306H332L294 129Z" />
<glyph unicode="," glyph-name="comma" horiz-adv-x="236" d="M34 112H173L12 -151H-90L34 112Z" />
<glyph unicode="-" glyph-name="hyphen" horiz-adv-x="449" d="M58 343H427L402 227H33L58 343Z" />
<glyph unicode="." glyph-name="period" horiz-adv-x="235" d="M88 152Q118 152 137 132T157 81Q157 45 130 18T68 -10Q38 -10 18 10T-3 61Q-3 98 24 125T88 152Z" />
<glyph unicode="/" glyph-name="slash" horiz-adv-x="508" d="M-170 -209L439 700H582L-26 -209H-170Z" />
<glyph unicode="0" glyph-name="zero" horiz-adv-x="673" d="M308 -10Q189 -10 117 66T45 269Q45 360 73 440T150 581T264 676T403 711Q522 711 594 635T667 432Q667 341 639 261T562 120T448 25T308 -10ZM321 109Q365 109 404 134T472 202T518 302T535 424Q535
502 496 547T390 592Q347 592 308 567T240 499T194 399T177 276Q177 198 215 154T321 109Z" />
<glyph unicode="1" glyph-name="one" horiz-adv-x="343" d="M383 700L234 0H100L218 560L72 505L98 624L298 700H383Z" />
<glyph unicode="2" glyph-name="two" horiz-adv-x="562" d="M-18 0L3 96L340 351Q393 391 417 427T442 500Q442 541 410 566T323 592Q281 592 238 575T140 517L84 613Q150 660 216 684T347 709Q449 709 513 657T577 523Q577 457 541 399T423 281L201 114H501L477 0H-18Z" />
<glyph unicode="3" glyph-name="three" horiz-adv-x="604" d="M550 209Q550 163 528 123T467 54T377 7T265 -10Q173 -10 102 23T-10 118L94 197Q126 151 169 130T274 109Q334 109 375 137T417 207Q417 245 386 267T304 290H241L264 400H314Q374 400 416 429T459
502Q459 540 427 565T343 590Q297 590 255 574T168 521L96 611Q154 659 223 684T362 709Q466 709 532 658T598 525Q598 466 560 417T458 342Q501 323 525 289T550 209Z" />
<glyph unicode="4" glyph-name="four" horiz-adv-x="659" d="M641 700L551 279H636L612 164H527L492 0H359L394 164H6L29 274L487 700H641ZM186 279H418L475 548L186 279Z" />
<glyph unicode="5" glyph-name="five" horiz-adv-x="591" d="M80 350L169 700H614L589 585H256L216 430Q241 436 265 439T316 442Q421 442 488 388T555 248Q555 194 532 147T470 66T376 11T261 -9Q178 -9 110 21T-5 105L91 191Q131 146 173 126T267 106Q330 106
373 141T416 229Q416 277 376 306T273 336Q247 336 218 331T161 316L80 350Z" />
<glyph unicode="6" glyph-name="six" horiz-adv-x="625" d="M308 -10Q189 -10 117 66T45 271Q45 360 76 440T162 579T289 673T443 708Q503 708 558 687T652 627L561 537Q534 563 500 576T422 590Q381 590 343 573T275 526T222 453T188 362Q227 396 276 414T377
433Q468 433 527 380T587 243Q587 191 565 145T505 65T416 10T308 -10ZM339 328Q296 328 255 311T177 260Q178 189 216 148T317 106Q374 106 414 141T455 227Q455 271 423 299T339 328Z" />
<glyph unicode="7" glyph-name="seven" horiz-adv-x="589" d="M40 0L479 581H87L113 700H663L641 599L208 0H40Z" />
<glyph unicode="8" glyph-name="eight" horiz-adv-x="621" d="M281 -11Q224 -11 176 2T93 40T40 99T21 175Q21 241 64 294T176 370Q145 392 128 424T110 495Q110 539 131 578T190 647T277 693T383 710Q434 710 477 697T550 660T598 603T616 532Q616 474 579 425T485
350Q525 328 548 292T572 212Q572 166 549 125T487 54T395 7T281 -11ZM354 411Q405 411 443 441T482 514Q482 551 451 575T371 600Q318 600 280 570T241 496Q241 459 273 435T354 411ZM291 101Q351 101 395 133T439 212Q439 253 401 280T305 307Q244 307 201 275T158
197Q158 155 195 128T291 101Z" />
<glyph unicode="9" glyph-name="nine" horiz-adv-x="625" d="M354 707Q473 707 545 631T617 426Q617 337 586 257T500 118T373 24T219 -11Q159 -11 104 10T10 70L101 160Q128 134 162 121T240 107Q281 107 319 124T387 171T440 244T474 335Q435 301 386 283T285
264Q194 264 135 317T75 454Q75 506 97 552T157 632T246 687T354 707ZM323 369Q366 369 407 386T485 437Q484 508 446 549T345 591Q288 591 248 556T207 470Q207 426 239 398T323 369Z" />
<glyph unicode=":" glyph-name="colon" horiz-adv-x="241" d="M88 152Q118 152 137 132T157 81Q157 45 130 18T68 -10Q38 -10 18 10T-3 61Q-3 98 24 125T88 152ZM168 530Q198 530 217 510T237 459Q237 423 210 396T148 368Q118 368 98 388T77 439Q77 476 104 503T168
530Z" />
<glyph unicode=";" glyph-name="semicolon" horiz-adv-x="245" d="M286 112H425L264 -151H162L286 112ZM172 530Q202 530 221 510T241 459Q241 423 214 396T152 368Q122 368 102 388T81 439Q81 476 108 503T172 530Z" />
<glyph unicode="&lt;" glyph-name="less" horiz-adv-x="524" d="M343 60L66 348L465 636L518 551L221 343L428 137L343 60Z" />
<glyph unicode="=" glyph-name="equal" horiz-adv-x="540" d="M761 567L739 461H290L313 567H761ZM545 502L523 396H74L97 502H545Z" />
<glyph unicode="&gt;" glyph-name="greater" horiz-adv-x="524" d="M219 636L496 348L97 60L44 145L341 353L134 559L219 636Z" />
<glyph unicode="?" glyph-name="question" horiz-adv-x="515" d="M391 341L354 320Q319 301 302 277T278 212H165Q175 283 200 323T279 395L341 433Q375 452 393 476T412 524Q412 555 385 574T313 594Q271 594 233 573T169 517L72 568Q116 634 185 671T331 709Q426
709 486 663T547 543Q547 484 510 436T391 341ZM203 152Q233 152 253 132T273 81Q273 45 246 18T184 -10Q153 -10 133 10T113 61Q113 98 139 125T203 152Z" />
<glyph unicode="@" glyph-name="at" horiz-adv-x="776" d="M342 48Q281 48 239 93T196 203Q196 241 210 274T247 332T303 371T373 386Q399 386 423 377T467 352L471 372H560L518 169Q512 142 523 128T561 113Q608 113 638 157T669 271Q669 325 648 371T591 451T505
504T397 523Q334 523 279 499T184 434T121 335T98 213Q98 148 120 94T182 1T278 -59T400 -81Q446 -81 487 -72T565 -44L590 -100Q544 -122 497 -133T400 -144Q321 -144 253 -118T136 -45T59 67T31 207Q31 287 59 355T136 474T252 552T399 581Q470 581 532 558T639
493T711 396T737 276Q737 226 723 184T684 112T624 65T548 48Q512 48 487 58T446 89Q424 70 397 59T342 48ZM283 210Q283 171 305 147T363 122Q381 122 397 128T429 147Q429 154 430 162T432 181L451 273Q438 291 419 300T376 310Q338 310 311 281T283 210Z" />
<glyph unicode="A" glyph-name="A" horiz-adv-x="718" d="M-59 0L369 700H533L666 0H520L488 184H204L96 0H-59ZM272 300H468L424 558L272 300Z" />
<glyph unicode="B" glyph-name="B" horiz-adv-x="678" d="M156 700H457Q552 700 609 654T666 533Q666 477 635 430T553 355Q590 333 611 299T633 223Q633 175 613 134T557 64T472 17T366 0H7L156 700ZM434 580H272L237 414H410Q458 414 489 441T521 509Q521 542
498 561T434 580ZM369 120Q422 120 456 149T490 224Q490 260 465 280T394 301H213L175 120H369Z" />
<glyph unicode="C" glyph-name="C" horiz-adv-x="708" d="M408 121Q459 121 508 143T598 205L676 107Q621 53 545 21T392 -12Q321 -12 259 13T152 84T80 190T54 321Q54 400 84 471T167 594T291 677T442 708Q537 708 610 672T729 567L619 473Q589 522 542 548T434
575Q385 575 343 556T269 503T219 425T200 328Q200 284 215 246T259 181T325 137T408 121Z" />
<glyph unicode="D" glyph-name="D" horiz-adv-x="723" d="M7 0L156 700H385Q455 700 515 677T617 612T684 514T709 388Q709 309 677 239T590 115T461 31T305 0H7ZM369 571H271L176 129H317Q367 129 412 148T490 201T542 280T561 378Q561 462 507 516T369 571Z" />
<glyph unicode="E" glyph-name="E" horiz-adv-x="634" d="M7 0L156 700H683L656 574H271L237 414H490L464 292H211L176 126H565L538 0H7Z" />
<glyph unicode="F" glyph-name="F" horiz-adv-x="628" d="M7 0L156 700H686L659 574H271L236 409H493L467 287H210L149 0H7Z" />
<glyph unicode="G" glyph-name="G" horiz-adv-x="778" d="M757 324Q744 250 710 188T626 82T515 12T383 -13Q312 -13 251 11T146 79T77 182T51 311Q51 392 83 464T168 591T294 677T447 709Q537 709 612 671T732 565L620 472Q592 521 543 548T435 575Q386 575 343
555T267 501T216 420T197 320Q197 233 253 176T397 119Q466 119 521 160T596 268H391L417 393H770L757 324Z" />
<glyph unicode="H" glyph-name="H" horiz-adv-x="724" d="M7 0L156 700H298L238 419H554L614 700H755L606 0H465L526 286H210L149 0H7Z" />
<glyph unicode="I" glyph-name="I" horiz-adv-x="266" d="M7 0L156 700H298L149 0H7Z" />
<glyph unicode="J" glyph-name="J" horiz-adv-x="629" d="M575 249Q549 130 469 61T275 -9Q166 -9 98 47T14 204L146 250Q155 186 186 154T272 121Q333 121 378 162T438 273L528 700H672L575 249Z" />
<glyph unicode="K" glyph-name="K" horiz-adv-x="683" d="M7 0L156 700H298L234 397L591 700H776L367 363L632 0H452L220 332L149 0H7Z" />
<glyph unicode="L" glyph-name="L" horiz-adv-x="616" d="M7 0L156 700H298L176 128H551L524 0H7Z" />
<glyph unicode="M" glyph-name="M" horiz-adv-x="864" d="M390 50L250 515L141 0H7L156 700H334L442 323L710 700H896L747 0H616L724 513L390 50Z" />
<glyph unicode="N" glyph-name="N" horiz-adv-x="734" d="M156 700H290L532 235L631 700H765L616 0H492L243 480L141 0H7L156 700Z" />
<glyph unicode="O" glyph-name="O" horiz-adv-x="797" d="M781 380Q781 300 750 229T667 104T543 20T392 -11Q320 -11 258 14T151 83T80 188T54 320Q54 400 85 471T168 596T292 680T443 711Q515 711 577 686T684 617T755 512T781 380ZM636 371Q636 415 621 453T579
519T515 562T434 578Q385 578 342 559T268 505T218 426T199 329Q199 285 214 247T256 181T320 138T401 122Q450 122 493 141T567 195T617 274T636 371Z" />
<glyph unicode="P" glyph-name="P" horiz-adv-x="668" d="M7 0L156 700H468Q564 700 623 645T683 502Q683 452 663 409T608 333T525 283T423 264H205L149 0H7ZM444 575H271L231 384H420Q471 384 505 414T539 490Q539 529 513 552T444 575Z" />
<glyph unicode="Q" glyph-name="Q" horiz-adv-x="797" d="M781 380Q781 290 742 211T638 78L692 -15L560 -32L533 16Q500 3 465 -4T392 -11Q320 -11 258 14T151 83T80 188T54 320Q54 400 85 471T168 596T292 680T443 711Q515 711 577 686T684 617T755 512T781
380ZM533 259L569 197Q600 231 618 275T636 371Q636 415 621 453T579 519T515 562T434 578Q385 578 342 559T268 505T218 426T199 329Q199 285 214 247T256 181T320 138T401 122Q418 122 434 124T466 132L403 242L533 259Z" />
<glyph unicode="R" glyph-name="R" horiz-adv-x="666" d="M7 0L156 700H468Q564 700 623 646T683 505Q683 424 632 363T500 280L605 0H455L362 270H206L149 0H7ZM443 575H271L232 388H420Q471 388 504 417T538 492Q538 530 512 552T443 575Z" />
<glyph unicode="S" glyph-name="S" horiz-adv-x="619" d="M-12 132L83 230Q137 170 195 141T319 111Q379 111 415 136T452 202Q452 232 429 250T351 283L220 317Q144 337 105 382T65 493Q65 592 137 651T333 710Q417 710 496 679T633 591L543 489Q492 539 436
564T320 589Q266 589 234 568T201 509Q201 482 222 465T290 434L415 404Q504 382 548 337T593 223Q593 118 515 54T307 -10Q212 -10 130 26T-12 132Z" />
<glyph unicode="T" glyph-name="T" horiz-adv-x="639" d="M83 572L111 700H715L687 572H457L335 0H193L315 572H83Z" />
<glyph unicode="U" glyph-name="U" horiz-adv-x="710" d="M662 278Q633 143 545 67T330 -9Q255 -9 198 15T107 84T61 191T66 328L145 700H287L205 314Q187 229 224 177T339 124Q407 124 457 169T524 291L611 700H752L662 278Z" />
<glyph unicode="V" glyph-name="V" horiz-adv-x="718" d="M223 0L90 700H238L334 149L662 700H815L388 0H223Z" />
<glyph unicode="W" glyph-name="W" horiz-adv-x="926" d="M271 0H122L120 700H260L253 225L487 700H621L654 225L848 700H993L694 0H544L511 489L271 0Z" />
<glyph unicode="X" glyph-name="X" horiz-adv-x="686" d="M113 0H-59L285 366L113 700H274L388 470L599 700H771L449 358L633 0H473L346 255L113 0Z" />
<glyph unicode="Y" glyph-name="Y" horiz-adv-x="691" d="M219 0L276 267L87 700H238L368 396L624 700H791L417 267L361 0H219Z" />
<glyph unicode="Z" glyph-name="Z" horiz-adv-x="604" d="M-34 0L-13 99L456 574H91L118 700H678L656 601L186 126H560L533 0H-34Z" />
<glyph unicode="[" glyph-name="bracketleft" horiz-adv-x="386" d="M248 -213H-45L149 700H442L419 593H253L105 -105H271L248 -213Z" />
<glyph unicode="\" glyph-name="backslash" horiz-adv-x="487" d="M462 -209H329L108 700H240L462 -209Z" />
<glyph unicode="]" glyph-name="bracketright" horiz-adv-x="386" d="M131 700H424L230 -213H-63L-40 -106H126L274 592H108L131 700Z" />
<glyph unicode="^" glyph-name="asciicircum" horiz-adv-x="542" d="M52 350L306 700H421L528 350H419L345 597L166 350H52Z" />
<glyph unicode="_" glyph-name="underscore" horiz-adv-x="484" d="M413 -80L392 -176H-94L-73 -80H413Z" />
<glyph unicode="`" glyph-name="grave" horiz-adv-x="507" d="M317 738L403 608H295L163 738H317Z" />
<glyph unicode="a" glyph-name="a" horiz-adv-x="545" d="M186 -6Q105 -6 57 33T9 139Q9 218 68 264T228 311Q265 311 301 304T370 285L376 311Q387 364 360 390T270 417Q242 417 207 409T123 383L90 486Q147 508 199 519T299 530Q418 530 473 472T508 313L442
0H310L317 32Q285 13 253 4T186 -6ZM136 151Q136 123 161 107T232 91Q260 91 286 98T335 120L352 198Q327 209 298 215T238 221Q191 221 164 202T136 151Z" />
<glyph unicode="b" glyph-name="b" horiz-adv-x="619" d="M589 287Q589 226 566 173T504 79T412 16T299 -7Q253 -7 213 8T141 51L130 0H-2L147 700L287 730L237 496Q265 512 295 520T357 528Q406 528 449 510T522 459T571 383T589 287ZM322 412Q291 412 263 402T211
372L167 169Q187 142 221 126T294 110Q363 110 410 158T458 275Q458 333 420 372T322 412Z" />
<glyph unicode="c" glyph-name="c" horiz-adv-x="520" d="M289 108Q321 108 350 121T409 160L478 70Q434 30 382 10T274 -11Q221 -11 176 7T98 58T46 136T27 234Q27 295 49 349T111 443T203 506T315 530Q380 530 437 502T529 425L436 341Q413 376 382 393T313
410Q282 410 254 397T206 361T173 307T161 241Q161 183 197 146T289 108Z" />
<glyph unicode="d" glyph-name="d" horiz-adv-x="619" d="M378 0L384 26Q356 10 325 2T262 -7Q213 -7 171 11T97 62T48 138T30 234Q30 295 53 348T115 442T207 505T320 528Q366 528 406 514T477 474L525 700L666 730L511 0H378ZM162 246Q162 187 201 148T298 109Q329
109 357 119T408 149L452 356Q431 381 398 396T325 411Q257 411 210 363T162 246Z" />
<glyph unicode="e" glyph-name="e" horiz-adv-x="576" d="M490 54Q442 20 395 5T292 -11Q235 -11 186 7T102 59T48 138T28 238Q28 297 50 350T111 443T200 506T310 529Q361 529 405 510T480 458T528 379T546 278Q546 267 545 255T541 215H161Q170 165 208 134T302
103Q335 103 364 113T415 141L490 54ZM303 415Q258 415 222 387T170 312H420Q411 358 380 386T303 415Z" />
<glyph unicode="f" glyph-name="f" horiz-adv-x="422" d="M73 521H186L200 585Q217 666 271 709T408 752Q433 752 460 748T505 736L482 622Q465 628 448 631T413 634Q379 634 359 619T332 572L321 521H459L435 406H297L210 0H76L162 406H49L73 521Z" />
<glyph unicode="g" glyph-name="g" horiz-adv-x="619" d="M262 -3Q213 -3 171 15T98 65T50 141T32 236Q32 296 54 349T116 442T207 505T320 528Q366 528 406 514T476 475L486 521H620L505 -26Q486 -118 423 -167T260 -217Q196 -217 131 -198T17 -144L79 -43Q122
-71 167 -86T256 -102Q305 -102 334 -79T373 -11L381 28Q354 13 324 5T262 -3ZM164 248Q164 189 202 150T298 111Q329 111 356 121T407 150L451 357Q430 382 397 396T325 411Q258 411 211 363T164 248Z" />
<glyph unicode="h" glyph-name="h" horiz-adv-x="582" d="M-2 0L147 700L287 730L235 484Q266 506 302 517T376 529Q422 529 458 513T516 467T546 398T544 311L478 0H343L407 298Q417 349 393 381T319 413Q288 413 260 401T210 366L132 0H-2Z" />
<glyph unicode="i" glyph-name="i" horiz-adv-x="240" d="M196 583Q168 583 148 603T128 652Q128 687 154 713T214 739Q242 739 262 719T282 671Q282 636 256 610T196 583ZM242 521L132 0H-2L108 521H242Z" />
<glyph unicode="j" glyph-name="j" horiz-adv-x="240" d="M196 583Q168 583 148 603T128 652Q128 687 154 713T214 739Q242 739 262 719T282 671Q282 636 256 610T196 583ZM-65 -215Q-84 -215 -108 -211T-146 -202L-124 -98Q-113 -101 -102 -102T-73 -104Q-48
-104 -34 -92T-14 -54L108 521H243L117 -68Q102 -138 55 -176T-65 -215Z" />
<glyph unicode="k" glyph-name="k" horiz-adv-x="557" d="M-2 0L147 700L287 730L195 296L452 521H618L312 261L520 0H357L181 231L132 0H-2Z" />
<glyph unicode="l" glyph-name="l" horiz-adv-x="240" d="M287 730L132 0H-2L147 700L287 730Z" />
<glyph unicode="m" glyph-name="m" horiz-adv-x="888" d="M-2 0L108 521H242L233 480Q264 504 297 516T368 529Q419 529 456 507T512 445Q551 486 597 507T694 529Q737 529 771 513T825 468T853 399T850 313L783 0H649L713 301Q723 350 702 381T636 413Q608 413
581 400T529 358Q529 347 528 336T524 313L457 0H323L387 299Q397 350 376 381T310 413Q282 413 257 401T209 365L132 0H-2Z" />
<glyph unicode="n" glyph-name="n" horiz-adv-x="582" d="M-2 0L108 521H242L234 484Q265 506 301 517T376 529Q422 529 458 513T516 467T546 398T544 311L478 0H343L407 298Q417 349 393 381T319 413Q288 413 260 401T209 365L132 0H-2Z" />
<glyph unicode="o" glyph-name="o" horiz-adv-x="607" d="M30 241Q30 300 53 353T115 445T208 508T321 531Q375 531 422 512T504 460T557 380T577 281Q577 222 554 169T491 77T398 14T286 -10Q232 -10 185 9T103 61T50 141T30 241ZM292 109Q323 109 351 122T400
157T433 210T445 275Q445 334 408 373T314 412Q283 412 255 399T207 364T174 311T162 247Q162 187 199 148T292 109Z" />
<glyph unicode="p" glyph-name="p" horiz-adv-x="619" d="M-47 -209L108 521H241L236 495Q264 511 294 519T357 528Q406 528 449 510T522 459T571 383T589 287Q589 226 566 173T504 79T412 16T299 -7Q253 -7 213 7T143 50L87 -209H-47ZM322 412Q291 412 263 402T212
373L168 168Q187 141 221 126T294 110Q363 110 410 158T458 275Q458 333 420 372T322 412Z" />
<glyph unicode="q" glyph-name="q" horiz-adv-x="619" d="M262 -7Q213 -7 171 11T97 62T48 138T30 234Q30 295 53 348T115 442T207 505T320 528Q367 528 407 514T478 472L488 521H621L466 -209H332L382 25Q354 9 324 1T262 -7ZM162 246Q162 187 201 148T298 109Q329
109 357 119T408 149L452 355Q432 380 398 395T325 411Q257 411 210 363T162 246Z" />
<glyph unicode="r" glyph-name="r" horiz-adv-x="399" d="M-3 0L108 521H242L231 470Q260 500 295 515T369 531Q389 531 406 528T434 517L409 397Q399 404 377 409T335 415Q298 415 264 397T205 345L132 0H-3Z" />
<glyph unicode="s" glyph-name="s" horiz-adv-x="485" d="M-19 78L58 165Q100 129 142 111T229 93Q270 93 295 109T321 150Q321 167 307 178T264 197L168 218Q104 232 70 268T36 359Q36 437 92 483T243 529Q306 529 364 509T468 449L393 366Q353 396 313 411T234
427Q198 427 177 413T156 375Q156 356 170 345T218 326L313 305Q379 291 414 255T449 166Q449 128 432 96T386 40T316 3T228 -11Q156 -11 90 13T-19 78Z" />
<glyph unicode="t" glyph-name="t" horiz-adv-x="416" d="M101 156L154 406H49L73 521H178L206 654L347 685L312 521H457L433 406H288L239 178Q231 140 246 124T304 107Q320 107 335 109T368 115L344 4Q326 0 299 -3T249 -7Q162 -7 124 35T101 156Z" />
<glyph unicode="u" glyph-name="u" horiz-adv-x="582" d="M238 521L175 223Q164 172 188 140T263 108Q294 108 321 120T372 155L449 521H584L473 0H339L347 37Q316 15 280 4T205 -8Q159 -8 123 8T65 54T36 123T38 210L104 521H238Z" />
<glyph unicode="v" glyph-name="v" horiz-adv-x="568" d="M164 0L55 521H198L263 174L476 521H623L293 0H164Z" />
<glyph unicode="w" glyph-name="w" horiz-adv-x="756" d="M224 0H96L65 521H190L203 183L376 521H488L518 184L674 521H802L551 0H422L394 334L224 0Z" />
<glyph unicode="x" glyph-name="x" horiz-adv-x="543" d="M-58 0L199 268L64 521H214L294 366L439 521H596L350 264L489 0H340L255 166L99 0H-58Z" />
<glyph unicode="y" glyph-name="y" horiz-adv-x="565" d="M128 -25L145 1L55 521H198L252 154L476 521H623L256 -62Q206 -141 151 -176T23 -212Q1 -212 -18 -209T-56 -202L-32 -85Q-22 -88 -10 -89T17 -91Q52 -91 79 -75T128 -25Z" />
<glyph unicode="z" glyph-name="z" horiz-adv-x="490" d="M-29 0L-8 97L306 406H59L83 521H510L490 424L174 115H431L406 0H-29Z" />
<glyph unicode="{" glyph-name="braceleft" horiz-adv-x="420" d="M246 76L190 -14Q159 -63 176 -89T232 -116Q246 -116 259 -114T284 -108L283 -207Q259 -214 238 -216T197 -219Q141 -219 105 -201T52 -152T41 -83T73 -2L126 80Q154 124 143 159T82 195H0L22
297H104Q152 297 177 328T195 408L178 503Q171 547 181 585T217 650T279 694T363 710Q391 710 418 706T472 688L432 591Q417 598 400 602T370 606Q333 606 310 579T293 501L310 397Q318 336 279 294T179 241Q236 225 259 181T246 76Z" />
<glyph unicode="|" glyph-name="bar" horiz-adv-x="318" d="M-4 -212L190 700H315L121 -212H-4Z" />
<glyph unicode="}" glyph-name="braceright" horiz-adv-x="420" d="M167 412L223 502Q254 551 237 577T181 604Q167 604 154 602T129 596L130 695Q154 702 175 704T216 707Q272 707 308 689T361 640T372 571T340 490L287 408Q259 364 270 329T331 293H413L391
191H309Q261 191 236 160T218 80L235 -15Q242 -59 232 -97T196 -162T134 -206T50 -222Q22 -222 -5 -218T-59 -200L-19 -103Q-4 -110 13 -114T43 -118Q80 -118 103 -91T120 -13L103 91Q95 152 134 194T234 247Q177 263 154 307T167 412Z" />
<glyph unicode="~" glyph-name="asciitilde" horiz-adv-x="595" d="M307 439L383 396Q405 383 418 379T443 374Q467 374 485 391T516 446L606 425Q581 351 539 311T444 270Q422 270 397 278T341 304L265 346Q243 359 229 364T204 369Q181 369 163 352T131 297L42
317Q67 392 109 432T203 472Q225 472 251 464T307 439Z" />
<glyph unicode="&#xa0;" glyph-name="nbspace" horiz-adv-x="201" />
<glyph unicode="&#xa1;" glyph-name="exclamdown" horiz-adv-x="234" d="M217 492L122 -35H-15L114 492H217ZM205 712Q235 712 255 692T276 641Q276 604 249 577T185 550Q155 550 136 570T116 621Q116 657 143 684T205 712Z" />
<glyph unicode="&#xa2;" glyph-name="cent" horiz-adv-x="521" d="M189 -110L211 -4Q130 15 79 80T27 234Q27 295 49 349T111 443T203 506T315 530H324L344 623H405L384 522Q428 511 466 486T529 425L436 341Q420 365 401 380T359 403L296 108Q326 109 353 122T409
160L478 70Q434 30 382 10T274 -11H271L250 -110H189ZM161 241Q161 198 182 165T237 118L299 409Q242 403 202 355T161 241Z" />
<glyph unicode="&#xa3;" glyph-name="sterling" horiz-adv-x="643" d="M181 29Q139 41 107 30T45 -22L-42 52Q-7 98 33 121T121 147Q135 156 143 172T152 210L153 286H54L73 375H153L154 451Q154 507 173 554T225 636T306 689T408 708Q509 708 570 658T647 511L531
480Q524 538 492 567T405 596Q348 596 314 558T280 456V375H463L444 286H279V247Q279 209 267 179T229 130L378 85Q419 73 450 83T509 130L596 63Q543 -4 482 -23T338 -17L181 29Z" />
<glyph unicode="&#xa4;" glyph-name="uni00A4" horiz-adv-x="685" d="M92 46L27 111L122 207Q98 239 85 279T71 363Q71 407 84 447T121 519L27 616L93 683L190 585Q222 607 261 618T342 630Q385 630 424 618T496 584L593 682L658 617L562 520Q586 488 599 448T613
363Q613 320 600 280T563 208L659 112L592 45L496 143Q463 121 424 109T342 96Q299 96 260 108T188 143L92 46ZM342 212Q403 212 444 256T486 363Q486 427 444 471T342 515Q282 515 240 471T198 363Q198 300 240 256T342 212Z" />
<glyph unicode="&#xa5;" glyph-name="yen" horiz-adv-x="696" d="M219 0L249 142H77L92 214H265L276 267L273 274H105L121 347H241L87 700H238L368 396L624 700H791L486 347H608L593 274H423L417 267L406 214H579L564 142H391L361 0H219Z" />
<glyph unicode="&#xa6;" glyph-name="uni00A6" horiz-adv-x="320" d="M228 284H102L191 700H317L228 284ZM-3 -212L85 204H211L123 -212H-3Z" />
<glyph unicode="&#xa7;" glyph-name="section" horiz-adv-x="567" d="M437 110Q437 39 382 -6T241 -52Q184 -52 128 -32T26 26L94 102Q134 70 172 54T244 37Q275 37 294 53T314 93Q314 109 304 122T271 145L173 194Q109 225 82 256T55 327Q55 384 89 425T181 483Q172
497 168 513T163 547Q163 618 218 663T357 709Q415 709 470 689T573 631L504 555Q464 587 426 603T354 620Q324 620 305 604T285 564Q285 548 295 535T327 512L426 463Q491 431 518 401T545 330Q545 273 511 232T419 173Q428 160 432 144T437 110ZM223 290L342
234Q380 235 405 255T430 305Q430 324 417 339T376 367L257 423Q219 421 194 402T169 352Q169 333 182 318T223 290Z" />
<glyph unicode="&#xa8;" glyph-name="dieresis" horiz-adv-x="577" d="M261 602Q233 602 215 620T196 666Q196 698 220 722T279 747Q306 747 324 729T342 683Q342 651 318 627T261 602ZM475 602Q447 602 429 620T410 666Q410 698 434 722T493 747Q520 747 538
729T556 683Q556 651 532 627T475 602Z" />
<glyph unicode="&#xa9;" glyph-name="copyright" horiz-adv-x="774" d="M52 307Q52 388 83 461T168 590T292 677T443 710Q511 710 569 686T670 620T737 519T761 392Q761 311 730 238T645 109T521 22T370 -11Q302 -11 244 13T143 79T76 180T52 307ZM696 385Q696
442 677 490T623 574T541 629T437 649Q373 649 315 622T213 549T143 442T117 314Q117 257 136 209T190 125T271 69T375 49Q439 49 497 76T600 150T670 257T696 385ZM224 324Q224 367 241 406T288 474T356 522T438 540Q483 540 523 519T586 462L516 405Q500 430
479 442T431 455Q386 455 353 419T320 333Q320 296 344 271T405 246Q427 246 447 254T489 281L531 216Q503 191 466 177T389 163Q318 163 271 209T224 324Z" />
<glyph unicode="&#xaa;" glyph-name="ordfeminine" horiz-adv-x="429" d="M200 306Q139 306 103 336T66 416Q66 476 111 510T232 545Q258 545 285 540T337 527L341 544Q349 583 329 602T262 621Q242 621 216 615T153 595L127 676Q170 693 210 701T287 710Q377
710 419 666T446 545L396 311H291L296 333Q272 319 249 313T200 306ZM168 424Q168 404 185 393T237 382Q256 382 275 386T310 401L323 459Q304 466 283 470T242 475Q207 475 188 462T168 424Z" />
<glyph unicode="&#xab;" glyph-name="guillemotleft" horiz-adv-x="679" d="M451 521L162 259L338 0H201L18 260L312 521H451ZM698 521L409 259L585 0H448L265 260L559 521H698Z" />
<glyph unicode="&#xac;" glyph-name="uni00AC" horiz-adv-x="558" d="M59 343H535L462 0H327L376 227H34L59 343Z" />
<glyph unicode="&#xad;" glyph-name="uni00AD" horiz-adv-x="458" d="M58 343H427L402 227H33L58 343Z" />
<glyph unicode="&#xae;" glyph-name="registered" horiz-adv-x="477" d="M274 306Q196 306 145 358T93 488Q93 534 111 576T161 650T233 701T319 720Q397 720 448 668T499 538Q499 492 481 450T432 376T360 325T274 306ZM278 351Q313 351 344 365T399 405T436
464T450 537Q450 598 412 636T313 675Q278 675 247 661T192 621T156 561T142 488Q142 428 180 390T278 351ZM204 420L244 608H322Q348 608 363 594T378 555Q378 536 367 519T336 493L361 420H312L290 486H265L251 420H204ZM308 571H283L272 520H302Q315 520 323
528T332 549Q332 560 326 565T308 571Z" />
<glyph unicode="&#xaf;" glyph-name="overscore" horiz-adv-x="507" d="M510 713L491 623H177L196 713H510Z" />
<glyph unicode="&#xb0;" glyph-name="degree" horiz-adv-x="367" d="M234 418Q178 418 142 455T105 547Q105 579 118 609T152 661T202 696T263 709Q319 709 356 672T393 580Q393 548 380 518T346 466T295 431T234 418ZM239 491Q271 491 295 514T319 571Q319 599
301 617T258 636Q226 636 203 613T179 556Q179 529 196 510T239 491Z" />
<glyph unicode="&#xb1;" glyph-name="plusminus" horiz-adv-x="539" d="M309 199H204L238 356H66L88 462H260L293 616H398L365 462H537L514 356H343L309 199ZM461 105L438 -1H-10L12 105H461Z" />
<glyph unicode="&#xb2;" glyph-name="twosuperior" horiz-adv-x="301" d="M45 350L58 408L220 528Q245 545 256 561T268 593Q268 611 254 622T215 633Q195 633 174 624T126 595L92 655Q125 679 160 692T229 705Q283 705 317 678T352 608Q352 574 333 545T273 485L183
420H316L302 350H45Z" />
<glyph unicode="&#xb3;" glyph-name="threesuperior" horiz-adv-x="322" d="M339 457Q339 410 296 378T191 345Q142 345 106 362T50 412L113 460Q128 438 148 428T197 418Q222 418 239 428T257 455Q257 470 245 478T210 487H177L191 555H215Q242 555 260 567T279
596Q279 611 265 621T229 632Q207 632 187 624T145 597L100 652Q130 678 167 692T241 706Q295 706 330 679T365 610Q365 582 347 558T299 519Q318 509 328 493T339 457Z" />
<glyph unicode="&#xb4;" glyph-name="acute" horiz-adv-x="506" d="M341 738H496L336 608H224L341 738Z" />
<glyph unicode="&#xb5;" glyph-name="uni00B5" horiz-adv-x="593" d="M243 521L178 218Q168 168 191 138T263 108Q298 108 328 121T382 160L458 521H595L485 0H348L357 42Q322 17 282 4T199 -10Q180 -10 163 -7T133 4L87 -209H-49L106 521H243Z" />
<glyph unicode="&#xb6;" glyph-name="paragraph" horiz-adv-x="724" d="M271 0L325 253H312Q213 253 152 306T90 446Q90 501 110 547T166 628T252 681T360 700H735L586 0H476L530 253H436L382 0H271ZM553 361L601 589H507L459 361H553ZM319 361H348L396 589H342Q285
589 247 553T209 462Q209 416 239 389T319 361Z" />
<glyph unicode="&#xb7;" glyph-name="middot" horiz-adv-x="241" d="M137 366Q167 366 186 346T206 295Q206 259 179 232T117 204Q87 204 67 224T46 275Q46 312 73 339T137 366Z" />
<glyph unicode="&#xb8;" glyph-name="cedilla" horiz-adv-x="507" d="M313 -127Q313 -172 273 -203T176 -235Q136 -235 106 -223T52 -184L102 -138Q118 -154 137 -162T179 -171Q204 -171 219 -160T235 -131Q235 -115 222 -105T186 -95H147L195 0H261L237 -47Q274
-53 293 -74T313 -127Z" />
<glyph unicode="&#xb9;" glyph-name="onesuperior" horiz-adv-x="191" d="M265 700L190 350H107L163 615L85 586L101 658L212 700H265Z" />
<glyph unicode="&#xba;" glyph-name="ordmasculine" horiz-adv-x="475" d="M83 491Q83 536 100 576T147 645T217 692T303 710Q386 710 441 656T497 521Q497 477 480 437T432 368T362 321T277 303Q194 303 139 357T83 491ZM393 517Q393 560 366 588T297 616Q252
616 220 581T187 497Q187 454 214 425T282 396Q328 396 360 432T393 517Z" />
<glyph unicode="&#xbb;" glyph-name="guillemotright" horiz-adv-x="679" d="M228 0L517 262L341 521H478L661 261L367 0H228ZM-20 0L269 262L93 521H230L413 261L119 0H-20Z" />
<glyph unicode="&#xbc;" glyph-name="onequarter" horiz-adv-x="665" d="M625 350L582 146H624L609 77H567L551 0H467L484 77H291L305 145L528 350H625ZM398 146H499L524 261L398 146ZM265 700L190 350H107L163 615L85 586L101 658L212 700H265ZM98 0H1L538 700H636L98
0Z" />
<glyph unicode="&#xbd;" glyph-name="onehalf" horiz-adv-x="693" d="M265 700L190 350H107L163 615L85 586L101 658L212 700H265ZM97 0H0L537 700H635L97 0ZM357 0L370 58L532 178Q557 195 568 211T580 243Q580 261 566 272T527 283Q507 283 486 274T438 245L404
305Q437 329 472 342T541 355Q595 355 629 328T664 258Q664 224 645 195T585 135L495 70H628L614 0H357Z" />
<glyph unicode="&#xbe;" glyph-name="threequarters" horiz-adv-x="758" d="M339 457Q339 410 296 378T191 345Q142 345 106 362T50 412L113 460Q128 438 148 428T197 418Q222 418 239 428T257 455Q257 470 245 478T210 487H177L191 555H215Q242 555 260 567T279
596Q279 611 265 621T229 632Q207 632 187 624T145 597L100 652Q130 678 167 692T241 706Q295 706 330 679T365 610Q365 582 347 558T299 519Q318 509 328 493T339 457ZM718 350L675 146H717L702 77H660L644 0H560L577 77H384L398 145L621 350H718ZM491 146H592L617
261L491 146ZM191 0H94L631 700H729L191 0Z" />
<glyph unicode="&#xbf;" glyph-name="questiondown" horiz-adv-x="515" d="M164 360L201 381Q236 400 253 424T277 489H390Q380 418 355 378T276 306L214 268Q180 249 162 225T143 177Q143 146 170 127T242 107Q284 107 322 128T386 184L483 133Q439 67 370 30T224
-8Q129 -8 69 38T8 158Q8 217 45 265T164 360ZM352 549Q322 549 302 569T282 620Q282 656 309 683T371 711Q402 711 422 691T442 640Q442 603 416 576T352 549Z" />
<glyph unicode="&#xc0;" glyph-name="Agrave" horiz-adv-x="718" d="M-59 0L369 700H533L666 0H520L488 184H204L96 0H-59ZM272 300H468L424 558L272 300ZM431 917L517 787H409L277 917H431Z" />
<glyph unicode="&#xc1;" glyph-name="Aacute" horiz-adv-x="718" d="M-59 0L369 700H533L666 0H520L488 184H204L96 0H-59ZM272 300H468L424 558L272 300ZM509 917H664L504 787H392L509 917Z" />
<glyph unicode="&#xc2;" glyph-name="Acircumflex" horiz-adv-x="718" d="M-59 0L369 700H533L666 0H520L488 184H204L96 0H-59ZM272 300H468L424 558L272 300ZM536 784L480 858L392 784H279L421 920H558L642 784H536Z" />
<glyph unicode="&#xc3;" glyph-name="Atilde" horiz-adv-x="718" d="M-59 0L369 700H533L666 0H520L488 184H204L96 0H-59ZM272 300H468L424 558L272 300ZM358 780L280 807Q305 864 335 892T403 921Q425 921 445 912T484 891T519 871T550 861Q564 861 574 872T599
914L676 888Q652 831 622 803T553 774Q529 774 509 783T472 803T438 824T406 833Q393 833 382 821T358 780Z" />
<glyph unicode="&#xc4;" glyph-name="Adieresis" horiz-adv-x="718" d="M-59 0L369 700H533L666 0H520L488 184H204L96 0H-59ZM272 300H468L424 558L272 300ZM361 781Q333 781 315 799T296 845Q296 877 320 901T379 926Q406 926 424 908T442 862Q442 830 418 806T361
781ZM575 781Q547 781 529 799T510 845Q510 877 534 901T593 926Q620 926 638 908T656 862Q656 830 632 806T575 781Z" />
<glyph unicode="&#xc5;" glyph-name="Aring" horiz-adv-x="718" d="M-59 0L369 700H533L666 0H520L488 184H204L96 0H-59ZM272 300H468L424 558L272 300ZM471 763Q423 763 392 793T360 871Q360 924 400 965T493 1006Q541 1006 572 976T603 898Q603 844 563 804T471
763ZM475 822Q502 822 521 842T541 892Q541 916 526 931T489 947Q461 947 442 927T422 877Q422 853 437 838T475 822Z" />
<glyph unicode="&#xc6;" glyph-name="AE" horiz-adv-x="964" d="M-59 0L371 700H1016L990 574H566L589 414H830L803 292H608L632 126H894L868 0H511L484 184H201L88 0H-59ZM272 300H467L430 558L272 300Z" />
<glyph unicode="&#xc7;" glyph-name="Ccedilla" horiz-adv-x="708" d="M408 121Q459 121 508 143T598 205L676 107Q623 55 550 23T404 -12L386 -47Q423 -53 442 -74T462 -127Q462 -172 422 -203T325 -235Q285 -235 255 -223T201 -184L251 -138Q267 -154 286 -162T328
-171Q353 -171 368 -160T384 -131Q384 -115 371 -105T335 -95H296L340 -8Q278 1 226 29T135 101T76 201T54 321Q54 400 84 471T167 594T291 677T442 708Q537 708 610 672T729 567L619 473Q589 522 542 548T434 575Q385 575 343 556T269 503T219 425T200 328Q200
284 215 246T259 181T325 137T408 121Z" />
<glyph unicode="&#xc8;" glyph-name="Egrave" horiz-adv-x="634" d="M7 0L156 700H683L656 574H271L237 414H490L464 292H211L176 126H565L538 0H7ZM403 917L489 787H381L249 917H403Z" />
<glyph unicode="&#xc9;" glyph-name="Eacute" horiz-adv-x="634" d="M7 0L156 700H683L656 574H271L237 414H490L464 292H211L176 126H565L538 0H7ZM481 917H636L476 787H364L481 917Z" />
<glyph unicode="&#xca;" glyph-name="Ecircumflex" horiz-adv-x="634" d="M7 0L156 700H683L656 574H271L237 414H490L464 292H211L176 126H565L538 0H7ZM508 784L452 858L364 784H251L393 920H530L614 784H508Z" />
<glyph unicode="&#xcb;" glyph-name="Edieresis" horiz-adv-x="634" d="M7 0L156 700H683L656 574H271L237 414H490L464 292H211L176 126H565L538 0H7ZM332 781Q304 781 286 799T267 845Q267 877 291 901T350 926Q377 926 395 908T413 862Q413 830 389 806T332
781ZM546 781Q518 781 500 799T481 845Q481 877 505 901T564 926Q591 926 609 908T627 862Q627 830 603 806T546 781Z" />
<glyph unicode="&#xcc;" glyph-name="Igrave" horiz-adv-x="266" d="M7 0L156 700H298L149 0H7ZM214 917L300 787H192L60 917H214Z" />
<glyph unicode="&#xcd;" glyph-name="Iacute" horiz-adv-x="266" d="M7 0L156 700H298L149 0H7ZM292 917H447L287 787H175L292 917Z" />
<glyph unicode="&#xce;" glyph-name="Icircumflex" horiz-adv-x="266" d="M7 0L156 700H298L149 0H7ZM320 784L264 858L176 784H63L205 920H342L426 784H320Z" />
<glyph unicode="&#xcf;" glyph-name="Idieresis" horiz-adv-x="266" d="M7 0L156 700H298L149 0H7ZM144 781Q116 781 98 799T79 845Q79 877 103 901T162 926Q189 926 207 908T225 862Q225 830 201 806T144 781ZM358 781Q330 781 312 799T293 845Q293 877 317 901T376
926Q403 926 421 908T439 862Q439 830 415 806T358 781Z" />
<glyph unicode="&#xd0;" glyph-name="Eth" horiz-adv-x="747" d="M31 0L93 293H16L40 408H118L180 700H409Q479 700 539 677T641 612T708 514T733 388Q733 309 701 239T614 115T485 31T329 0H31ZM393 571H295L260 408H427L403 293H235L200 129H341Q391 129 436
148T514 201T566 280T585 378Q585 462 531 516T393 571Z" />
<glyph unicode="&#xd1;" glyph-name="Ntilde" horiz-adv-x="734" d="M156 700H290L532 235L631 700H765L616 0H492L243 480L141 0H7L156 700ZM374 780L296 807Q321 864 351 892T419 921Q441 921 461 912T500 891T535 871T566 861Q580 861 590 872T615 914L692
888Q668 831 638 803T569 774Q545 774 525 783T488 803T454 824T422 833Q409 833 398 821T374 780Z" />
<glyph unicode="&#xd2;" glyph-name="Ograve" horiz-adv-x="797" d="M781 380Q781 300 750 229T667 104T543 20T392 -11Q320 -11 258 14T151 83T80 188T54 320Q54 400 85 471T168 596T292 680T443 711Q515 711 577 686T684 617T755 512T781 380ZM636 371Q636 415
621 453T579 519T515 562T434 578Q385 578 342 559T268 505T218 426T199 329Q199 285 214 247T256 181T320 138T401 122Q450 122 493 141T567 195T617 274T636 371ZM437 917L523 787H415L283 917H437Z" />
<glyph unicode="&#xd3;" glyph-name="Oacute" horiz-adv-x="797" d="M781 380Q781 300 750 229T667 104T543 20T392 -11Q320 -11 258 14T151 83T80 188T54 320Q54 400 85 471T168 596T292 680T443 711Q515 711 577 686T684 617T755 512T781 380ZM636 371Q636 415
621 453T579 519T515 562T434 578Q385 578 342 559T268 505T218 426T199 329Q199 285 214 247T256 181T320 138T401 122Q450 122 493 141T567 195T617 274T636 371ZM515 917H670L510 787H398L515 917Z" />
<glyph unicode="&#xd4;" glyph-name="Ocircumflex" horiz-adv-x="797" d="M781 380Q781 300 750 229T667 104T543 20T392 -11Q320 -11 258 14T151 83T80 188T54 320Q54 400 85 471T168 596T292 680T443 711Q515 711 577 686T684 617T755 512T781 380ZM636 371Q636
415 621 453T579 519T515 562T434 578Q385 578 342 559T268 505T218 426T199 329Q199 285 214 247T256 181T320 138T401 122Q450 122 493 141T567 195T617 274T636 371ZM542 784L486 858L398 784H285L427 920H564L648 784H542Z" />
<glyph unicode="&#xd5;" glyph-name="Otilde" horiz-adv-x="797" d="M781 380Q781 300 750 229T667 104T543 20T392 -11Q320 -11 258 14T151 83T80 188T54 320Q54 400 85 471T168 596T292 680T443 711Q515 711 577 686T684 617T755 512T781 380ZM636 371Q636 415
621 453T579 519T515 562T434 578Q385 578 342 559T268 505T218 426T199 329Q199 285 214 247T256 181T320 138T401 122Q450 122 493 141T567 195T617 274T636 371ZM363 780L285 807Q310 864 340 892T408 921Q430 921 450 912T489 891T524 871T555 861Q569 861
579 872T604 914L681 888Q657 831 627 803T558 774Q534 774 514 783T477 803T443 824T411 833Q398 833 387 821T363 780Z" />
<glyph unicode="&#xd6;" glyph-name="Odieresis" horiz-adv-x="797" d="M781 380Q781 300 750 229T667 104T543 20T392 -11Q320 -11 258 14T151 83T80 188T54 320Q54 400 85 471T168 596T292 680T443 711Q515 711 577 686T684 617T755 512T781 380ZM636 371Q636
415 621 453T579 519T515 562T434 578Q385 578 342 559T268 505T218 426T199 329Q199 285 214 247T256 181T320 138T401 122Q450 122 493 141T567 195T617 274T636 371ZM366 781Q338 781 320 799T301 845Q301 877 325 901T384 926Q411 926 429 908T447 862Q447
830 423 806T366 781ZM580 781Q552 781 534 799T515 845Q515 877 539 901T598 926Q625 926 643 908T661 862Q661 830 637 806T580 781Z" />
<glyph unicode="&#xd7;" glyph-name="multiply" horiz-adv-x="532" d="M95 139L42 207L222 360L107 513L182 576L297 424L477 576L530 507L350 354L464 203L388 141L275 291L95 139Z" />
<glyph unicode="&#xd8;" glyph-name="Oslash" horiz-adv-x="798" d="M127 0H-5L118 121Q87 161 71 212T54 320Q54 400 85 471T168 596T292 680T443 711Q503 711 555 694T651 645L706 700H839L717 580Q747 539 764 488T781 380Q781 300 750 229T667 104T543 20T392
-11Q332 -11 279 6T183 55L127 0ZM199 329Q199 301 205 274T224 225L548 545Q524 561 495 569T434 578Q385 578 342 559T268 505T218 426T199 329ZM636 371Q636 400 630 426T611 476L286 156Q310 140 339 131T401 122Q450 122 493 141T567 195T617 274T636 371Z"
/>
<glyph unicode="&#xd9;" glyph-name="Ugrave" horiz-adv-x="710" d="M662 278Q633 143 545 67T330 -9Q255 -9 198 15T107 84T61 191T66 328L145 700H287L205 314Q187 229 224 177T339 124Q407 124 457 169T524 291L611 700H752L662 278ZM430 917L516 787H408L276
917H430Z" />
<glyph unicode="&#xda;" glyph-name="Uacute" horiz-adv-x="710" d="M662 278Q633 143 545 67T330 -9Q255 -9 198 15T107 84T61 191T66 328L145 700H287L205 314Q187 229 224 177T339 124Q407 124 457 169T524 291L611 700H752L662 278ZM508 917H663L503 787H391L508
917Z" />
<glyph unicode="&#xdb;" glyph-name="Ucircumflex" horiz-adv-x="710" d="M662 278Q633 143 545 67T330 -9Q255 -9 198 15T107 84T61 191T66 328L145 700H287L205 314Q187 229 224 177T339 124Q407 124 457 169T524 291L611 700H752L662 278ZM535 784L479 858L391
784H278L420 920H557L641 784H535Z" />
<glyph unicode="&#xdc;" glyph-name="Udieresis" horiz-adv-x="710" d="M662 278Q633 143 545 67T330 -9Q255 -9 198 15T107 84T61 191T66 328L145 700H287L205 314Q187 229 224 177T339 124Q407 124 457 169T524 291L611 700H752L662 278ZM360 781Q332 781 314
799T295 845Q295 877 319 901T378 926Q405 926 423 908T441 862Q441 830 417 806T360 781ZM574 781Q546 781 528 799T509 845Q509 877 533 901T592 926Q619 926 637 908T655 862Q655 830 631 806T574 781Z" />
<glyph unicode="&#xdd;" glyph-name="Yacute" horiz-adv-x="691" d="M219 0L276 267L87 700H238L368 396L624 700H791L417 267L361 0H219ZM498 917H653L493 787H381L498 917Z" />
<glyph unicode="&#xde;" glyph-name="Thorn" horiz-adv-x="668" d="M8 0L157 700H298L270 569H423Q516 569 574 516T632 375Q632 324 613 280T559 203T479 152T378 133H177L149 0H8ZM397 444H244L203 253H374Q424 253 455 284T487 364Q487 401 463 422T397 444Z" />
<glyph unicode="&#xdf;" glyph-name="germandbls" horiz-adv-x="672" d="M434 351Q434 339 443 330T472 311L544 276Q593 253 615 224T638 154Q638 82 584 35T445 -13Q379 -13 322 14T227 92L308 158Q336 121 370 102T442 83Q476 83 496 98T516 140Q516 156 504
169T463 195L387 231Q347 250 328 275T308 335Q308 386 340 414T411 462T481 501T514 553Q514 584 479 606T394 629Q331 629 292 593T237 488L132 0H-2L106 505Q130 617 205 678T396 739Q450 739 496 727T576 692T629 638T648 571Q648 512 615 479T541 426T468
391T434 351Z" />
<glyph unicode="&#xe0;" glyph-name="agrave" horiz-adv-x="545" d="M186 -6Q105 -6 57 33T9 139Q9 218 68 264T228 311Q265 311 301 304T370 285L376 311Q387 364 360 390T270 417Q242 417 207 409T123 383L90 486Q147 508 199 519T299 530Q418 530 473 472T508
313L442 0H310L317 32Q285 13 253 4T186 -6ZM136 151Q136 123 161 107T232 91Q260 91 286 98T335 120L352 198Q327 209 298 215T238 221Q191 221 164 202T136 151ZM541 738L627 608H519L387 738H541Z" />
<glyph unicode="&#xe1;" glyph-name="aacute" horiz-adv-x="545" d="M186 -6Q105 -6 57 33T9 139Q9 218 68 264T228 311Q265 311 301 304T370 285L376 311Q387 364 360 390T270 417Q242 417 207 409T123 383L90 486Q147 508 199 519T299 530Q418 530 473 472T508
313L442 0H310L317 32Q285 13 253 4T186 -6ZM136 151Q136 123 161 107T232 91Q260 91 286 98T335 120L352 198Q327 209 298 215T238 221Q191 221 164 202T136 151ZM363 738H518L358 608H246L363 738Z" />
<glyph unicode="&#xe2;" glyph-name="acircumflex" horiz-adv-x="545" d="M186 -6Q105 -6 57 33T9 139Q9 218 68 264T228 311Q265 311 301 304T370 285L376 311Q387 364 360 390T270 417Q242 417 207 409T123 383L90 486Q147 508 199 519T299 530Q418 530 473
472T508 313L442 0H310L317 32Q285 13 253 4T186 -6ZM136 151Q136 123 161 107T232 91Q260 91 286 98T335 120L352 198Q327 209 298 215T238 221Q191 221 164 202T136 151ZM646 605L590 679L502 605H389L531 741H668L752 605H646Z" />
<glyph unicode="&#xe3;" glyph-name="atilde" horiz-adv-x="545" d="M186 -6Q105 -6 57 33T9 139Q9 218 68 264T228 311Q265 311 301 304T370 285L376 311Q387 364 360 390T270 417Q242 417 207 409T123 383L90 486Q147 508 199 519T299 530Q418 530 473 472T508
313L442 0H310L317 32Q285 13 253 4T186 -6ZM136 151Q136 123 161 107T232 91Q260 91 286 98T335 120L352 198Q327 209 298 215T238 221Q191 221 164 202T136 151ZM467 601L389 628Q414 685 444 713T512 742Q534 742 554 733T593 712T628 692T659 682Q673 682 683
693T708 735L785 709Q761 652 731 624T662 595Q638 595 618 604T581 624T547 645T515 654Q502 654 491 642T467 601Z" />
<glyph unicode="&#xe4;" glyph-name="adieresis" horiz-adv-x="545" d="M186 -6Q105 -6 57 33T9 139Q9 218 68 264T228 311Q265 311 301 304T370 285L376 311Q387 364 360 390T270 417Q242 417 207 409T123 383L90 486Q147 508 199 519T299 530Q418 530 473 472T508
313L442 0H310L317 32Q285 13 253 4T186 -6ZM136 151Q136 123 161 107T232 91Q260 91 286 98T335 120L352 198Q327 209 298 215T238 221Q191 221 164 202T136 151ZM471 602Q443 602 425 620T406 666Q406 698 430 722T489 747Q516 747 534 729T552 683Q552 651 528
627T471 602ZM685 602Q657 602 639 620T620 666Q620 698 644 722T703 747Q730 747 748 729T766 683Q766 651 742 627T685 602Z" />
<glyph unicode="&#xe5;" glyph-name="aring" horiz-adv-x="545" d="M186 -6Q105 -6 57 33T9 139Q9 218 68 264T228 311Q265 311 301 304T370 285L376 311Q387 364 360 390T270 417Q242 417 207 409T123 383L90 486Q147 508 199 519T299 530Q418 530 473 472T508
313L442 0H310L317 32Q285 13 253 4T186 -6ZM136 151Q136 123 161 107T232 91Q260 91 286 98T335 120L352 198Q327 209 298 215T238 221Q191 221 164 202T136 151ZM581 584Q533 584 502 614T470 692Q470 745 510 786T603 827Q651 827 682 797T713 719Q713 665 673
625T581 584ZM585 643Q612 643 631 663T651 713Q651 737 636 752T599 768Q571 768 552 748T532 698Q532 674 547 659T585 643Z" />
<glyph unicode="&#xe6;" glyph-name="ae" horiz-adv-x="902" d="M212 -6Q125 -6 73 35T20 144Q20 222 76 266T230 311Q263 311 296 306T360 290L366 317Q376 365 348 391T260 417Q232 417 199 409T116 383L83 486Q143 508 194 519T294 530Q353 530 396 512T464
462Q501 494 545 511T636 529Q687 529 731 510T806 458T854 379T872 278Q872 267 871 255T867 215H487Q496 165 534 134T628 103Q661 103 690 113T741 141L816 54Q768 20 721 5T618 -11Q555 -11 502 11T414 73Q363 32 315 13T212 -6ZM630 415Q584 415 548 387T496
312H746Q737 358 706 386T630 415ZM146 154Q146 126 171 109T238 91Q274 91 308 103T373 139Q368 152 364 167T358 199Q334 209 303 214T243 220Q200 220 173 202T146 154Z" />
<glyph unicode="&#xe7;" glyph-name="ccedilla" horiz-adv-x="520" d="M289 108Q321 108 350 121T409 160L478 70Q439 35 395 15T301 -10L283 -45Q320 -51 339 -72T359 -125Q359 -170 319 -201T222 -233Q182 -233 152 -221T98 -182L148 -136Q164 -152 183 -160T225
-169Q250 -169 265 -158T281 -129Q281 -113 268 -103T232 -93H193L236 -8Q145 5 86 71T27 234Q27 295 49 349T111 443T203 506T315 530Q380 530 437 502T529 425L436 341Q413 376 382 393T313 410Q282 410 254 397T206 361T173 307T161 241Q161 183 197 146T289
108Z" />
<glyph unicode="&#xe8;" glyph-name="egrave" horiz-adv-x="576" d="M490 54Q442 20 395 5T292 -11Q235 -11 186 7T102 59T48 138T28 238Q28 297 50 350T111 443T200 506T310 529Q361 529 405 510T480 458T528 379T546 278Q546 267 545 255T541 215H161Q170 165
208 134T302 103Q335 103 364 113T415 141L490 54ZM303 415Q258 415 222 387T170 312H420Q411 358 380 386T303 415ZM558 738L644 608H536L404 738H558Z" />
<glyph unicode="&#xe9;" glyph-name="eacute" horiz-adv-x="576" d="M490 54Q442 20 395 5T292 -11Q235 -11 186 7T102 59T48 138T28 238Q28 297 50 350T111 443T200 506T310 529Q361 529 405 510T480 458T528 379T546 278Q546 267 545 255T541 215H161Q170 165
208 134T302 103Q335 103 364 113T415 141L490 54ZM303 415Q258 415 222 387T170 312H420Q411 358 380 386T303 415ZM380 738H535L375 608H263L380 738Z" />
<glyph unicode="&#xea;" glyph-name="ecircumflex" horiz-adv-x="576" d="M490 54Q442 20 395 5T292 -11Q235 -11 186 7T102 59T48 138T28 238Q28 297 50 350T111 443T200 506T310 529Q361 529 405 510T480 458T528 379T546 278Q546 267 545 255T541 215H161Q170
165 208 134T302 103Q335 103 364 113T415 141L490 54ZM303 415Q258 415 222 387T170 312H420Q411 358 380 386T303 415ZM407 605L351 679L263 605H150L292 741H429L513 605H407Z" />
<glyph unicode="&#xeb;" glyph-name="edieresis" horiz-adv-x="576" d="M490 54Q442 20 395 5T292 -11Q235 -11 186 7T102 59T48 138T28 238Q28 297 50 350T111 443T200 506T310 529Q361 529 405 510T480 458T528 379T546 278Q546 267 545 255T541 215H161Q170
165 208 134T302 103Q335 103 364 113T415 141L490 54ZM303 415Q258 415 222 387T170 312H420Q411 358 380 386T303 415ZM487 602Q459 602 441 620T422 666Q422 698 446 722T505 747Q532 747 550 729T568 683Q568 651 544 627T487 602ZM701 602Q673 602 655 620T636
666Q636 698 660 722T719 747Q746 747 764 729T782 683Q782 651 758 627T701 602Z" />
<glyph unicode="&#xec;" glyph-name="igrave" horiz-adv-x="240" d="M242 521L132 0H-2L108 521H242ZM162 738L248 608H140L8 738H162Z" />
<glyph unicode="&#xed;" glyph-name="iacute" horiz-adv-x="240" d="M242 521L132 0H-2L108 521H242ZM496 738H651L491 608H379L496 738Z" />
<glyph unicode="&#xee;" glyph-name="icircumflex" horiz-adv-x="240" d="M242 521L132 0H-2L108 521H242ZM268 605L212 679L124 605H11L153 741H290L374 605H268Z" />
<glyph unicode="&#xef;" glyph-name="idieresis" horiz-adv-x="240" d="M242 521L132 0H-2L108 521H242ZM92 602Q64 602 46 620T27 666Q27 698 51 722T110 747Q137 747 155 729T173 683Q173 651 149 627T92 602ZM306 602Q278 602 260 620T241 666Q241 698 265
722T324 747Q351 747 369 729T387 683Q387 651 363 627T306 602Z" />
<glyph unicode="&#xf0;" glyph-name="eth" horiz-adv-x="582" d="M296 517L261 593L335 629Q319 643 302 656T265 679L352 763Q380 746 405 727T451 685L558 737L594 661L504 618Q537 566 553 504T570 372Q570 290 547 220T484 100T388 20T267 -9Q163 -9 97 56T30
224Q30 277 51 325T108 408T192 465T295 486Q342 486 379 470T440 424Q438 460 426 495T391 563L296 517ZM271 112Q327 112 369 155T412 257Q412 306 380 339T299 372Q242 372 200 329T157 227Q157 178 189 145T271 112Z" />
<glyph unicode="&#xf1;" glyph-name="ntilde" horiz-adv-x="582" d="M-2 0L108 521H242L234 484Q265 506 301 517T376 529Q422 529 458 513T516 467T546 398T544 311L478 0H343L407 298Q417 349 393 381T319 413Q288 413 260 401T209 365L132 0H-2ZM260 601L182
628Q207 685 237 713T305 742Q327 742 347 733T386 712T421 692T452 682Q466 682 476 693T501 735L578 709Q554 652 524 624T455 595Q431 595 411 604T374 624T340 645T308 654Q295 654 284 642T260 601Z" />
<glyph unicode="&#xf2;" glyph-name="ograve" horiz-adv-x="607" d="M30 241Q30 300 53 353T115 445T208 508T321 531Q375 531 422 512T504 460T557 380T577 281Q577 222 554 169T491 77T398 14T286 -10Q232 -10 185 9T103 61T50 141T30 241ZM292 109Q323 109
351 122T400 157T433 210T445 275Q445 334 408 373T314 412Q283 412 255 399T207 364T174 311T162 247Q162 187 199 148T292 109ZM317 738L403 608H295L163 738H317Z" />
<glyph unicode="&#xf3;" glyph-name="oacute" horiz-adv-x="607" d="M30 241Q30 300 53 353T115 445T208 508T321 531Q375 531 422 512T504 460T557 380T577 281Q577 222 554 169T491 77T398 14T286 -10Q232 -10 185 9T103 61T50 141T30 241ZM292 109Q323 109
351 122T400 157T433 210T445 275Q445 334 408 373T314 412Q283 412 255 399T207 364T174 311T162 247Q162 187 199 148T292 109ZM395 738H550L390 608H278L395 738Z" />
<glyph unicode="&#xf4;" glyph-name="ocircumflex" horiz-adv-x="607" d="M30 241Q30 300 53 353T115 445T208 508T321 531Q375 531 422 512T504 460T557 380T577 281Q577 222 554 169T491 77T398 14T286 -10Q232 -10 185 9T103 61T50 141T30 241ZM292 109Q323
109 351 122T400 157T433 210T445 275Q445 334 408 373T314 412Q283 412 255 399T207 364T174 311T162 247Q162 187 199 148T292 109ZM422 605L366 679L278 605H165L307 741H444L528 605H422Z" />
<glyph unicode="&#xf5;" glyph-name="otilde" horiz-adv-x="607" d="M30 241Q30 300 53 353T115 445T208 508T321 531Q375 531 422 512T504 460T557 380T577 281Q577 222 554 169T491 77T398 14T286 -10Q232 -10 185 9T103 61T50 141T30 241ZM292 109Q323 109
351 122T400 157T433 210T445 275Q445 334 408 373T314 412Q283 412 255 399T207 364T174 311T162 247Q162 187 199 148T292 109ZM243 601L165 628Q190 685 220 713T288 742Q310 742 330 733T369 712T404 692T435 682Q449 682 459 693T484 735L561 709Q537 652
507 624T438 595Q414 595 394 604T357 624T323 645T291 654Q278 654 267 642T243 601Z" />
<glyph unicode="&#xf6;" glyph-name="odieresis" horiz-adv-x="607" d="M30 241Q30 300 53 353T115 445T208 508T321 531Q375 531 422 512T504 460T557 380T577 281Q577 222 554 169T491 77T398 14T286 -10Q232 -10 185 9T103 61T50 141T30 241ZM292 109Q323 109
351 122T400 157T433 210T445 275Q445 334 408 373T314 412Q283 412 255 399T207 364T174 311T162 247Q162 187 199 148T292 109ZM502 602Q474 602 456 620T437 666Q437 698 461 722T520 747Q547 747 565 729T583 683Q583 651 559 627T502 602ZM716 602Q688 602
670 620T651 666Q651 698 675 722T734 747Q761 747 779 729T797 683Q797 651 773 627T716 602Z" />
<glyph unicode="&#xf7;" glyph-name="divide" horiz-adv-x="539" d="M328 499Q297 499 277 519T257 570Q257 606 283 633T347 660Q377 660 397 640T417 589Q417 554 391 527T328 499ZM55 306L77 412H526L503 306H55ZM235 58Q204 58 184 78T164 128Q164 164 190
191T254 219Q285 219 304 199T324 148Q324 113 298 86T235 58Z" />
<glyph unicode="&#xf8;" glyph-name="oslash" horiz-adv-x="607" d="M-9 0L80 89Q56 120 43 159T30 241Q30 300 53 353T115 445T208 508T321 531Q365 531 404 518T476 483L514 521H615L527 433Q551 402 564 363T577 281Q577 222 554 169T491 77T398 14T286 -10Q241
-10 202 3T130 39L91 0H-9ZM162 247Q162 230 165 214T175 183L385 392Q370 402 352 407T314 412Q283 412 255 399T207 364T174 311T162 247ZM292 109Q323 109 351 122T400 157T433 210T445 275Q445 292 442 308T431 339L221 129Q236 119 254 114T292 109Z" />
<glyph unicode="&#xf9;" glyph-name="ugrave" horiz-adv-x="582" d="M238 521L175 223Q164 172 188 140T263 108Q294 108 321 120T372 155L449 521H584L473 0H339L347 37Q316 15 280 4T205 -8Q159 -8 123 8T65 54T36 123T38 210L104 521H238ZM324 738L410 608H302L170
738H324Z" />
<glyph unicode="&#xfa;" glyph-name="uacute" horiz-adv-x="582" d="M238 521L175 223Q164 172 188 140T263 108Q294 108 321 120T372 155L449 521H584L473 0H339L347 37Q316 15 280 4T205 -8Q159 -8 123 8T65 54T36 123T38 210L104 521H238ZM402 738H557L397
608H285L402 738Z" />
<glyph unicode="&#xfb;" glyph-name="ucircumflex" horiz-adv-x="582" d="M238 521L175 223Q164 172 188 140T263 108Q294 108 321 120T372 155L449 521H584L473 0H339L347 37Q316 15 280 4T205 -8Q159 -8 123 8T65 54T36 123T38 210L104 521H238ZM429 605L373
679L285 605H172L314 741H451L535 605H429Z" />
<glyph unicode="&#xfc;" glyph-name="udieresis" horiz-adv-x="582" d="M238 521L175 223Q164 172 188 140T263 108Q294 108 321 120T372 155L449 521H584L473 0H339L347 37Q316 15 280 4T205 -8Q159 -8 123 8T65 54T36 123T38 210L104 521H238ZM510 602Q482 602
464 620T445 666Q445 698 469 722T528 747Q555 747 573 729T591 683Q591 651 567 627T510 602ZM724 602Q696 602 678 620T659 666Q659 698 683 722T742 747Q769 747 787 729T805 683Q805 651 781 627T724 602Z" />
<glyph unicode="&#xfd;" glyph-name="yacute" horiz-adv-x="565" d="M128 -25L145 1L55 521H198L252 154L476 521H623L256 -62Q206 -141 151 -176T23 -212Q1 -212 -18 -209T-56 -202L-32 -85Q-22 -88 -10 -89T17 -91Q52 -91 79 -75T128 -25ZM398 738H553L393 608H281L398
738Z" />
<glyph unicode="&#xfe;" glyph-name="thorn" horiz-adv-x="619" d="M-47 -209L147 700L287 730L237 496Q265 512 295 520T357 528Q406 528 449 510T522 459T571 383T589 287Q589 226 566 173T504 79T412 16T299 -7Q253 -7 213 8T142 51L87 -209H-47ZM322 412Q291
412 263 402T211 372L167 169Q187 142 221 126T294 110Q363 110 410 158T458 275Q458 333 420 372T322 412Z" />
<glyph unicode="&#xff;" glyph-name="ydieresis" horiz-adv-x="565" d="M128 -25L145 1L55 521H198L252 154L476 521H623L256 -62Q206 -141 151 -176T23 -212Q1 -212 -18 -209T-56 -202L-32 -85Q-22 -88 -10 -89T17 -91Q52 -91 79 -75T128 -25ZM505 602Q477 602
459 620T440 666Q440 698 464 722T523 747Q550 747 568 729T586 683Q586 651 562 627T505 602ZM719 602Q691 602 673 620T654 666Q654 698 678 722T737 747Q764 747 782 729T800 683Q800 651 776 627T719 602Z" />
<glyph unicode="&#x2013;" glyph-name="endash" horiz-adv-x="547" d="M58 343H525L500 227H33L58 343Z" />
<glyph unicode="&#x2014;" glyph-name="emdash" horiz-adv-x="695" d="M58 343H672L647 227H33L58 343Z" />
<glyph unicode="&#x2018;" glyph-name="quoteleft" horiz-adv-x="241" d="M206 478H67L228 741H330L206 478Z" />
<glyph unicode="&#x2019;" glyph-name="quoteright" horiz-adv-x="241" d="M198 741H337L176 478H74L198 741Z" />
<glyph unicode="&#x201a;" glyph-name="quotesinglbase" horiz-adv-x="241" d="M34 112H173L12 -151H-90L34 112Z" />
<glyph unicode="&#x201c;" glyph-name="quotedblleft" horiz-adv-x="433" d="M202 478H63L224 741H326L202 478ZM394 478H255L416 741H518L394 478Z" />
<glyph unicode="&#x201d;" glyph-name="quotedblright" horiz-adv-x="433" d="M390 741H529L368 478H266L390 741ZM198 741H337L176 478H74L198 741Z" />
<glyph unicode="&#x201e;" glyph-name="quotedblbase" horiz-adv-x="433" d="M226 112H365L204 -151H102L226 112ZM34 112H173L12 -151H-90L34 112Z" />
<glyph unicode="&#x2022;" glyph-name="bullet" horiz-adv-x="348" d="M176 217Q133 217 104 246T74 317Q74 370 112 408T204 447Q247 447 276 418T305 346Q305 295 266 256T176 217Z" />
<glyph unicode="&#x2039;" glyph-name="guilsinglleft" horiz-adv-x="423" d="M451 521L162 259L338 0H201L18 260L312 521H451Z" />
<glyph unicode="&#x203a;" glyph-name="guilsinglright" horiz-adv-x="431" d="M-20 0L269 262L93 521H230L413 261L119 0H-20Z" />
</font>
</defs>
</svg>
