<?xml version="1.0" standalone="no"?>
<!DOCTYPE svg PUBLIC "-//W3C//DTD SVG 1.1//EN" "http://www.w3.org/Graphics/SVG/1.1/DTD/svg11.dtd">
<svg xmlns="http://www.w3.org/2000/svg">
<defs >
<font id="RedHatDisplay" horiz-adv-x="536" ><font-face
    font-family="Red Hat Display Medium"
    units-per-em="1000"
    panose-1="2 1 6 3 4 2 1 13 3 3"
    ascent="1018"
    descent="-305"
    alphabetic="0" />
<glyph unicode=" " glyph-name="space" horiz-adv-x="209" />
<glyph unicode="!" glyph-name="exclam" horiz-adv-x="211" d="M56 200L155 725H256L132 200H56ZM56 -8Q32 -8 16 8T0 48Q0 76 21 97T71 119Q94 119 109 103T125 63Q125 35 104 14T56 -8Z" />
<glyph unicode="&quot;" glyph-name="quotedbl" horiz-adv-x="365" d="M113 467L151 703H248L184 467H113ZM264 467L302 703H399L335 467H264Z" />
<glyph unicode="#" glyph-name="numbersign" horiz-adv-x="696" d="M7 0L110 209H7L22 283H146L213 417H100L116 491H249L352 700H442L339 491H513L616 700H705L602 491H705L690 417H566L500 283H612L596 209H464L361 0H271L374 209H200L97 0H7ZM236 283H410L477
417H303L236 283Z" />
<glyph unicode="$" glyph-name="dollar" horiz-adv-x="569" d="M181 -75L202 23Q139 33 86 65T-10 148L57 213Q91 170 132 143T219 105L264 318L220 330Q148 349 112 388T76 487Q76 577 144 631T326 685H342L358 759H414L397 678Q451 668 502 643T594 581L531
512Q496 544 458 565T379 596L337 396L365 389Q453 365 493 326T533 227Q533 133 460 75T268 17H257L237 -75H181ZM263 411L283 405L325 603H315Q249 603 209 575T169 499Q169 466 191 445T263 411ZM326 305L318 307L274 99Q347 99 392 131T438 213Q438 246 414
266T326 305Z" />
<glyph unicode="%" glyph-name="percent" horiz-adv-x="778" d="M208 345Q149 345 114 383T78 484Q78 530 92 570T130 640T187 687T257 705Q316 705 351 667T387 566Q387 521 373 481T335 410T278 363T208 345ZM215 402Q260 402 292 449T324 563Q324 603 304 626T250
649Q228 649 208 636T174 601T150 550T141 488Q141 448 161 425T215 402ZM176 0H102L637 700H713L176 0ZM560 -5Q501 -5 466 33T430 134Q430 180 444 220T482 290T539 337T609 355Q668 355 703 317T739 216Q739 171 725 131T687 60T630 13T560 -5ZM567 52Q612 52
644 99T676 213Q676 253 656 276T602 299Q580 299 560 286T526 251T502 200T493 138Q493 98 513 75T567 52Z" />
<glyph unicode="&amp;" glyph-name="ampersand" horiz-adv-x="652" d="M601 56L535 -13Q514 4 493 23T450 65Q404 29 350 10T239 -9Q138 -9 76 40T13 171Q13 240 54 291T182 384L203 394Q185 428 178 458T170 519Q170 600 225 654T364 708Q433 708 477 671T521
574Q521 520 487 477T381 397L325 369Q354 325 389 280T461 193Q489 227 513 269T557 361L641 339Q614 276 583 225T517 134Q538 112 559 93T601 56ZM260 529Q260 507 266 484T289 432L345 459Q388 481 408 506T429 563Q429 594 410 613T356 632Q314 632 287 603T260
529ZM107 186Q107 135 146 103T249 71Q288 71 325 84T396 123Q353 171 314 224T241 330L221 321Q163 294 135 261T107 186Z" />
<glyph unicode="&apos;" glyph-name="quotesingle" horiz-adv-x="211" d="M113 467L151 703H248L184 467H113Z" />
<glyph unicode="(" glyph-name="parenleft" horiz-adv-x="391" d="M45 141Q45 233 70 319T141 480T254 613T401 711L441 642Q373 610 317 559T222 443T161 303T139 150Q139 53 174 -25T275 -155L210 -214Q129 -152 87 -62T45 141Z" />
<glyph unicode=")" glyph-name="parenright" horiz-adv-x="391" d="M346 357Q346 265 321 179T250 18T137 -115T-10 -213L-50 -144Q18 -112 74 -61T169 55T230 195T252 348Q252 445 217 523T116 653L181 712Q262 650 304 560T346 357Z" />
<glyph unicode="*" glyph-name="asterisk" horiz-adv-x="449" d="M394 382L300 459L274 331H207L236 461L114 398L88 459L220 522L120 600L166 652L261 575L286 700H352L324 573L445 635L472 575L341 512L442 436L394 382Z" />
<glyph unicode="+" glyph-name="plus" horiz-adv-x="525" d="M277 139H198L236 318H64L81 398H253L291 574H370L332 398H505L488 318H315L277 139Z" />
<glyph unicode="," glyph-name="comma" horiz-adv-x="211" d="M35 90H139L0 -143H-76L35 90Z" />
<glyph unicode="-" glyph-name="hyphen" horiz-adv-x="443" d="M60 326H413L395 240H41L60 326Z" />
<glyph unicode="." glyph-name="period" horiz-adv-x="211" d="M71 119Q94 119 109 103T125 63Q125 35 104 14T56 -8Q32 -8 16 8T0 48Q0 76 21 97T71 119Z" />
<glyph unicode="/" glyph-name="slash" horiz-adv-x="475" d="M-166 -207L440 700H544L-62 -207H-166Z" />
<glyph unicode="0" glyph-name="zero" horiz-adv-x="662" d="M304 -9Q191 -9 122 66T53 265Q53 355 80 436T155 578T265 674T398 710Q511 710 580 635T650 435Q650 345 623 264T548 123T437 27T304 -9ZM315 78Q363 78 406 106T482 183T534 295T553 432Q553 521
509 572T388 623Q339 623 296 595T220 518T168 405T149 268Q149 180 193 129T315 78Z" />
<glyph unicode="1" glyph-name="one" horiz-adv-x="308" d="M340 700L191 0H93L220 597L85 544L104 632L278 700H340Z" />
<glyph unicode="2" glyph-name="two" horiz-adv-x="544" d="M-17 0L-2 71L348 347Q406 393 432 433T459 515Q459 563 422 593T327 623Q283 623 239 605T137 547L95 617Q160 663 222 685T344 708Q438 708 498 658T558 530Q558 466 523 411T407 293L140 84H475L458 0H-17Z" />
<glyph unicode="3" glyph-name="three" horiz-adv-x="585" d="M527 205Q527 160 506 121T448 53T362 8T255 -9Q168 -9 101 21T-9 112L66 170Q100 123 148 100T261 77Q332 77 380 113T429 203Q429 251 392 280T295 309H235L252 390H304Q375 390 423 426T471 515Q471
561 434 591T338 621Q289 621 245 604T154 551L102 618Q159 662 222 685T351 708Q447 708 509 658T572 530Q572 468 531 420T423 348Q472 328 499 291T527 205Z" />
<glyph unicode="4" glyph-name="four" horiz-adv-x="628" d="M607 700L514 262H598L580 177H496L458 0H361L398 177H9L26 257L498 700H607ZM145 262H416L484 581L145 262Z" />
<glyph unicode="5" glyph-name="five" horiz-adv-x="571" d="M84 360L170 700H592L574 615H234L185 421Q213 428 241 432T297 436Q401 436 465 383T530 242Q530 190 508 144T448 65T359 11T248 -9Q170 -9 104 20T-6 103L64 166Q104 119 150 97T253 75Q328 75 378
119T429 230Q429 288 385 322T266 357Q236 357 204 352T139 336L84 360Z" />
<glyph unicode="6" glyph-name="six" horiz-adv-x="612" d="M301 -9Q188 -9 120 66T52 264Q52 354 83 435T166 576T290 671T441 707Q494 707 544 689T632 639L566 570Q537 594 501 607T427 620Q379 620 336 600T257 546T197 463T159 358Q202 395 253 415T358 435Q451
435 511 380T571 241Q571 190 550 145T491 65T405 11T301 -9ZM149 259Q149 175 192 126T307 77Q341 77 371 89T424 121T460 170T474 229Q474 285 434 321T332 357Q284 357 237 337T149 278V259Z" />
<glyph unicode="7" glyph-name="seven" horiz-adv-x="563" d="M36 0L506 613H93L111 700H640L624 625L157 0H36Z" />
<glyph unicode="8" glyph-name="eight" horiz-adv-x="610" d="M277 -10Q222 -10 176 3T96 41T45 100T26 174Q26 243 75 298T199 374Q162 396 142 430T121 506Q121 548 141 585T196 650T278 694T378 710Q426 710 467 697T537 661T583 606T600 537Q600 477 560 428T456
356Q503 334 530 295T558 208Q558 163 536 123T477 54T388 7T277 -10ZM350 404Q413 404 458 440T503 527Q503 571 465 600T370 630Q307 630 262 594T216 507Q216 463 254 434T350 404ZM283 71Q319 71 351 82T408 111T447 155T461 208Q461 258 416 291T302 325Q266
325 234 315T178 286T140 242T126 189Q126 138 170 105T283 71Z" />
<glyph unicode="9" glyph-name="nine" horiz-adv-x="613" d="M351 707Q464 707 532 632T600 434Q600 344 569 263T486 122T362 27T211 -9Q158 -9 108 9T20 59L86 128Q115 104 151 91T225 78Q273 78 316 98T395 152T455 235T493 340Q450 303 399 283T294 263Q201
263 141 318T81 457Q81 508 102 553T161 633T247 687T351 707ZM503 439Q503 523 460 572T345 621Q311 621 281 609T228 577T192 528T178 469Q178 413 218 377T320 341Q368 341 415 361T503 420V439Z" />
<glyph unicode=":" glyph-name="colon" horiz-adv-x="216" d="M72 119Q95 119 110 103T126 63Q126 35 105 14T57 -8Q33 -8 17 8T1 48Q1 76 22 97T72 119ZM155 519Q178 519 193 503T209 463Q209 435 188 414T140 392Q116 392 100 408T84 448Q84 476 105 497T155 519Z" />
<glyph unicode=";" glyph-name="semicolon" horiz-adv-x="219" d="M288 90H392L253 -143H177L288 90ZM159 519Q182 519 197 503T213 463Q213 435 192 414T144 392Q120 392 104 408T88 448Q88 476 109 497T159 519Z" />
<glyph unicode="&lt;" glyph-name="less" horiz-adv-x="515" d="M347 85L80 349L458 611L497 547L197 345L409 144L347 85Z" />
<glyph unicode="=" glyph-name="equal" horiz-adv-x="526" d="M742 564L725 484H301L318 564H742ZM523 482L506 402H82L99 482H523Z" />
<glyph unicode="&gt;" glyph-name="greater" horiz-adv-x="515" d="M208 612L475 348L97 86L58 150L358 352L146 553L208 612Z" />
<glyph unicode="?" glyph-name="question" horiz-adv-x="504" d="M389 359L337 329Q298 307 279 278T252 203H169Q179 273 206 315T287 389L350 426Q389 448 410 477T432 536Q432 574 399 597T314 621Q270 621 228 601T152 543L85 589Q133 645 196 676T327 708Q416
708 473 664T530 550Q530 493 496 448T389 359ZM188 119Q212 119 227 103T243 63Q243 35 222 14T174 -8Q150 -8 134 8T118 48Q118 76 139 97T188 119Z" />
<glyph unicode="@" glyph-name="at" horiz-adv-x="774" d="M348 50Q287 50 246 94T204 202Q204 239 217 272T254 329T309 368T377 382Q405 382 430 373T474 345L479 368H549L508 172Q501 140 514 123T559 105Q609 105 642 151T676 269Q676 324 655 371T596 454T507
508T395 528Q331 528 276 504T180 437T116 336T93 211Q93 145 116 90T179 -6T277 -69T401 -92Q447 -92 489 -82T569 -52L590 -99Q545 -121 498 -132T399 -144Q321 -144 255 -118T140 -44T64 67T36 207Q36 286 63 354T139 472T253 549T397 578Q468 578 529 555T635
490T706 393T732 272Q732 225 719 185T681 115T623 69T550 52Q516 52 492 63T454 93Q429 72 402 61T348 50ZM272 208Q272 164 298 136T364 108Q384 108 403 116T438 139Q437 148 438 158T441 180L461 280Q448 299 426 310T377 322Q334 322 303 288T272 208Z" />
<glyph unicode="A" glyph-name="A" horiz-adv-x="687" d="M-53 0L376 700H498L633 0H526L489 205H182L60 0H-53ZM234 292H473L418 600L234 292Z" />
<glyph unicode="B" glyph-name="B" horiz-adv-x="658" d="M165 700H442Q534 700 588 657T642 539Q642 479 608 431T517 357Q560 337 584 302T608 221Q608 173 588 133T534 63T451 17T345 0H16L165 700ZM426 611H248L204 403H396Q458 403 498 436T538 522Q538 564
508 587T426 611ZM347 89Q416 89 460 126T504 220Q504 266 471 292T379 319H186L137 89H347Z" />
<glyph unicode="C" glyph-name="C" horiz-adv-x="709" d="M404 85Q461 85 516 107T615 171L671 100Q614 48 541 19T394 -11Q323 -11 262 14T156 84T86 189T60 320Q60 399 90 470T173 594T295 678T444 709Q534 709 605 675T722 577L643 508Q611 558 558 585T439
613Q382 613 332 591T245 529T187 437T165 324Q165 273 183 229T232 153T308 103T404 85Z" />
<glyph unicode="D" glyph-name="D" horiz-adv-x="713" d="M16 0L165 700H375Q446 700 505 677T607 614T672 516T696 390Q696 310 664 239T576 115T447 31T289 0H16ZM367 606H247L138 94H300Q360 94 413 117T504 179T566 271T589 384Q589 483 528 544T367 606Z" />
<glyph unicode="E" glyph-name="E" horiz-adv-x="616" d="M16 0L165 700H670L651 608H247L203 398H467L448 308H184L138 92H545L525 0H16Z" />
<glyph unicode="F" glyph-name="F" horiz-adv-x="609" d="M16 0L165 700H672L652 608H247L202 393H468L449 303H182L118 0H16Z" />
<glyph unicode="G" glyph-name="G" horiz-adv-x="776" d="M750 318Q738 246 705 186T624 81T515 13T387 -12Q317 -12 257 13T152 82T82 186T57 316Q57 396 88 468T172 593T295 678T445 710Q532 710 605 674T725 573L645 505Q612 556 557 584T437 613Q380 613 330
590T243 528T184 435T162 321Q162 270 179 227T228 152T302 102T395 84Q483 84 550 140T637 286H408L425 377H760L750 318Z" />
<glyph unicode="H" glyph-name="H" horiz-adv-x="710" d="M16 0L165 700H267L203 400H568L632 700H735L586 0H483L548 305H183L118 0H16Z" />
<glyph unicode="I" glyph-name="I" horiz-adv-x="243" d="M16 0L165 700H267L118 0H16Z" />
<glyph unicode="J" glyph-name="J" horiz-adv-x="605" d="M547 254Q520 129 443 60T254 -10Q157 -10 93 41T12 185L106 219Q119 152 156 119T253 85Q325 85 377 134T447 268L539 700H643L547 254Z" />
<glyph unicode="K" glyph-name="K" horiz-adv-x="636" d="M16 0L165 700H267L200 385L595 700H732L302 360L588 0H456L190 341L118 0H16Z" />
<glyph unicode="L" glyph-name="L" horiz-adv-x="602" d="M16 0L165 700H267L138 93H533L513 0H16Z" />
<glyph unicode="M" glyph-name="M" horiz-adv-x="844" d="M380 50L234 572L113 0H16L165 700H298L419 252L728 700H869L720 0H625L745 569L380 50Z" />
<glyph unicode="N" glyph-name="N" horiz-adv-x="720" d="M165 700H263L535 169L647 700H744L595 0H507L228 545L113 0H16L165 700Z" />
<glyph unicode="O" glyph-name="O" horiz-adv-x="795" d="M775 380Q775 300 745 229T662 104T540 20T391 -11Q320 -11 259 14T154 84T85 188T59 320Q59 400 89 471T172 596T294 680T442 711Q513 711 574 686T679 616T749 512T775 380ZM671 374Q671 425 653 469T604
545T530 595T436 614Q380 614 330 591T243 529T185 438T163 326Q163 275 181 231T230 155T304 105T398 86Q454 86 504 109T591 171T649 262T671 374Z" />
<glyph unicode="P" glyph-name="P" horiz-adv-x="648" d="M16 0L165 700H456Q549 700 605 650T662 515Q662 465 643 423T590 349T510 300T409 282H178L118 0H16ZM440 608H247L197 371H408Q474 371 516 409T559 507Q559 554 527 581T440 608Z" />
<glyph unicode="Q" glyph-name="Q" horiz-adv-x="795" d="M775 380Q775 290 737 211T634 78L688 -13L589 -23L558 29Q521 10 479 0T391 -11Q320 -11 259 14T154 84T85 188T59 320Q59 400 89 471T172 596T294 680T442 711Q513 711 574 686T679 616T749 512T775
380ZM537 240L583 163Q623 203 647 257T671 374Q671 425 653 469T604 545T530 595T436 614Q380 614 330 591T243 529T185 438T163 326Q163 275 181 231T230 155T304 105T398 86Q428 86 456 92T509 111L439 230L537 240Z" />
<glyph unicode="R" glyph-name="R" horiz-adv-x="646" d="M16 0L165 700H456Q549 700 605 650T661 517Q661 434 609 374T473 295L574 0H466L371 288H179L118 0H16ZM439 608H247L198 375H407Q473 375 515 413T557 508Q557 554 525 581T439 608Z" />
<glyph unicode="S" glyph-name="S" horiz-adv-x="602" d="M-5 137L67 206Q116 143 176 111T305 78Q378 78 424 111T470 198Q470 237 441 261T346 302L236 331Q155 352 114 396T73 504Q73 598 142 653T328 709Q406 709 481 679T614 594L548 519Q496 569 438 595T319
621Q252 621 212 593T172 516Q172 480 198 457T282 418L388 392Q482 369 527 325T572 213Q572 112 497 51T298 -10Q206 -10 128 28T-5 137Z" />
<glyph unicode="T" glyph-name="T" horiz-adv-x="619" d="M91 607L112 700H696L676 607H435L306 0H203L332 607H91Z" />
<glyph unicode="U" glyph-name="U" horiz-adv-x="698" d="M646 285Q616 144 531 67T323 -10Q252 -10 198 14T110 80T66 182T70 313L152 700H255L171 305Q150 209 194 148T328 86Q409 86 467 141T545 292L632 700H735L646 285Z" />
<glyph unicode="V" glyph-name="V" horiz-adv-x="687" d="M230 0L95 700H202L310 102L670 700H781L352 0H230Z" />
<glyph unicode="W" glyph-name="W" horiz-adv-x="890" d="M232 0H126L125 700H227L221 167L489 700H587L628 165L849 700H954L656 0H549L508 550L232 0Z" />
<glyph unicode="X" glyph-name="X" horiz-adv-x="650" d="M71 0H-55L289 366L117 700H233L364 441L604 700H730L408 359L594 0H478L334 284L71 0Z" />
<glyph unicode="Y" glyph-name="Y" horiz-adv-x="653" d="M220 0L279 278L94 700H203L346 371L626 700H749L382 275L323 0H220Z" />
<glyph unicode="Z" glyph-name="Z" horiz-adv-x="597" d="M-32 0L-16 73L503 608H101L120 700H664L647 627L128 92H541L521 0H-32Z" />
<glyph unicode="[" glyph-name="bracketleft" horiz-adv-x="359" d="M223 -209H-44L150 700H416L399 620H227L67 -130H240L223 -209Z" />
<glyph unicode="\" glyph-name="backslash" horiz-adv-x="438" d="M422 -207H325L104 700H201L422 -207Z" />
<glyph unicode="]" glyph-name="bracketright" horiz-adv-x="359" d="M132 700H399L205 -209H-61L-44 -129H128L288 621H115L132 700Z" />
<glyph unicode="^" glyph-name="asciicircum" horiz-adv-x="532" d="M62 350L318 700H403L510 350H427L345 618L149 350H62Z" />
<glyph unicode="_" glyph-name="underscore" horiz-adv-x="477" d="M406 -80L391 -153H-88L-72 -80H406Z" />
<glyph unicode="`" glyph-name="grave" horiz-adv-x="508" d="M293 725L382 603H300L175 725H293Z" />
<glyph unicode="a" glyph-name="a" horiz-adv-x="522" d="M187 -7Q108 -7 61 32T13 135Q13 211 70 256T223 302Q264 302 303 293T376 267L386 312Q399 373 370 404T272 435Q241 435 206 427T124 399L98 475Q152 497 200 507T291 518Q400 518 451 464T482 315L415
0H319L327 37Q294 15 260 4T187 -7ZM106 144Q106 108 135 88T216 67Q250 67 282 77T342 108L361 196Q334 215 301 224T227 234Q173 234 140 209T106 144Z" />
<glyph unicode="b" glyph-name="b" horiz-adv-x="595" d="M560 282Q560 222 538 169T478 77T388 15T278 -8Q229 -8 187 9T114 59L101 0H5L154 700L256 722L204 478Q234 497 267 506T334 516Q382 516 423 498T495 449T543 375T560 282ZM311 430Q275 430 243 418T184
382L135 149Q154 118 192 99T275 79Q315 79 349 94T409 135T449 197T464 273Q464 341 421 385T311 430Z" />
<glyph unicode="c" glyph-name="c" horiz-adv-x="509" d="M277 78Q311 78 344 91T410 131L459 63Q416 27 367 9T266 -10Q216 -10 173 7T99 56T50 131T32 225Q32 285 54 338T115 431T205 494T314 518Q374 518 428 491T515 418L446 355Q420 392 386 410T311 429Q274
429 241 413T184 370T145 307T130 230Q130 165 172 122T277 78Z" />
<glyph unicode="d" glyph-name="d" horiz-adv-x="595" d="M385 0L392 31Q362 12 329 2T260 -8Q212 -8 171 10T100 59T52 134T35 227Q35 287 57 340T117 431T206 493T316 516Q365 516 407 500T481 453L533 700L635 722L482 0H385ZM131 235Q131 167 174 123T284
78Q320 78 352 90T411 126L461 361Q441 392 403 411T320 430Q281 430 247 415T187 373T146 311T131 235Z" />
<glyph unicode="e" glyph-name="e" horiz-adv-x="562" d="M470 49Q426 18 381 4T285 -10Q231 -10 185 8T105 58T53 134T34 231Q34 289 55 341T113 432T199 494T305 517Q353 517 394 499T464 449T510 372T527 275Q527 265 527 254T524 223H130Q135 159 180 117T291
75Q326 75 359 85T417 115L470 49ZM298 432Q242 432 198 394T138 297H435Q429 356 391 394T298 432Z" />
<glyph unicode="f" glyph-name="f" horiz-adv-x="389" d="M71 509H185L204 597Q220 671 267 710T389 750Q411 750 434 746T473 735L456 649Q440 656 424 659T388 662Q351 662 330 645T300 588L283 509H426L408 425H265L175 0H77L167 425H53L71 509Z" />
<glyph unicode="g" glyph-name="g" horiz-adv-x="596" d="M260 -5Q212 -5 171 12T100 61T53 135T36 228Q36 287 58 340T118 432T207 493T316 516Q365 516 407 500T480 453L492 509H589L477 -30Q458 -118 400 -165T251 -213Q193 -213 132 -194T26 -140L74 -66Q117
-96 161 -111T248 -127Q302 -127 335 -100T380 -20L391 33Q361 14 328 5T260 -5ZM132 236Q132 168 175 124T284 79Q319 79 352 91T411 126L460 362Q440 393 402 411T320 430Q281 430 247 415T187 373T147 312T132 236Z" />
<glyph unicode="h" glyph-name="h" horiz-adv-x="557" d="M5 0L154 700L256 722L201 466Q233 491 270 504T348 518Q393 518 428 502T485 458T514 391T512 306L447 0H350L412 295Q425 357 397 394T311 432Q274 432 241 417T181 372L102 0H5Z" />
<glyph unicode="i" glyph-name="i" horiz-adv-x="215" d="M185 591Q162 591 147 607T131 646Q131 674 151 694T199 715Q221 715 237 699T253 660Q253 632 233 612T185 591ZM210 509L102 0H5L113 509H210Z" />
<glyph unicode="j" glyph-name="j" horiz-adv-x="215" d="M185 591Q162 591 147 607T131 646Q131 674 151 694T199 715Q221 715 237 699T253 660Q253 632 233 612T185 591ZM-74 -210Q-89 -210 -107 -207T-138 -200L-121 -121Q-111 -124 -101 -125T-75 -127Q-47
-127 -32 -113T-10 -68L113 509H211L85 -79Q72 -142 31 -176T-74 -210Z" />
<glyph unicode="k" glyph-name="k" horiz-adv-x="515" d="M5 0L154 700L256 722L163 287L445 509H571L251 259L472 0H352L153 238L102 0H5Z" />
<glyph unicode="l" glyph-name="l" horiz-adv-x="215" d="M256 722L102 0H5L154 700L256 722Z" />
<glyph unicode="m" glyph-name="m" horiz-adv-x="861" d="M5 0L113 509H210L200 462Q231 490 266 504T341 518Q392 518 430 494T485 428Q525 473 570 495T666 518Q708 518 741 503T794 460T820 394T817 311L751 0H654L718 303Q730 360 705 396T628 432Q593 432
561 415T498 361Q498 350 497 337T493 311L427 0H329L392 298Q405 358 381 395T303 432Q269 432 238 416T180 369L102 0H5Z" />
<glyph unicode="n" glyph-name="n" horiz-adv-x="557" d="M5 0L113 509H210L201 465Q233 491 270 504T348 518Q393 518 428 502T485 458T514 391T512 306L447 0H350L412 295Q425 357 397 394T311 432Q274 432 241 417T181 372L102 0H5Z" />
<glyph unicode="o" glyph-name="o" horiz-adv-x="591" d="M35 234Q35 292 57 344T117 434T206 496T313 519Q365 519 409 501T486 450T537 373T556 276Q556 218 534 166T474 75T385 13T278 -10Q226 -10 182 8T105 59T54 137T35 234ZM282 78Q318 78 350 93T407 135T446
196T460 271Q460 340 417 385T309 431Q273 431 241 416T184 374T145 313T131 239Q131 170 174 124T282 78Z" />
<glyph unicode="p" glyph-name="p" horiz-adv-x="595" d="M-39 -207L113 509H210L203 478Q233 497 266 506T334 516Q382 516 423 498T495 449T543 375T560 282Q560 222 538 169T478 77T388 15T278 -8Q229 -8 187 9T114 58L58 -207H-39ZM311 430Q275 430 242 418T183
382L134 150Q154 118 192 99T275 79Q315 79 349 94T409 135T449 197T464 273Q464 341 421 385T311 430Z" />
<glyph unicode="q" glyph-name="q" horiz-adv-x="595" d="M260 -8Q212 -8 171 10T100 59T52 134T35 227Q35 287 57 340T117 431T206 493T316 516Q365 516 407 499T481 451L493 509H590L438 -207H341L391 31Q361 12 328 2T260 -8ZM131 235Q131 167 174 123T284
78Q320 78 352 90T411 126L461 361Q440 392 402 411T320 430Q281 430 247 415T187 373T146 311T131 235Z" />
<glyph unicode="r" glyph-name="r" horiz-adv-x="363" d="M4 0L112 509H209L197 451Q225 484 261 502T339 520Q355 520 371 517T396 509L378 419Q368 426 350 429T314 433Q274 433 238 412T175 349L101 0H4Z" />
<glyph unicode="s" glyph-name="s" horiz-adv-x="457" d="M-15 81L45 143Q82 106 124 87T213 68Q262 68 294 89T326 145Q326 169 309 183T255 206L167 226Q104 240 72 273T40 358Q40 430 93 473T233 517Q291 517 345 497T444 438L387 375Q349 407 308 423T227
440Q182 440 155 421T128 368Q128 345 144 331T201 307L289 287Q354 273 386 240T419 156Q419 121 403 90T360 37T294 3T211 -10Q145 -10 84 14T-15 81Z" />
<glyph unicode="t" glyph-name="t" horiz-adv-x="381" d="M97 134L159 425H53L71 509H176L204 639L307 663L274 509H420L402 425H256L198 153Q189 112 205 94T268 76Q282 76 296 78T329 85L311 2Q294 -2 272 -5T229 -8Q151 -8 117 29T97 134Z" />
<glyph unicode="u" glyph-name="u" horiz-adv-x="556" d="M206 509L143 214Q130 153 158 115T245 77Q282 77 315 92T374 138L453 509H551L443 0H345L354 44Q322 18 285 5T207 -9Q162 -9 127 7T71 51T42 119T43 204L108 509H206Z" />
<glyph unicode="v" glyph-name="v" horiz-adv-x="530" d="M163 0L57 509H161L236 128L472 509H581L257 0H163Z" />
<glyph unicode="w" glyph-name="w" horiz-adv-x="717" d="M192 0H98L66 509H158L176 135L369 509H453L488 135L664 509H758L512 0H417L384 374L192 0Z" />
<glyph unicode="x" glyph-name="x" horiz-adv-x="506" d="M-54 0L199 263L68 509H178L269 334L434 509H551L310 259L448 0H340L241 188L63 0H-54Z" />
<glyph unicode="y" glyph-name="y" horiz-adv-x="527" d="M118 -50L150 0L57 509H161L226 114L471 509H579L212 -74Q167 -146 119 -178T8 -210Q-9 -210 -25 -208T-57 -201L-38 -114Q-30 -117 -18 -118T7 -120Q40 -120 67 -103T118 -50Z" />
<glyph unicode="z" glyph-name="z" horiz-adv-x="468" d="M-25 0L-10 74L335 423H67L85 509H485L470 436L123 86H400L382 0H-25Z" />
<glyph unicode="{" glyph-name="braceleft" horiz-adv-x="393" d="M224 81L158 -22Q125 -73 140 -105T200 -137Q216 -137 229 -136T255 -130L256 -205Q234 -210 217 -212T180 -215Q130 -215 97 -198T50 -151T42 -84T75 -4L134 84Q166 133 154 171T90 210H11L27
287H107Q159 287 186 322T203 410L183 510Q175 553 184 589T215 652T271 694T349 710Q374 710 398 705T446 689L414 617Q398 624 382 628T350 632Q307 632 283 602T269 517L290 401Q300 341 263 298T169 245Q222 228 240 183T224 81Z" />
<glyph unicode="|" glyph-name="bar" horiz-adv-x="288" d="M0 -208L193 700H284L91 -208H0Z" />
<glyph unicode="}" glyph-name="braceright" horiz-adv-x="393" d="M165 406L231 509Q264 560 249 592T189 624Q173 624 160 623T134 617L133 692Q155 697 172 699T209 702Q259 702 292 685T339 638T347 571T314 491L255 403Q223 354 235 316T299 277H378L362
200H282Q230 200 203 165T186 77L206 -23Q214 -66 205 -102T174 -165T118 -207T40 -223Q15 -223 -9 -218T-57 -202L-25 -130Q-9 -137 7 -141T39 -145Q82 -145 106 -115T120 -30L99 86Q89 146 126 189T220 242Q167 259 149 304T165 406Z" />
<glyph unicode="~" glyph-name="asciitilde" horiz-adv-x="578" d="M303 428L375 386Q398 373 411 368T436 363Q462 363 482 382T516 442L585 426Q562 358 524 321T436 284Q414 284 391 292T335 319L263 361Q239 374 227 379T202 384Q177 384 157 365T122 306L54
322Q77 390 115 426T202 463Q224 463 248 455T303 428Z" />
<glyph unicode="&#xa0;" glyph-name="nbspace" horiz-adv-x="209" />
<glyph unicode="&#xa1;" glyph-name="exclamdown" horiz-adv-x="210" d="M195 503L96 -22H-5L119 503H195ZM195 711Q219 711 235 695T251 655Q251 627 230 606T180 584Q157 584 142 600T126 640Q126 668 147 689T195 711Z" />
<glyph unicode="&#xa2;" glyph-name="cent" horiz-adv-x="512" d="M184 -110L207 -3Q130 15 81 77T32 225Q32 285 54 338T115 431T205 494T314 518H318L339 619H393L370 512Q414 502 452 477T515 418L446 355Q427 382 403 399T352 424L279 78Q313 78 345 91T410
131L459 63Q416 27 367 9T266 -10H260L239 -110H184ZM130 230Q130 179 156 141T226 87L298 428Q264 425 233 409T180 365T144 303T130 230Z" />
<glyph unicode="&#xa3;" glyph-name="sterling" horiz-adv-x="621" d="M165 30Q119 43 85 32T22 -20L-41 35Q-7 77 31 98T115 120Q133 130 143 149T154 197L156 301H54L69 371H157L159 458Q161 568 227 637T398 707Q495 707 553 657T621 512L535 491Q530 557 494
590T395 624Q330 624 292 581T252 462L250 371H447L432 301H249L248 221Q247 184 235 155T200 107L373 59Q416 47 448 57T508 103L571 52Q525 -6 469 -23T338 -18L165 30Z" />
<glyph unicode="&#xa4;" glyph-name="uni00A4" horiz-adv-x="682" d="M88 57L38 107L132 202Q107 234 93 275T79 362Q79 408 93 448T132 522L38 617L89 669L184 573Q217 598 257 611T342 625Q386 625 426 611T499 572L595 668L644 618L549 523Q574 490 588 449T603
362Q603 316 590 276T551 203L645 107L595 56L499 151Q467 126 427 113T342 99Q296 99 256 113T182 152L88 57ZM342 185Q411 185 459 236T508 362Q508 436 460 487T342 538Q272 538 224 487T175 362Q175 288 223 237T342 185Z" />
<glyph unicode="&#xa5;" glyph-name="yen" horiz-adv-x="656" d="M220 0L252 152H73L86 212H265L279 278L277 282H101L114 342H251L94 700H203L346 371L626 700H749L440 342H575L562 282H388L382 275L368 212H547L534 152H356L323 0H220Z" />
<glyph unicode="&#xa6;" glyph-name="uni00A6" horiz-adv-x="293" d="M199 286H107L196 700H287L199 286ZM3 -208L90 206H182L94 -208H3Z" />
<glyph unicode="&#xa7;" glyph-name="section" horiz-adv-x="559" d="M421 101Q421 34 370 -8T240 -51Q188 -51 136 -33T39 21L90 81Q132 50 171 34T245 18Q284 18 307 38T331 89Q331 109 319 124T279 153L180 201Q119 231 93 261T67 331Q67 388 103 427T202 481Q187
497 180 516T173 557Q173 624 224 667T353 710Q406 710 458 691T555 638L503 577Q462 608 423 624T349 640Q310 640 287 621T263 569Q263 549 275 534T314 505L414 457Q475 427 501 398T527 328Q527 271 491 231T393 176Q407 160 414 142T421 101ZM322 225L326
223Q376 224 409 248T442 309Q442 331 426 349T377 384L271 433L269 434Q218 433 185 410T152 350Q152 327 167 309T217 274L322 225Z" />
<glyph unicode="&#xa8;" glyph-name="dieresis" horiz-adv-x="548" d="M259 602Q237 602 222 617T206 654Q206 679 226 699T272 719Q294 719 309 704T324 667Q324 642 304 622T259 602ZM449 602Q427 602 412 617T397 654Q397 679 416 699T463 719Q485 719 499
704T514 667Q514 642 494 622T449 602Z" />
<glyph unicode="&#xa9;" glyph-name="copyright" horiz-adv-x="784" d="M57 309Q57 390 88 463T172 590T295 676T445 708Q514 708 573 684T676 617T743 516T768 388Q768 307 737 235T653 108T530 22T380 -10Q311 -10 252 14T149 80T82 182T57 309ZM714 383Q714
442 694 492T637 579T550 636T441 657Q375 657 315 630T210 555T139 446T112 315Q112 256 132 206T189 119T275 61T383 40Q450 40 510 68T616 142T687 251T714 383ZM236 326Q236 368 253 406T298 473T363 519T442 536Q486 536 525 516T587 462L533 417Q516 442
491 456T438 471Q386 471 348 429T309 332Q309 288 337 259T409 230Q432 230 455 239T500 265L532 214Q504 191 469 178T399 165Q329 165 283 211T236 326Z" />
<glyph unicode="&#xaa;" glyph-name="ordfeminine" horiz-adv-x="412" d="M202 314Q143 314 107 343T71 421Q71 478 115 512T231 547Q260 547 289 540T344 521L351 553Q360 598 339 620T266 642Q244 642 218 636T155 615L135 677Q176 693 212 701T283 709Q366
709 405 668T429 555L378 319H301L307 346Q282 330 256 322T202 314ZM148 428Q148 402 169 387T227 372Q252 372 275 379T319 402L332 466Q312 479 288 485T235 492Q196 492 172 474T148 428Z" />
<glyph unicode="&#xab;" glyph-name="guillemotleft" horiz-adv-x="631" d="M417 509L133 252L306 0H204L25 255L312 509H417ZM641 509L357 252L530 0H428L249 255L536 509H641Z" />
<glyph unicode="&#xac;" glyph-name="uni00AC" horiz-adv-x="552" d="M61 326H521L452 0H358L409 239H43L61 326Z" />
<glyph unicode="&#xad;" glyph-name="uni00AD" horiz-adv-x="452" d="M60 326H413L395 240H41L60 326Z" />
<glyph unicode="&#xae;" glyph-name="registered" horiz-adv-x="479" d="M275 309Q197 309 147 359T97 487Q97 533 115 574T163 647T233 697T318 716Q395 716 445 666T496 537Q496 491 478 450T430 377T360 328T275 309ZM279 347Q315 347 347 362T402 402T440
462T454 536Q454 599 415 638T314 677Q278 677 246 662T190 622T152 563T138 489Q138 426 177 387T279 347ZM207 419L247 607H319Q346 607 360 593T375 554Q375 535 363 518T332 494L358 419H317L292 488H261L246 419H207ZM309 576H279L267 518H303Q318 518 327
527T336 550Q336 563 330 569T309 576Z" />
<glyph unicode="&#xaf;" glyph-name="overscore" horiz-adv-x="508" d="M496 690L482 622H189L203 690H496Z" />
<glyph unicode="&#xb0;" glyph-name="degree" horiz-adv-x="375" d="M239 421Q184 421 148 457T111 549Q111 581 123 610T157 660T207 695T268 708Q323 708 360 671T397 579Q397 547 384 519T350 469T300 434T239 421ZM243 479Q280 479 308 507T336 573Q336 606
316 627T264 649Q227 649 200 622T172 556Q172 524 192 502T243 479Z" />
<glyph unicode="&#xb1;" glyph-name="plusminus" horiz-adv-x="525" d="M287 183H208L244 352H71L88 432H261L296 598H375L340 432H512L495 352H323L287 183ZM437 79L420 -1H-4L13 79H437Z" />
<glyph unicode="&#xb2;" glyph-name="twosuperior" horiz-adv-x="292" d="M46 350L56 396L225 526Q253 546 265 564T278 601Q278 623 261 636T217 649Q196 649 175 640T125 611L98 657Q130 680 163 692T228 704Q279 704 310 679T342 612Q342 579 324 551T265 491L150
404H304L292 350H46Z" />
<glyph unicode="&#xb3;" glyph-name="threesuperior" horiz-adv-x="313" d="M328 455Q328 409 287 377T187 345Q141 345 106 361T51 408L100 446Q116 423 138 413T191 402Q222 402 243 416T264 453Q264 473 249 485T206 497H175L186 550H211Q242 550 264 565T286
602Q286 621 269 634T227 648Q203 648 182 640T138 613L104 656Q132 680 166 692T236 705Q287 705 319 679T352 612Q352 583 332 559T281 521Q303 511 315 494T328 455Z" />
<glyph unicode="&#xb4;" glyph-name="acute" horiz-adv-x="508" d="M349 725H469L318 603H232L349 725Z" />
<glyph unicode="&#xb5;" glyph-name="uni00B5" horiz-adv-x="567" d="M210 509L146 207Q133 147 160 112T245 77Q286 77 321 94T385 144L463 509H562L454 0H354L365 52Q330 21 288 6T200 -10Q171 -10 147 -3T106 18L58 -207H-41L111 509H210Z" />
<glyph unicode="&#xb6;" glyph-name="paragraph" horiz-adv-x="679" d="M266 0L324 274H298Q205 274 149 325T92 459Q92 511 111 555T163 632T242 682T343 700H693L544 0H459L517 274H409L351 0H266ZM535 356L590 617H482L427 356H535ZM305 356H342L397 617H333Q267
617 225 576T182 470Q182 417 215 387T305 356Z" />
<glyph unicode="&#xb7;" glyph-name="middot" horiz-adv-x="215" d="M122 346Q145 346 160 330T176 290Q176 262 155 241T107 219Q83 219 67 235T51 275Q51 303 72 324T122 346Z" />
<glyph unicode="&#xb8;" glyph-name="cedilla" horiz-adv-x="508" d="M308 -128Q308 -171 272 -201T181 -231Q145 -231 116 -219T65 -182L106 -146Q122 -163 141 -171T183 -180Q211 -180 229 -167T247 -133Q247 -114 232 -104T191 -93H158L204 0H257L230 -52Q267
-56 287 -76T308 -128Z" />
<glyph unicode="&#xb9;" glyph-name="onesuperior" horiz-adv-x="174" d="M243 700L168 350H105L165 634L92 606L105 662L203 700H243Z" />
<glyph unicode="&#xba;" glyph-name="ordmasculine" horiz-adv-x="463" d="M88 495Q88 539 105 578T150 646T217 693T299 710Q377 710 430 657T483 526Q483 482 466 443T421 375T354 328T273 311Q194 311 141 364T88 495ZM405 522Q405 573 374 606T295 639Q243
639 205 598T166 499Q166 449 197 416T277 382Q329 382 367 423T405 522Z" />
<glyph unicode="&#xbb;" glyph-name="guillemotright" horiz-adv-x="631" d="M214 0L498 257L325 509H427L606 254L319 0H214ZM-10 0L274 257L101 509H203L382 254L95 0H-10Z" />
<glyph unicode="&#xbc;" glyph-name="onequarter" horiz-adv-x="629" d="M587 350L542 138H584L572 83H531L513 0H448L466 83H272L283 136L513 350H587ZM358 138H478L508 278L358 138ZM243 700L168 350H105L165 634L92 606L105 662L203 700H243ZM71 0H-3L532 700H608L71
0Z" />
<glyph unicode="&#xbd;" glyph-name="onehalf" horiz-adv-x="660" d="M243 700L168 350H105L165 634L92 606L105 662L203 700H243ZM68 0H-6L529 700H605L68 0ZM334 0L344 46L513 176Q541 196 553 214T566 251Q566 273 549 286T505 299Q484 299 463 290T413 261L386
307Q418 330 451 342T516 354Q567 354 598 329T630 262Q630 229 612 201T553 141L438 54H592L580 0H334Z" />
<glyph unicode="&#xbe;" glyph-name="threequarters" horiz-adv-x="722" d="M328 455Q328 409 287 377T187 345Q141 345 106 361T51 408L100 446Q116 423 138 413T191 402Q222 402 243 416T264 453Q264 473 249 485T206 497H175L186 550H211Q242 550 264 565T286
602Q286 621 269 634T227 648Q203 648 182 640T138 613L104 656Q132 680 166 692T236 705Q287 705 319 679T352 612Q352 583 332 559T281 521Q303 511 315 494T328 455ZM680 350L635 138H677L665 83H624L606 0H541L559 83H365L376 136L606 350H680ZM451 138H571L601
278L451 138ZM164 0H90L625 700H701L164 0Z" />
<glyph unicode="&#xbf;" glyph-name="questiondown" horiz-adv-x="504" d="M156 343L208 373Q247 395 266 424T293 499H376Q366 429 339 387T258 313L195 276Q156 254 135 225T113 166Q113 128 146 105T231 81Q275 81 317 101T393 159L460 113Q412 57 349 26T218
-6Q129 -6 72 38T15 152Q15 209 49 254T156 343ZM357 583Q333 583 318 599T302 639Q302 667 323 688T371 710Q395 710 411 694T427 654Q427 626 406 605T357 583Z" />
<glyph unicode="&#xc0;" glyph-name="Agrave" horiz-adv-x="687" d="M-53 0L376 700H498L633 0H526L489 205H182L60 0H-53ZM234 292H473L418 600L234 292ZM409 916L498 794H416L291 916H409Z" />
<glyph unicode="&#xc1;" glyph-name="Aacute" horiz-adv-x="687" d="M-53 0L376 700H498L633 0H526L489 205H182L60 0H-53ZM234 292H473L418 600L234 292ZM508 916H628L477 794H391L508 916Z" />
<glyph unicode="&#xc2;" glyph-name="Acircumflex" horiz-adv-x="687" d="M-53 0L376 700H498L633 0H526L489 205H182L60 0H-53ZM234 292H473L418 600L234 292ZM531 791L470 869L375 791H293L426 918H529L608 791H531Z" />
<glyph unicode="&#xc3;" glyph-name="Atilde" horiz-adv-x="687" d="M-53 0L376 700H498L633 0H526L489 205H182L60 0H-53ZM234 292H473L418 600L234 292ZM343 791L282 811Q305 862 332 886T393 911Q414 911 433 902T471 882T505 862T536 853Q551 853 562 864T587
906L648 886Q626 835 599 810T537 785Q515 785 496 794T459 814T425 834T393 843Q379 843 367 831T343 791Z" />
<glyph unicode="&#xc4;" glyph-name="Adieresis" horiz-adv-x="687" d="M-53 0L376 700H498L633 0H526L489 205H182L60 0H-53ZM234 292H473L418 600L234 292ZM362 793Q340 793 325 808T309 845Q309 870 329 890T375 910Q397 910 412 895T427 858Q427 833 407 813T362
793ZM552 793Q530 793 515 808T500 845Q500 870 519 890T566 910Q588 910 602 895T617 858Q617 833 597 813T552 793Z" />
<glyph unicode="&#xc5;" glyph-name="Aring" horiz-adv-x="687" d="M-53 0L376 700H498L633 0H526L489 205H182L60 0H-53ZM234 292H473L418 600L234 292ZM458 774Q412 774 383 802T354 876Q354 927 392 966T479 1005Q525 1005 554 976T583 902Q583 851 545 813T458
774ZM461 822Q490 822 511 844T533 898Q533 923 517 939T476 956Q448 956 427 934T405 880Q405 855 420 839T461 822Z" />
<glyph unicode="&#xc6;" glyph-name="AE" horiz-adv-x="946" d="M-53 0L377 700H1004L985 608H521L556 398H807L788 308H572L608 92H875L855 0H521L487 205H180L55 0H-53ZM234 292H473L422 600L234 292Z" />
<glyph unicode="&#xc7;" glyph-name="Ccedilla" horiz-adv-x="709" d="M404 85Q461 85 516 107T615 171L671 100Q617 49 547 20T404 -11L383 -52Q420 -56 440 -76T461 -128Q461 -171 425 -201T334 -231Q298 -231 269 -219T218 -182L259 -146Q275 -163 294 -171T336
-180Q364 -180 382 -167T400 -133Q400 -114 385 -104T344 -93H311L353 -9Q290 -2 236 26T143 97T82 198T60 320Q60 399 90 470T173 594T295 678T444 709Q534 709 605 675T722 577L643 508Q611 558 558 585T439 613Q382 613 332 591T245 529T187 437T165 324Q165
273 183 229T232 153T308 103T404 85Z" />
<glyph unicode="&#xc8;" glyph-name="Egrave" horiz-adv-x="616" d="M16 0L165 700H670L651 608H247L203 398H467L448 308H184L138 92H545L525 0H16ZM390 916L479 794H397L272 916H390Z" />
<glyph unicode="&#xc9;" glyph-name="Eacute" horiz-adv-x="616" d="M16 0L165 700H670L651 608H247L203 398H467L448 308H184L138 92H545L525 0H16ZM489 916H609L458 794H372L489 916Z" />
<glyph unicode="&#xca;" glyph-name="Ecircumflex" horiz-adv-x="616" d="M16 0L165 700H670L651 608H247L203 398H467L448 308H184L138 92H545L525 0H16ZM512 791L451 869L356 791H274L407 918H510L589 791H512Z" />
<glyph unicode="&#xcb;" glyph-name="Edieresis" horiz-adv-x="616" d="M16 0L165 700H670L651 608H247L203 398H467L448 308H184L138 92H545L525 0H16ZM343 793Q321 793 306 808T290 845Q290 870 310 890T356 910Q378 910 393 895T408 858Q408 833 388 813T343
793ZM533 793Q511 793 496 808T481 845Q481 870 500 890T547 910Q569 910 583 895T598 858Q598 833 578 813T533 793Z" />
<glyph unicode="&#xcc;" glyph-name="Igrave" horiz-adv-x="243" d="M16 0L165 700H267L118 0H16ZM194 916L283 794H201L76 916H194Z" />
<glyph unicode="&#xcd;" glyph-name="Iacute" horiz-adv-x="243" d="M16 0L165 700H267L118 0H16ZM293 916H413L262 794H176L293 916Z" />
<glyph unicode="&#xce;" glyph-name="Icircumflex" horiz-adv-x="243" d="M16 0L165 700H267L118 0H16ZM316 791L255 869L160 791H78L211 918H314L393 791H316Z" />
<glyph unicode="&#xcf;" glyph-name="Idieresis" horiz-adv-x="243" d="M16 0L165 700H267L118 0H16ZM147 793Q125 793 110 808T94 845Q94 870 114 890T160 910Q182 910 197 895T212 858Q212 833 192 813T147 793ZM337 793Q315 793 300 808T285 845Q285 870 304
890T351 910Q373 910 387 895T402 858Q402 833 382 813T337 793Z" />
<glyph unicode="&#xd0;" glyph-name="Eth" horiz-adv-x="735" d="M38 0L103 307H21L39 393H122L187 700H397Q468 700 527 677T629 614T694 516T718 390Q718 310 686 239T598 115T469 31T311 0H38ZM389 606H269L224 393H403L385 307H205L160 94H322Q382 94 435
117T526 179T588 271T611 384Q611 483 550 544T389 606Z" />
<glyph unicode="&#xd1;" glyph-name="Ntilde" horiz-adv-x="720" d="M165 700H263L535 169L647 700H744L595 0H507L228 545L113 0H16L165 700ZM366 791L305 811Q328 862 355 886T416 911Q437 911 456 902T494 882T528 862T559 853Q574 853 585 864T610 906L671
886Q649 835 622 810T560 785Q538 785 519 794T482 814T448 834T416 843Q402 843 390 831T366 791Z" />
<glyph unicode="&#xd2;" glyph-name="Ograve" horiz-adv-x="795" d="M775 380Q775 300 745 229T662 104T540 20T391 -11Q320 -11 259 14T154 84T85 188T59 320Q59 400 89 471T172 596T294 680T442 711Q513 711 574 686T679 616T749 512T775 380ZM671 374Q671 425
653 469T604 545T530 595T436 614Q380 614 330 591T243 529T185 438T163 326Q163 275 181 231T230 155T304 105T398 86Q454 86 504 109T591 171T649 262T671 374ZM426 916L515 794H433L308 916H426Z" />
<glyph unicode="&#xd3;" glyph-name="Oacute" horiz-adv-x="795" d="M775 380Q775 300 745 229T662 104T540 20T391 -11Q320 -11 259 14T154 84T85 188T59 320Q59 400 89 471T172 596T294 680T442 711Q513 711 574 686T679 616T749 512T775 380ZM671 374Q671 425
653 469T604 545T530 595T436 614Q380 614 330 591T243 529T185 438T163 326Q163 275 181 231T230 155T304 105T398 86Q454 86 504 109T591 171T649 262T671 374ZM525 916H645L494 794H408L525 916Z" />
<glyph unicode="&#xd4;" glyph-name="Ocircumflex" horiz-adv-x="795" d="M775 380Q775 300 745 229T662 104T540 20T391 -11Q320 -11 259 14T154 84T85 188T59 320Q59 400 89 471T172 596T294 680T442 711Q513 711 574 686T679 616T749 512T775 380ZM671 374Q671
425 653 469T604 545T530 595T436 614Q380 614 330 591T243 529T185 438T163 326Q163 275 181 231T230 155T304 105T398 86Q454 86 504 109T591 171T649 262T671 374ZM547 791L486 869L391 791H309L442 918H545L624 791H547Z" />
<glyph unicode="&#xd5;" glyph-name="Otilde" horiz-adv-x="795" d="M775 380Q775 300 745 229T662 104T540 20T391 -11Q320 -11 259 14T154 84T85 188T59 320Q59 400 89 471T172 596T294 680T442 711Q513 711 574 686T679 616T749 512T775 380ZM671 374Q671 425
653 469T604 545T530 595T436 614Q380 614 330 591T243 529T185 438T163 326Q163 275 181 231T230 155T304 105T398 86Q454 86 504 109T591 171T649 262T671 374ZM359 791L298 811Q321 862 348 886T409 911Q430 911 449 902T487 882T521 862T552 853Q567 853 578
864T603 906L664 886Q642 835 615 810T553 785Q531 785 512 794T475 814T441 834T409 843Q395 843 383 831T359 791Z" />
<glyph unicode="&#xd6;" glyph-name="Odieresis" horiz-adv-x="795" d="M775 380Q775 300 745 229T662 104T540 20T391 -11Q320 -11 259 14T154 84T85 188T59 320Q59 400 89 471T172 596T294 680T442 711Q513 711 574 686T679 616T749 512T775 380ZM671 374Q671
425 653 469T604 545T530 595T436 614Q380 614 330 591T243 529T185 438T163 326Q163 275 181 231T230 155T304 105T398 86Q454 86 504 109T591 171T649 262T671 374ZM379 793Q357 793 342 808T326 845Q326 870 346 890T392 910Q414 910 429 895T444 858Q444 833
424 813T379 793ZM569 793Q547 793 532 808T517 845Q517 870 536 890T583 910Q605 910 619 895T634 858Q634 833 614 813T569 793Z" />
<glyph unicode="&#xd7;" glyph-name="multiply" horiz-adv-x="533" d="M97 152L56 205L240 361L122 517L180 564L297 409L479 564L521 511L337 356L454 201L396 153L280 307L97 152Z" />
<glyph unicode="&#xd8;" glyph-name="Oslash" horiz-adv-x="796" d="M110 0H8L126 116Q95 157 77 209T59 320Q59 400 89 471T172 596T294 680T442 711Q504 711 559 692T657 637L721 700H824L707 585Q739 544 757 492T775 380Q775 300 745 229T662 104T540 20T391
-11Q328 -11 273 9T175 64L110 0ZM163 326Q163 288 173 253T202 190L583 564Q553 588 516 601T436 614Q380 614 330 591T243 529T185 438T163 326ZM671 374Q671 413 661 448T631 511L250 137Q279 113 317 100T398 86Q454 86 504 109T591 171T649 262T671 374Z"
/>
<glyph unicode="&#xd9;" glyph-name="Ugrave" horiz-adv-x="698" d="M646 285Q616 144 531 67T323 -10Q252 -10 198 14T110 80T66 182T70 313L152 700H255L171 305Q150 209 194 148T328 86Q409 86 467 141T545 292L632 700H735L646 285ZM418 916L507 794H425L300
916H418Z" />
<glyph unicode="&#xda;" glyph-name="Uacute" horiz-adv-x="698" d="M646 285Q616 144 531 67T323 -10Q252 -10 198 14T110 80T66 182T70 313L152 700H255L171 305Q150 209 194 148T328 86Q409 86 467 141T545 292L632 700H735L646 285ZM517 916H637L486 794H400L517
916Z" />
<glyph unicode="&#xdb;" glyph-name="Ucircumflex" horiz-adv-x="698" d="M646 285Q616 144 531 67T323 -10Q252 -10 198 14T110 80T66 182T70 313L152 700H255L171 305Q150 209 194 148T328 86Q409 86 467 141T545 292L632 700H735L646 285ZM540 791L479 869L384
791H302L435 918H538L617 791H540Z" />
<glyph unicode="&#xdc;" glyph-name="Udieresis" horiz-adv-x="698" d="M646 285Q616 144 531 67T323 -10Q252 -10 198 14T110 80T66 182T70 313L152 700H255L171 305Q150 209 194 148T328 86Q409 86 467 141T545 292L632 700H735L646 285ZM371 793Q349 793 334
808T318 845Q318 870 338 890T384 910Q406 910 421 895T436 858Q436 833 416 813T371 793ZM561 793Q539 793 524 808T509 845Q509 870 528 890T575 910Q597 910 611 895T626 858Q626 833 606 813T561 793Z" />
<glyph unicode="&#xdd;" glyph-name="Yacute" horiz-adv-x="653" d="M220 0L279 278L94 700H203L346 371L626 700H749L382 275L323 0H220ZM492 916H612L461 794H375L492 916Z" />
<glyph unicode="&#xde;" glyph-name="Thorn" horiz-adv-x="648" d="M16 0L165 700H268L238 560H417Q509 560 564 511T619 378Q619 328 600 285T548 210T469 161T370 143H149L119 0H16ZM399 469H219L168 232H367Q433 232 474 270T515 370Q515 416 484 442T399 469Z" />
<glyph unicode="&#xdf;" glyph-name="germandbls" horiz-adv-x="635" d="M385 352Q385 336 395 325T430 302L501 269Q552 245 575 216T599 147Q599 78 547 33T416 -12Q353 -12 300 14T209 91L273 141Q301 101 337 81T416 61Q459 61 484 82T509 138Q509 159 494
175T445 206L371 239Q331 258 312 282T292 339Q292 391 327 418T405 464T482 504T518 567Q518 604 480 630T387 656Q316 656 271 616T208 497L102 0H5L113 507Q136 618 208 678T389 738Q438 738 479 726T551 693T598 643T615 579Q615 517 579 485T500 433T421 397T385
352Z" />
<glyph unicode="&#xe0;" glyph-name="agrave" horiz-adv-x="522" d="M187 -7Q108 -7 61 32T13 135Q13 211 70 256T223 302Q264 302 303 293T376 267L386 312Q399 373 370 404T272 435Q241 435 206 427T124 399L98 475Q152 497 200 507T291 518Q400 518 451 464T482
315L415 0H319L327 37Q294 15 260 4T187 -7ZM106 144Q106 108 135 88T216 67Q250 67 282 77T342 108L361 196Q334 215 301 224T227 234Q173 234 140 209T106 144ZM526 725L615 603H533L408 725H526Z" />
<glyph unicode="&#xe1;" glyph-name="aacute" horiz-adv-x="522" d="M187 -7Q108 -7 61 32T13 135Q13 211 70 256T223 302Q264 302 303 293T376 267L386 312Q399 373 370 404T272 435Q241 435 206 427T124 399L98 475Q152 497 200 507T291 518Q400 518 451 464T482
315L415 0H319L327 37Q294 15 260 4T187 -7ZM106 144Q106 108 135 88T216 67Q250 67 282 77T342 108L361 196Q334 215 301 224T227 234Q173 234 140 209T106 144ZM369 725H489L338 603H252L369 725Z" />
<glyph unicode="&#xe2;" glyph-name="acircumflex" horiz-adv-x="522" d="M187 -7Q108 -7 61 32T13 135Q13 211 70 256T223 302Q264 302 303 293T376 267L386 312Q399 373 370 404T272 435Q241 435 206 427T124 399L98 475Q152 497 200 507T291 518Q400 518 451
464T482 315L415 0H319L327 37Q294 15 260 4T187 -7ZM106 144Q106 108 135 88T216 67Q250 67 282 77T342 108L361 196Q334 215 301 224T227 234Q173 234 140 209T106 144ZM648 600L587 678L492 600H410L543 727H646L725 600H648Z" />
<glyph unicode="&#xe3;" glyph-name="atilde" horiz-adv-x="522" d="M187 -7Q108 -7 61 32T13 135Q13 211 70 256T223 302Q264 302 303 293T376 267L386 312Q399 373 370 404T272 435Q241 435 206 427T124 399L98 475Q152 497 200 507T291 518Q400 518 451 464T482
315L415 0H319L327 37Q294 15 260 4T187 -7ZM106 144Q106 108 135 88T216 67Q250 67 282 77T342 108L361 196Q334 215 301 224T227 234Q173 234 140 209T106 144ZM459 600L398 620Q421 671 448 695T509 720Q530 720 549 711T587 691T621 671T652 662Q667 662 678
673T703 715L764 695Q742 644 715 619T653 594Q631 594 612 603T575 623T541 643T509 652Q495 652 483 640T459 600Z" />
<glyph unicode="&#xe4;" glyph-name="adieresis" horiz-adv-x="522" d="M187 -7Q108 -7 61 32T13 135Q13 211 70 256T223 302Q264 302 303 293T376 267L386 312Q399 373 370 404T272 435Q241 435 206 427T124 399L98 475Q152 497 200 507T291 518Q400 518 451
464T482 315L415 0H319L327 37Q294 15 260 4T187 -7ZM106 144Q106 108 135 88T216 67Q250 67 282 77T342 108L361 196Q334 215 301 224T227 234Q173 234 140 209T106 144ZM479 602Q457 602 442 617T426 654Q426 679 446 699T492 719Q514 719 529 704T544 667Q544
642 524 622T479 602ZM669 602Q647 602 632 617T617 654Q617 679 636 699T683 719Q705 719 719 704T734 667Q734 642 714 622T669 602Z" />
<glyph unicode="&#xe5;" glyph-name="aring" horiz-adv-x="522" d="M187 -7Q108 -7 61 32T13 135Q13 211 70 256T223 302Q264 302 303 293T376 267L386 312Q399 373 370 404T272 435Q241 435 206 427T124 399L98 475Q152 497 200 507T291 518Q400 518 451 464T482
315L415 0H319L327 37Q294 15 260 4T187 -7ZM106 144Q106 108 135 88T216 67Q250 67 282 77T342 108L361 196Q334 215 301 224T227 234Q173 234 140 209T106 144ZM575 583Q529 583 500 611T471 685Q471 736 509 775T596 814Q642 814 671 785T700 711Q700 660 662
622T575 583ZM578 631Q607 631 628 653T650 707Q650 732 634 748T593 765Q565 765 544 743T522 689Q522 664 537 648T578 631Z" />
<glyph unicode="&#xe6;" glyph-name="ae" horiz-adv-x="887" d="M204 -7Q121 -7 71 33T21 139Q21 214 77 258T226 302Q262 302 297 296T363 276L371 315Q383 373 354 404T258 435Q228 435 194 427T111 399L85 475Q140 497 188 507T280 518Q343 518 386 497T450
438Q487 475 533 496T629 517Q677 517 718 499T788 449T835 372T852 275Q852 265 852 254T848 223H454Q459 159 504 117T615 75Q650 75 683 85T742 115L795 49Q751 18 706 4T610 -10Q547 -10 495 13T410 78Q361 35 311 14T204 -7ZM623 432Q567 432 523 394T462
297H760Q754 356 716 394T623 432ZM114 146Q114 109 143 88T222 67Q264 67 303 83T379 130Q372 146 367 165T361 203Q335 218 302 225T232 233Q181 233 148 209T114 146Z" />
<glyph unicode="&#xe7;" glyph-name="ccedilla" horiz-adv-x="509" d="M277 78Q311 78 344 91T410 131L459 63Q419 30 375 12T285 -9L263 -51Q300 -55 320 -75T341 -127Q341 -170 305 -200T214 -230Q178 -230 149 -218T98 -181L139 -145Q155 -162 174 -170T216
-179Q244 -179 262 -166T280 -132Q280 -113 265 -103T224 -92H191L233 -8Q146 3 89 67T32 225Q32 285 54 338T115 431T205 494T314 518Q374 518 428 491T515 418L446 355Q420 392 386 410T311 429Q274 429 241 413T184 370T145 307T130 230Q130 165 172 122T277
78Z" />
<glyph unicode="&#xe8;" glyph-name="egrave" horiz-adv-x="562" d="M470 49Q426 18 381 4T285 -10Q231 -10 185 8T105 58T53 134T34 231Q34 289 55 341T113 432T199 494T305 517Q353 517 394 499T464 449T510 372T527 275Q527 265 527 254T524 223H130Q135 159
180 117T291 75Q326 75 359 85T417 115L470 49ZM298 432Q242 432 198 394T138 297H435Q429 356 391 394T298 432ZM542 725L631 603H549L424 725H542Z" />
<glyph unicode="&#xe9;" glyph-name="eacute" horiz-adv-x="562" d="M470 49Q426 18 381 4T285 -10Q231 -10 185 8T105 58T53 134T34 231Q34 289 55 341T113 432T199 494T305 517Q353 517 394 499T464 449T510 372T527 275Q527 265 527 254T524 223H130Q135 159
180 117T291 75Q326 75 359 85T417 115L470 49ZM298 432Q242 432 198 394T138 297H435Q429 356 391 394T298 432ZM385 725H505L354 603H268L385 725Z" />
<glyph unicode="&#xea;" glyph-name="ecircumflex" horiz-adv-x="562" d="M470 49Q426 18 381 4T285 -10Q231 -10 185 8T105 58T53 134T34 231Q34 289 55 341T113 432T199 494T305 517Q353 517 394 499T464 449T510 372T527 275Q527 265 527 254T524 223H130Q135
159 180 117T291 75Q326 75 359 85T417 115L470 49ZM298 432Q242 432 198 394T138 297H435Q429 356 391 394T298 432ZM408 600L347 678L252 600H170L303 727H406L485 600H408Z" />
<glyph unicode="&#xeb;" glyph-name="edieresis" horiz-adv-x="562" d="M470 49Q426 18 381 4T285 -10Q231 -10 185 8T105 58T53 134T34 231Q34 289 55 341T113 432T199 494T305 517Q353 517 394 499T464 449T510 372T527 275Q527 265 527 254T524 223H130Q135
159 180 117T291 75Q326 75 359 85T417 115L470 49ZM298 432Q242 432 198 394T138 297H435Q429 356 391 394T298 432ZM495 602Q473 602 458 617T442 654Q442 679 462 699T508 719Q530 719 545 704T560 667Q560 642 540 622T495 602ZM685 602Q663 602 648 617T633
654Q633 679 652 699T699 719Q721 719 735 704T750 667Q750 642 730 622T685 602Z" />
<glyph unicode="&#xec;" glyph-name="igrave" horiz-adv-x="215" d="M210 509L102 0H5L113 509H210ZM139 725L228 603H146L21 725H139Z" />
<glyph unicode="&#xed;" glyph-name="iacute" horiz-adv-x="215" d="M210 509L102 0H5L113 509H210ZM494 725H614L463 603H377L494 725Z" />
<glyph unicode="&#xee;" glyph-name="icircumflex" horiz-adv-x="215" d="M210 509L102 0H5L113 509H210ZM261 600L200 678L105 600H23L156 727H259L338 600H261Z" />
<glyph unicode="&#xef;" glyph-name="idieresis" horiz-adv-x="215" d="M210 509L102 0H5L113 509H210ZM92 602Q70 602 55 617T39 654Q39 679 59 699T105 719Q127 719 142 704T157 667Q157 642 137 622T92 602ZM282 602Q260 602 245 617T230 654Q230 679 249 699T296
719Q318 719 332 704T347 667Q347 642 327 622T282 602Z" />
<glyph unicode="&#xf0;" glyph-name="eth" horiz-adv-x="586" d="M308 525L282 585L368 626Q350 642 329 656T285 681L344 746Q375 730 403 710T453 667L569 722L596 662L496 614Q528 566 544 508T561 382Q561 297 539 225T478 101T383 20T263 -9Q163 -9 99 55T35
219Q35 274 56 323T113 409T198 467T301 489Q358 489 401 465T467 397Q466 446 452 491T412 575L308 525ZM267 80Q302 80 333 95T389 135T427 193T441 263Q441 323 402 364T303 405Q268 405 236 391T180 351T142 293T128 222Q128 160 167 120T267 80Z" />
<glyph unicode="&#xf1;" glyph-name="ntilde" horiz-adv-x="557" d="M5 0L113 509H210L201 465Q233 491 270 504T348 518Q393 518 428 502T485 458T514 391T512 306L447 0H350L412 295Q425 357 397 394T311 432Q274 432 241 417T181 372L102 0H5ZM243 600L182
620Q205 671 232 695T293 720Q314 720 333 711T371 691T405 671T436 662Q451 662 462 673T487 715L548 695Q526 644 499 619T437 594Q415 594 396 603T359 623T325 643T293 652Q279 652 267 640T243 600Z" />
<glyph unicode="&#xf2;" glyph-name="ograve" horiz-adv-x="591" d="M35 234Q35 292 57 344T117 434T206 496T313 519Q365 519 409 501T486 450T537 373T556 276Q556 218 534 166T474 75T385 13T278 -10Q226 -10 182 8T105 59T54 137T35 234ZM282 78Q318 78 350
93T407 135T446 196T460 271Q460 340 417 385T309 431Q273 431 241 416T184 374T145 313T131 239Q131 170 174 124T282 78ZM298 725L387 603H305L180 725H298Z" />
<glyph unicode="&#xf3;" glyph-name="oacute" horiz-adv-x="591" d="M35 234Q35 292 57 344T117 434T206 496T313 519Q365 519 409 501T486 450T537 373T556 276Q556 218 534 166T474 75T385 13T278 -10Q226 -10 182 8T105 59T54 137T35 234ZM282 78Q318 78 350
93T407 135T446 196T460 271Q460 340 417 385T309 431Q273 431 241 416T184 374T145 313T131 239Q131 170 174 124T282 78ZM397 725H517L366 603H280L397 725Z" />
<glyph unicode="&#xf4;" glyph-name="ocircumflex" horiz-adv-x="591" d="M35 234Q35 292 57 344T117 434T206 496T313 519Q365 519 409 501T486 450T537 373T556 276Q556 218 534 166T474 75T385 13T278 -10Q226 -10 182 8T105 59T54 137T35 234ZM282 78Q318
78 350 93T407 135T446 196T460 271Q460 340 417 385T309 431Q273 431 241 416T184 374T145 313T131 239Q131 170 174 124T282 78ZM420 600L359 678L264 600H182L315 727H418L497 600H420Z" />
<glyph unicode="&#xf5;" glyph-name="otilde" horiz-adv-x="591" d="M35 234Q35 292 57 344T117 434T206 496T313 519Q365 519 409 501T486 450T537 373T556 276Q556 218 534 166T474 75T385 13T278 -10Q226 -10 182 8T105 59T54 137T35 234ZM282 78Q318 78 350
93T407 135T446 196T460 271Q460 340 417 385T309 431Q273 431 241 416T184 374T145 313T131 239Q131 170 174 124T282 78ZM232 600L171 620Q194 671 221 695T282 720Q303 720 322 711T360 691T394 671T425 662Q440 662 451 673T476 715L537 695Q515 644 488 619T426
594Q404 594 385 603T348 623T314 643T282 652Q268 652 256 640T232 600Z" />
<glyph unicode="&#xf6;" glyph-name="odieresis" horiz-adv-x="591" d="M35 234Q35 292 57 344T117 434T206 496T313 519Q365 519 409 501T486 450T537 373T556 276Q556 218 534 166T474 75T385 13T278 -10Q226 -10 182 8T105 59T54 137T35 234ZM282 78Q318 78
350 93T407 135T446 196T460 271Q460 340 417 385T309 431Q273 431 241 416T184 374T145 313T131 239Q131 170 174 124T282 78ZM508 602Q486 602 471 617T455 654Q455 679 475 699T521 719Q543 719 558 704T573 667Q573 642 553 622T508 602ZM698 602Q676 602 661
617T646 654Q646 679 665 699T712 719Q734 719 748 704T763 667Q763 642 743 622T698 602Z" />
<glyph unicode="&#xf7;" glyph-name="divide" horiz-adv-x="525" d="M319 496Q296 496 280 512T264 552Q264 580 285 601T334 622Q358 622 373 606T389 566Q389 539 368 518T319 496ZM64 318L81 398H505L488 318H64ZM234 94Q210 94 195 110T179 150Q179 178 200
199T249 220Q273 220 288 204T304 164Q304 137 283 116T234 94Z" />
<glyph unicode="&#xf8;" glyph-name="oslash" horiz-adv-x="591" d="M-4 0L82 85Q60 116 48 153T35 234Q35 292 57 344T117 434T206 496T313 519Q358 519 397 505T468 466L512 509H595L509 424Q531 394 543 357T556 276Q556 218 534 166T474 75T385 13T278 -10Q233
-10 193 4T122 43L78 0H-4ZM131 239Q131 215 136 194T152 154L401 400Q382 415 359 423T309 431Q273 431 241 416T184 374T145 313T131 239ZM282 78Q318 78 350 93T407 135T446 196T460 271Q460 295 455 316T439 355L189 109Q208 94 231 86T282 78Z" />
<glyph unicode="&#xf9;" glyph-name="ugrave" horiz-adv-x="556" d="M206 509L143 214Q130 153 158 115T245 77Q282 77 315 92T374 138L453 509H551L443 0H345L354 44Q322 18 285 5T207 -9Q162 -9 127 7T71 51T42 119T43 204L108 509H206ZM300 725L389 603H307L182
725H300Z" />
<glyph unicode="&#xfa;" glyph-name="uacute" horiz-adv-x="556" d="M206 509L143 214Q130 153 158 115T245 77Q282 77 315 92T374 138L453 509H551L443 0H345L354 44Q322 18 285 5T207 -9Q162 -9 127 7T71 51T42 119T43 204L108 509H206ZM399 725H519L368 603H282L399
725Z" />
<glyph unicode="&#xfb;" glyph-name="ucircumflex" horiz-adv-x="556" d="M206 509L143 214Q130 153 158 115T245 77Q282 77 315 92T374 138L453 509H551L443 0H345L354 44Q322 18 285 5T207 -9Q162 -9 127 7T71 51T42 119T43 204L108 509H206ZM422 600L361 678L266
600H184L317 727H420L499 600H422Z" />
<glyph unicode="&#xfc;" glyph-name="udieresis" horiz-adv-x="556" d="M206 509L143 214Q130 153 158 115T245 77Q282 77 315 92T374 138L453 509H551L443 0H345L354 44Q322 18 285 5T207 -9Q162 -9 127 7T71 51T42 119T43 204L108 509H206ZM509 602Q487 602
472 617T456 654Q456 679 476 699T522 719Q544 719 559 704T574 667Q574 642 554 622T509 602ZM699 602Q677 602 662 617T647 654Q647 679 666 699T713 719Q735 719 749 704T764 667Q764 642 744 622T699 602Z" />
<glyph unicode="&#xfd;" glyph-name="yacute" horiz-adv-x="527" d="M118 -50L150 0L57 509H161L226 114L471 509H579L212 -74Q167 -146 119 -178T8 -210Q-9 -210 -25 -208T-57 -201L-38 -114Q-30 -117 -18 -118T7 -120Q40 -120 67 -103T118 -50ZM385 725H505L354
603H268L385 725Z" />
<glyph unicode="&#xfe;" glyph-name="thorn" horiz-adv-x="594" d="M-39 -207L154 700L256 722L204 478Q234 497 267 506T334 516Q382 516 423 498T495 449T543 375T560 282Q560 222 538 169T478 77T388 15T278 -8Q229 -8 188 9T115 58L58 -207H-39ZM311 430Q275
430 243 418T184 382L134 150Q154 118 192 99T275 79Q315 79 349 94T409 135T449 197T464 273Q464 341 421 385T311 430Z" />
<glyph unicode="&#xff;" glyph-name="ydieresis" horiz-adv-x="527" d="M118 -50L150 0L57 509H161L226 114L471 509H579L212 -74Q167 -146 119 -178T8 -210Q-9 -210 -25 -208T-57 -201L-38 -114Q-30 -117 -18 -118T7 -120Q40 -120 67 -103T118 -50ZM495 602Q473
602 458 617T442 654Q442 679 462 699T508 719Q530 719 545 704T560 667Q560 642 540 622T495 602ZM685 602Q663 602 648 617T633 654Q633 679 652 699T699 719Q721 719 735 704T750 667Q750 642 730 622T685 602Z" />
<glyph unicode="&#x2013;" glyph-name="endash" horiz-adv-x="541" d="M60 326H511L493 240H41L60 326Z" />
<glyph unicode="&#x2014;" glyph-name="emdash" horiz-adv-x="688" d="M60 326H658L640 240H41L60 326Z" />
<glyph unicode="&#x2018;" glyph-name="quoteleft" horiz-adv-x="216" d="M184 495H80L219 728H295L184 495Z" />
<glyph unicode="&#x2019;" glyph-name="quoteright" horiz-adv-x="216" d="M197 729H301L162 496H86L197 729Z" />
<glyph unicode="&#x201a;" glyph-name="quotesinglbase" horiz-adv-x="216" d="M35 90H139L0 -143H-76L35 90Z" />
<glyph unicode="&#x201c;" glyph-name="quotedblleft" horiz-adv-x="374" d="M182 495H78L217 728H293L182 495ZM340 495H236L375 728H451L340 495Z" />
<glyph unicode="&#x201d;" glyph-name="quotedblright" horiz-adv-x="374" d="M356 729H460L321 496H245L356 729ZM197 729H301L162 496H86L197 729Z" />
<glyph unicode="&#x201e;" glyph-name="quotedblbase" horiz-adv-x="374" d="M194 90H298L159 -143H83L194 90ZM35 90H139L0 -143H-76L35 90Z" />
<glyph unicode="&#x2022;" glyph-name="bullet" horiz-adv-x="332" d="M174 238Q134 238 107 265T79 331Q79 380 114 415T198 451Q238 451 264 425T291 358Q291 310 256 274T174 238Z" />
<glyph unicode="&#x2039;" glyph-name="guilsinglleft" horiz-adv-x="398" d="M417 509L133 252L306 0H204L25 255L312 509H417Z" />
<glyph unicode="&#x203a;" glyph-name="guilsinglright" horiz-adv-x="407" d="M-10 0L274 257L101 509H203L382 254L95 0H-10Z" />
</font>
</defs>
</svg>
