<?xml version="1.0" encoding="UTF-8" standalone="no"?>
<!-- Generator: Adobe Illustrator 19.0.0, SVG Export Plug-In . SVG Version: 6.00 Build 0)  -->

<svg
   version="1.1"
   id="Layer_1"
   x="0px"
   y="0px"
   viewBox="0 0 38 38"
   xml:space="preserve"
   width="38"
   height="38"
   xmlns="http://www.w3.org/2000/svg"
   xmlns:svg="http://www.w3.org/2000/svg"><defs
   id="defs89"><style
   type="text/css"
   id="style304">
   <![CDATA[
    .fil0 {fill:none}
    .fil1 {fill:white}
   ]]>
  </style><style
   type="text/css"
   id="style1003">
   <![CDATA[
    .fil0 {fill:none}
    .fil1 {fill: black}
   ]]>
  </style>
  
  
  
 </defs>









<g
   id="g56">
</g>
<g
   id="g58">
</g>
<g
   id="g60">
</g>
<g
   id="g62">
</g>
<g
   id="g64">
</g>
<g
   id="g66">
</g>
<g
   id="g68">
</g>
<g
   id="g70">
</g>
<g
   id="g72">
</g>
<g
   id="g74">
</g>
<g
   id="g76">
</g>
<g
   id="g78">
</g>
<g
   id="g80">
</g>
<g
   id="g82">
</g>
<g
   id="g84">
</g>
<g
   id="Capa_x0020_1"
   style="clip-rule:evenodd;fill:#ff0000;fill-rule:evenodd;image-rendering:optimizeQuality;shape-rendering:geometricPrecision;text-rendering:geometricPrecision"
   transform="matrix(3.3201251,0,0,3.3201251,-324.21638,51.432767)">
  <metadata
   id="CorelCorpID_0Corel-Layer" />
  
  
 <rect
   style="opacity:0.852349;fill:none;stroke:none;stroke-width:0.529342"
   id="rect1428"
   width="11.549523"
   height="11.481586"
   x="97.583916"
   y="-15.559153" /><path
   class="fil1"
   d="m 105.95167,-9.8989595 c -0.0187,0.02795 -0.0187,0.0559 -0.028,0.09314 -0.009,0.121097 0.0839,0.2329053 0.20499,0.2422367 0.1211,0.00929 0.23291,-0.083856 0.2422,-0.2049537 0,-0.02795 0,-0.0559 0.009,-0.102476 0,-0.04657 0,-0.07457 0,-0.102477 0,-0.2701895 -0.0466,-0.5310475 -0.13043,-0.7825735 -0.11181,-0.326008 -0.30743,-0.614818 -0.54034,-0.857013 -0.28876,-0.28881 -0.64281,-0.493763 -1.04338,-0.605529 -0.18629,-0.04661 -0.39125,-0.07452 -0.58687,-0.07452 -0.0652,0 -0.13043,0 -0.205,0.0093 -0.0652,0.0093 -0.13042,0.01862 -0.19562,0.02795 -0.12109,0.01862 -0.20495,0.13976 -0.177,0.251526 0.0187,0.121139 0.13976,0.204953 0.25153,0.177001 0.0559,-0.0093 0.10247,-0.01862 0.15838,-0.01862 0.009,0 0.0187,0 0.028,0 0.0466,0 0.0931,-0.0093 0.13976,-0.0093 0.51234,0 0.98744,0.204996 1.32282,0.549667 0.33539,0.335383 0.54034,0.791862 0.54967,1.304246 v 0.018621 c 0,0.0372 0,0.06519 0,0.08381 z m 0.82232,-2.9712335 c -0.88501,-0.885007 -2.09607,-1.425343 -3.43755,-1.425343 -0.13976,0 -0.27948,0.0093 -0.41924,0.01866 -0.13972,0.0093 -0.27948,0.02791 -0.4192,0.05586 -0.12114,0.01862 -0.20495,0.13976 -0.177,0.251526 0.0186,0.12114 0.13972,0.204954 0.25153,0.177001 0.0652,-0.0093 0.12109,-0.01862 0.18633,-0.02795 0.0652,-0.0093 0.13043,-0.01862 0.19562,-0.01862 0.13039,-0.0093 0.25153,-0.01862 0.38196,-0.01862 1.21105,0 2.3103,0.493721 3.1115,1.285583 0.79186,0.791862 1.28562,1.891112 1.28562,3.111502 0,0.065236 0,0.1397603 0,0.2049535 0,0.055904 -0.009,0.1118083 -0.009,0.1770015 -0.009,0.1210973 0.0838,0.2329056 0.20491,0.2422371 0.12114,0.00929 0.23291,-0.083856 0.24224,-0.2049536 0.009,-0.1397603 0.0186,-0.2794782 0.0186,-0.409907 0,-1.3321555 -0.54034,-2.5432565 -1.41601,-3.4189325 z m 1.07134,5.6454268 -1.64892,-0.8850073 c -0.54967,-0.2980988 -0.56829,-0.1024768 -1.14586,0.5123838 -0.13972,0.1490494 -0.40058,0.5402934 -0.70801,0.4658111 -0.64277,-0.1583808 -1.84454,-1.0992923 -2.23578,-1.5278623 -0.18634,-0.2049111 -0.98753,-1.1830636 -0.99682,-1.4998261 -0.0187,-0.484431 1.04335,-0.726626 0.69868,-1.648917 l -0.73596,-1.648917 c -0.68939,-1.583682 -2.617744,0.950243 -2.459406,2.133349 0.409907,2.9158797 5.524336,7.6297259 8.375016,6.0739963 0.63348,-0.3540453 1.49054,-1.5930556 0.85706,-1.9750105 z"
   id="path1010"
   style="clip-rule:evenodd;fill:#000000;fill-rule:evenodd;stroke-width:4.24159;image-rendering:optimizeQuality;shape-rendering:geometricPrecision;text-rendering:geometricPrecision" /></g></svg>
