<?xml version="1.0" encoding="UTF-8" standalone="no"?>
<!-- Generator: Adobe Illustrator 19.0.0, SVG Export Plug-In . SVG Version: 6.00 Build 0)  -->

<svg
   version="1.1"
   id="Layer_1"
   x="0px"
   y="0px"
   viewBox="0 0 38 38"
   xml:space="preserve"
   width="38"
   height="38"
   xmlns="http://www.w3.org/2000/svg"
   xmlns:svg="http://www.w3.org/2000/svg"><defs
   id="defs89"><style
     type="text/css"
     id="style304">
   <![CDATA[
    .fil0 {fill:none}
    .fil1 {fill:white}
   ]]>
  </style><style
     type="text/css"
     id="style1003">
   <![CDATA[
    .fil0 {fill:none}
    .fil1 {fill: black}
   ]]>
  </style></defs>









<g
   id="g56">
</g>
<g
   id="g58">
</g>
<g
   id="g60">
</g>
<g
   id="g62">
</g>
<g
   id="g64">
</g>
<g
   id="g66">
</g>
<g
   id="g68">
</g>
<g
   id="g70">
</g>
<g
   id="g72">
</g>
<g
   id="g74">
</g>
<g
   id="g76">
</g>
<g
   id="g78">
</g>
<g
   id="g80">
</g>
<g
   id="g82">
</g>
<g
   id="g84">
</g>
<g
   id="Capa_x0020_1"
   style="clip-rule:evenodd;fill:#ff0000;fill-rule:evenodd;image-rendering:optimizeQuality;shape-rendering:geometricPrecision;text-rendering:geometricPrecision"
   transform="matrix(3.3201251,0,0,3.3201251,-324.21638,51.432767)">
  <metadata
   id="CorelCorpID_0Corel-Layer" />
  
  <rect
   style="opacity:0.852349;fill:#00ffff;stroke-width:0.529342;stroke:none"
   id="rect741"
   width="11.413648"
   height="11.481586"
   x="97.583916"
   y="-15.423276" />
 <g
   style="clip-rule:evenodd;fill-rule:evenodd;image-rendering:optimizeQuality;shape-rendering:geometricPrecision;text-rendering:geometricPrecision;fill:#00ffff"
   id="g1022"
   transform="matrix(4.2415878,0,0,4.2415878,97.791126,-15.14813)"><g
     id="Capa_x0020_1-8"
     style="fill:#00ffff">
  <metadata
   id="CorelCorpID_0Corel-Layer-7" />
  <rect
   class="fil0"
   width="2.50002"
   height="2.50002"
   id="rect1008"
   x="0"
   y="0"
   style="fill:#00ffff" />
  <path
   class="fil1"
   d="M 1.85227,1.18428 C 1.84787,1.19087 1.84787,1.19746 1.84567,1.20624 1.84348,1.23479 1.86544,1.26115 1.894,1.26335 1.92255,1.26554 1.94891,1.24358 1.9511,1.21503 c 0,-0.00659 0,-0.01318 0.0022,-0.02416 0,-0.01098 0,-0.01758 0,-0.02416 0,-0.0637 -0.01099,-0.1252 -0.03075,-0.1845 C 1.89619,0.90535 1.85007,0.83726 1.79516,0.78016 1.72708,0.71207 1.64361,0.66375 1.54917,0.6374 1.50525,0.62641 1.45693,0.61983 1.41081,0.61983 c -0.01538,0 -0.03075,0 -0.04833,0.00219 C 1.34711,0.62422 1.33173,0.62641 1.31636,0.62861 1.28781,0.633 1.26804,0.66156 1.27463,0.68791 c 0.0044,0.02856 0.03295,0.04832 0.0593,0.04173 0.01318,-0.0022 0.02416,-0.00439 0.03734,-0.00439 0.0022,0 0.0044,0 0.00659,0 0.01098,0 0.02196,-0.0022 0.03295,-0.0022 0.12079,0 0.2328,0.04833 0.31187,0.12959 0.07907,0.07907 0.12739,0.18669 0.12959,0.30749 v 0.00439 c 0,0.00877 0,0.01537 0,0.01976 z M 2.04614,0.48378 C 1.83749,0.27513 1.55197,0.14774 1.2357,0.14774 c -0.03295,0 -0.06589,0.0022 -0.09884,0.0044 C 1.10392,0.15433 1.07097,0.15872 1.03803,0.16531 1.00947,0.1697 0.98971,0.19826 0.9963,0.22461 1.00069,0.25317 1.02924,0.27293 1.0556,0.26634 1.07097,0.26414 1.08415,0.26195 1.09953,0.25975 1.1149,0.25756 1.13028,0.25536 1.14565,0.25536 1.17639,0.25316 1.20495,0.25097 1.2357,0.25097 c 0.28552,0 0.54468,0.1164 0.73357,0.30309 0.18669,0.18669 0.3031,0.44585 0.3031,0.73357 0,0.01538 0,0.03295 0,0.04832 0,0.01318 -0.0022,0.02636 -0.0022,0.04173 C 2.26797,1.40623 2.28993,1.43259 2.31848,1.43479 2.34704,1.43698 2.37339,1.41502 2.37559,1.38647 2.37779,1.35352 2.37998,1.32058 2.37998,1.28983 2.37998,0.97576 2.25259,0.69023 2.04614,0.48378 Z M 2.29872,1.81475 1.90997,1.6061 C 1.78038,1.53582 1.77599,1.58194 1.63982,1.7269 1.60688,1.76204 1.54538,1.85428 1.4729,1.83672 1.32136,1.79938 1.03803,1.57755 0.94579,1.47651 0.90186,1.4282 0.71297,1.19759 0.71078,1.12291 0.70638,1.0087 0.95676,0.9516 0.8755,0.73416 L 0.70199,0.34541 C 0.53946,-0.02796 0.08483,0.56944 0.12216,0.84837 0.2188,1.53582 1.42458,2.64716 2.09666,2.28038 2.24601,2.19691 2.44807,1.9048 2.29872,1.81475 Z"
   id="path1010"
   style="fill:#00ffff" />
 </g></g></g></svg>
