<?xml version="1.0" encoding="UTF-8" standalone="no"?>
<!-- Generator: Adobe Illustrator 19.0.0, SVG Export Plug-In . SVG Version: 6.00 Build 0)  -->

<svg
   version="1.1"
   id="Layer_1"
   x="0px"
   y="0px"
   viewBox="0 0 38 30"
   xml:space="preserve"
   width="38"
   height="30"
   xmlns="http://www.w3.org/2000/svg"
   xmlns:svg="http://www.w3.org/2000/svg"><defs
   id="defs89"><style
     type="text/css"
     id="style304">
   <![CDATA[
    .fil0 {fill:none}
    .fil1 {fill:white}
   ]]>
  </style></defs>









<g
   id="g56">
</g>
<g
   id="g58">
</g>
<g
   id="g60">
</g>
<g
   id="g62">
</g>
<g
   id="g64">
</g>
<g
   id="g66">
</g>
<g
   id="g68">
</g>
<g
   id="g70">
</g>
<g
   id="g72">
</g>
<g
   id="g74">
</g>
<g
   id="g76">
</g>
<g
   id="g78">
</g>
<g
   id="g80">
</g>
<g
   id="g82">
</g>
<g
   id="g84">
</g>
<g
   id="Capa_x0020_1"
   style="clip-rule:evenodd;fill:#ff0000;fill-rule:evenodd;image-rendering:optimizeQuality;shape-rendering:geometricPrecision;text-rendering:geometricPrecision"
   transform="matrix(3.3201251,0,0,3.3201251,-324.21638,51.432767)">
  <metadata
   id="CorelCorpID_0Corel-Layer" />
  
  <path
   class="fil1"
   d="m 107.69235,-15.353526 h -8.748196 c -0.780908,0 -1.415717,0.63477 -1.415717,1.415713 v 5.9790503 c 0,0.7809003 0.634822,1.4157137 1.415717,1.4157137 h 8.745796 c 0.7809,0 1.41572,-0.6348161 1.41572,-1.4157137 v -5.9766503 c 0.003,-0.780946 -0.63242,-1.418126 -1.41332,-1.418126 v 0 z m 0.76897,7.3947633 c 0,0.4239981 -0.34498,0.768962 -0.76897,0.768962 h -8.748196 c -0.424003,0 -0.768965,-0.3449639 -0.768965,-0.768962 v -5.9766503 c 0,-0.423998 0.344962,-0.768962 0.768965,-0.768962 h 8.745796 c 0.424,0 0.76897,0.344964 0.76897,0.768962 v 5.9766503 h 0.003 4e-5 z m -3.63154,-3.0637723 2.83144,-2.539174 c 0.13178,-0.119796 0.14372,-0.3234 0.024,-0.457545 -0.11984,-0.13174 -0.3234,-0.143723 -0.45754,-0.02397 l -3.90459,3.504569 -0.76175,-0.680348 c -0.003,-0.0024 -0.005,-0.0048 -0.005,-0.0072 -0.0167,-0.01675 -0.0336,-0.03115 -0.0527,-0.04553 l -3.099727,-2.773919 c -0.134155,-0.119756 -0.337756,-0.107772 -0.457551,0.02637 -0.119703,0.134146 -0.107759,0.337747 0.02641,0.457545 l 2.864938,2.560744 -2.852955,2.6709105 c -0.12939,0.1221606 -0.136557,0.3257616 -0.01433,0.4575005 0.06463,0.067095 0.150942,0.1030029 0.237149,0.1030029 0.07909,0 0.158122,-0.028735 0.220402,-0.086207 l 2.896084,-2.7092759 0.78571,0.7018663 c 0.0622,0.055114 0.13896,0.081443 0.21558,0.081443 0.0766,0 0.15571,-0.028731 0.21559,-0.083845 l 0.80728,-0.7233833 2.87933,2.7355534 c 0.0622,0.059923 0.14372,0.088658 0.22275,0.088658 0.0863,0 0.1701,-0.033547 0.23479,-0.1005969 0.12222,-0.1293773 0.11731,-0.3353855 -0.0119,-0.4575445 l -2.84342,-2.699652 v 0 z"
   id="path311"
   style="fill:#333333;stroke-width:0.127627" />
 </g></svg>
