<?xml version="1.0" encoding="UTF-8"?>
<!DOCTYPE svg PUBLIC "-//W3C//DTD SVG 1.1//EN" "http://www.w3.org/Graphics/SVG/1.1/DTD/svg11.dtd">
<!-- Creator: CorelDRAW -->
<svg xmlns="http://www.w3.org/2000/svg" xml:space="preserve" width="2480px" height="2480px" style="shape-rendering:geometricPrecision; text-rendering:geometricPrecision; image-rendering:optimizeQuality; fill-rule:evenodd; clip-rule:evenodd"
viewBox="0 0 2480 2480"
 xmlns:xlink="http://www.w3.org/1999/xlink"
 version="1.1">
 <defs>
  <style type="text/css">
   <![CDATA[
    .fil0 {fill:black}
   ]]>
  </style>
 </defs>
 <g id="Capa_x0020_1">
  <metadata id="CorelCorpID_0Corel-Layer"/>
  <g id="_209364872">
   <g>
    <path id="_209364944" class="fil0" d="M2125.24 348.702l-1769.99 0c-158.001,0 -286.436,128.437 -286.436,286.436l0 1209.72c0,158 128.436,286.436 286.436,286.436l1769.51 0c158.001,0 286.436,-128.437 286.436,-286.436l0 -1209.24c0.485371,-158.001 -127.95,-286.922 -285.951,-286.922zm155.576 1496.16c0,85.7856 -69.7919,155.577 -155.577,155.577l-1769.99 0c-85.7856,0 -155.577,-69.7919 -155.577,-155.577l0 -1209.24c0,-85.7856 69.7919,-155.577 155.577,-155.577l1769.51 0c85.7856,0 155.577,69.7919 155.577,155.577l0 1209.24 0.48419 0z"/>
    <path id="_209364656" class="fil0" d="M1546.07 1224.97l572.873 -513.744c26.6565,-24.2331 29.081,-65.4295 4.84663,-92.5713 -24.2331,-26.6565 -65.4295,-29.0798 -92.5701,-4.84663l-790.003 709.064 -154.124 -137.645c-0.485371,-0.485371 -0.969562,-0.969562 -0.969562,-1.45493 -3.39288,-3.39288 -6.78457,-6.30038 -10.6616,-9.20907l-627.155 -561.239c-27.1418,-24.2331 -68.3382,-21.8098 -92.5713,5.332 -24.2343,27.1418 -21.8098,68.337 5.332,92.5713l579.657 518.105 -577.234 540.4c-26.1723,24.7173 -27.626,65.9149 -2.9075,92.5713 13.0861,13.5691 30.5335,20.8403 47.9821,20.8403 15.9936,0 31.9873,-5.81619 44.588,-17.4474l585.959 -548.156 158.97 142.006c12.6008,11.1482 28.1102,16.479 43.6197,16.479 15.5083,0 31.5019,-5.81619 43.6197,-16.9632l163.332 -146.37 582.566 553.488c12.6008,12.1166 29.0798,17.9328 45.0734,17.9328 17.4474,0 34.4106,-6.78575 47.4967,-20.3573 24.7185,-26.1723 23.749,-67.8528 -2.42331,-92.5701l-575.296 -546.216z"/>
   </g>
  </g>
  <g id="_209364536">
  </g>
  <g id="_209364584">
  </g>
  <g id="_209365016">
  </g>
  <g id="_209365376">
  </g>
  <g id="_209365568">
  </g>
  <g id="_209366024">
  </g>
  <g id="_209365400">
  </g>
  <g id="_209365832">
  </g>
  <g id="_209365976">
  </g>
  <g id="_209365520">
  </g>
  <g id="_209365928">
  </g>
  <g id="_209365784">
  </g>
  <g id="_209365952">
  </g>
  <g id="_209366048">
  </g>
  <g id="_209366672">
  </g>
 </g>
</svg>
