<?xml version="1.0" encoding="UTF-8"?>
<!-- Generator: Adobe Illustrator 19.0.0, SVG Export Plug-In . SVG Version: 6.00 Build 0)  -->
<svg width="38" height="30" version="1.1" viewBox="0 0 38 30" xml:space="preserve" xmlns="http://www.w3.org/2000/svg"><defs><style type="text/css">
   <![CDATA[
    .fil0 {fill:none}
    .fil1 {fill:white}
   ]]>
  </style></defs>
























<g transform="matrix(3.3201 0 0 3.3201 -324.22 51.433)" clip-rule="evenodd" fill="#f00" fill-rule="evenodd" image-rendering="optimizeQuality" shape-rendering="geometricPrecision" text-rendering="geometricPrecision">
  
  
  <path class="fil1" d="m107.69-15.354h-8.7482c-0.78091 0-1.4157 0.63477-1.4157 1.4157v5.9791c0 0.7809 0.63482 1.4157 1.4157 1.4157h8.7458c0.7809 0 1.4157-0.63482 1.4157-1.4157v-5.9767c3e-3 -0.78095-0.63242-1.4181-1.4133-1.4181zm0.76897 7.3948c0 0.424-0.34498 0.76896-0.76897 0.76896h-8.7482c-0.424 0-0.76896-0.34496-0.76896-0.76896v-5.9767c0-0.424 0.34496-0.76896 0.76896-0.76896h8.7458c0.424 0 0.76897 0.34496 0.76897 0.76896v5.9767h0.00304zm-3.6315-3.0638 2.8314-2.5392c0.13178-0.1198 0.14372-0.3234 0.024-0.45754-0.11984-0.13174-0.3234-0.14372-0.45754-0.02397l-3.9046 3.5046-0.76175-0.68035c-3e-3 -0.0024-5e-3 -0.0048-5e-3 -0.0072-0.0167-0.01675-0.0336-0.03115-0.0527-0.04553l-3.0997-2.7739c-0.13416-0.11976-0.33776-0.10777-0.45755 0.02637-0.1197 0.13415-0.10776 0.33775 0.02641 0.45754l2.8649 2.5607-2.853 2.6709c-0.12939 0.12216-0.13656 0.32576-0.01433 0.4575 0.06463 0.067095 0.15094 0.103 0.23715 0.103 0.07909 0 0.15812-0.028735 0.2204-0.086207l2.8961-2.7093 0.78571 0.70187c0.0622 0.055114 0.13896 0.081443 0.21558 0.081443 0.0766 0 0.15571-0.028731 0.21559-0.083845l0.80728-0.72338 2.8793 2.7356c0.0622 0.059923 0.14372 0.088658 0.22275 0.088658 0.0863 0 0.1701-0.033547 0.23479-0.1006 0.12222-0.12938 0.11731-0.33539-0.0119-0.45754l-2.8434-2.6997z" fill="#333" stroke-width=".12763"/>
 </g></svg>
