<?xml version="1.0" encoding="UTF-8"?>
<!DOCTYPE svg PUBLIC "-//W3C//DTD SVG 1.1//EN" "http://www.w3.org/Graphics/SVG/1.1/DTD/svg11.dtd">
<svg xmlns="http://www.w3.org/2000/svg" xml:space="preserve" width="2480px" height="2480px" style="shape-rendering:geometricPrecision; text-rendering:geometricPrecision; image-rendering:optimizeQuality; fill-rule:evenodd; clip-rule:evenodd"
viewBox="0 0 2480 2480"
 xmlns:xlink="http://www.w3.org/1999/xlink"
 version="1.1">
 <defs>

 </defs>
 <g id="Capa_x0020_1">
  <metadata id="CorelCorpID_0Corel-Layer"/>
  <path class="fil0" d="M2145.8 0l-1811.61 0c-184.562,0 -334.185,149.617 -334.185,334.185l0 1811.62c0,184.568 149.617,334.185 334.185,334.185l893.476 0.00118095 1.52225 -886.214 -230.237 0c-29.9206,0 -54.2057,-24.1942 -54.3214,-54.1148l-1.10419 -285.663c-0.115733,-30.0848 24.2426,-54.534 54.3274,-54.534l229.819 0 0 -276.023c0,-320.323 195.633,-494.741 481.382,-494.741l234.478 0c29.9997,0 54.3274,24.3217 54.3274,54.3274l0 240.873c0,29.9938 -24.3099,54.3096 -54.2966,54.3274l-143.897 0.0673143c-155.399,0 -185.49,73.8438 -185.49,182.214l0 238.962 341.465 -0.00118095c32.5352,0 57.7793,28.4102 53.9447,60.7222l-33.8579 285.663c-3.23935,27.3367 -26.4203,47.9337 -53.9447,47.9337l-306.084 -0.00118095 -1.52225 886.214 531.632 0c184.562,0 334.179,-149.617 334.179,-334.179l0 -1811.64c-0.00590476,-184.568 -149.623,-334.185 -334.191,-334.185z"/>
  <g id="_138581880">
  </g>
 </g>
</svg>
