<?xml version="1.0" encoding="UTF-8"?>
<!DOCTYPE svg PUBLIC "-//W3C//DTD SVG 1.1//EN" "http://www.w3.org/Graphics/SVG/1.1/DTD/svg11.dtd">
<!-- Creator: CorelDRAW -->
<svg xmlns="http://www.w3.org/2000/svg" xml:space="preserve" width="1958px" height="1958px" style="shape-rendering:geometricPrecision; text-rendering:geometricPrecision; image-rendering:optimizeQuality; fill-rule:evenodd; clip-rule:evenodd"
viewBox="0 0 1958 1958.01"
 xmlns:xlink="http://www.w3.org/1999/xlink">
 <defs>
  <style type="text/css">
   <![CDATA[
    .fil0 {fill:white}
   ]]>
  </style>
 </defs>
 <g id="Capa_x0020_1">
  <metadata id="CorelCorpID_0Corel-Layer"/>
  <path class="fil0" d="M1694.15 0.00118111l-1430.3 0c-145.715,0 -263.846,118.127 -263.846,263.846l0 1430.31c0,145.72 118.127,263.846 263.846,263.846l705.418 0.00118111 1.20237 -699.685 -181.777 0c-23.6234,0 -42.7964,-19.1021 -42.8885,-42.7255l-0.871661 -225.537c-0.0909456,-23.7522 19.1399,-43.0563 42.8921,-43.0563l181.447 0 0 -217.926c0,-252.901 154.456,-390.609 380.062,-390.609l185.125 0c23.686,0 42.8933,19.2025 42.8933,42.8933l0 190.174c0,23.6801 -19.1931,42.8779 -42.8685,42.8921l-113.61 0.05315c-122.692,0 -146.448,58.3009 -146.448,143.862l0 188.666 269.595 -0.00118111c25.6868,0 45.6181,22.4305 42.5909,47.9413l-26.7321 225.538c-2.55711,21.5825 -20.8596,37.844 -42.5897,37.844l-241.66 0 -1.20237 699.685 419.735 0c145.715,0 263.841,-118.127 263.841,-263.841l0 -1430.32c-0.00472445,-145.72 -118.131,-263.846 -263.851,-263.846l-0.00354334 0.00118111z"/>
 </g>
</svg>
