<?xml version="1.0" encoding="UTF-8"?>
<!DOCTYPE svg PUBLIC "-//W3C//DTD SVG 1.1//EN" "http://www.w3.org/Graphics/SVG/1.1/DTD/svg11.dtd">
<!-- Creator: CorelDRAW -->
<svg xmlns="http://www.w3.org/2000/svg" xml:space="preserve" width="296px" height="296px" style="shape-rendering:geometricPrecision; text-rendering:geometricPrecision; image-rendering:optimizeQuality; fill-rule:evenodd; clip-rule:evenodd"
viewBox="0 0 296 296"
 xmlns:xlink="http://www.w3.org/1999/xlink">
 <defs>
  <style type="text/css">
   <![CDATA[
    .str0 {stroke:#1F1A17;stroke-width:0.899466}
    .fil0 {fill:none}
    .fil1 {fill:white}
   ]]>
  </style>
 </defs>
 <g id="Capa_x0020_1">
  <metadata id="CorelCorpID_0Corel-Layer"/>
  <rect class="fil0 str0" x="0.448553" y="0.448553" width="295.103" height="295.103"/>
  <path class="fil1" d="M153.366 178.974l66.3362 0c-11.6447,32.9214 -43.1815,56.5236 -80.1021,56.2509 -44.7974,-0.330513 -81.8396,-36.1675 -83.5784,-80.9331 -1.86504,-47.9845 36.6326,-87.6177 84.2111,-87.6177 21.7536,0 41.6056,8.28996 56.5731,21.8717 3.54475,3.21778 8.94155,3.23784 12.4285,-0.0448553l24.3647 -22.9305c3.80916,-3.58724 3.8245,-9.64389 0.0259688,-13.2429 -23.7367,-22.4855 -55.5757,-36.5016 -90.6868,-37.1886 -74.8894,-1.46016 -138.015,59.942 -138.537,134.844 -0.526459,75.4643 60.4897,136.804 135.832,136.804 72.4554,0 131.644,-56.7313 135.61,-128.195 0.105056,-0.895925 0.1747,-31.1768 0.1747,-31.1768l-122.653 0c-5.02733,0 -9.10326,4.07475 -9.10326,9.10326l0 33.3558c0.0011804,5.02497 4.07711,9.09972 9.10326,9.09972z"/>
  <path class="fil1" d="M273.044 77.0708l0 -14.1814c0,-1.91697 -1.55459,-3.47156 -3.47156,-3.47156l-11.9362 0.0011804c-1.91697,0 -3.47038,1.55459 -3.47038,3.47156l0 14.1814 -14.1825 -0.0011804c-1.91697,0 -3.47038,1.55459 -3.47038,3.47156l0 11.9362c0,1.91815 1.55341,3.47156 3.47038,3.47156l14.1825 0 0 14.1814c0,1.91697 1.55341,3.47156 3.47038,3.47156l11.9374 0c1.91697,0 3.47038,-1.55459 3.47038,-3.47156l0 -14.1814 14.1814 0c1.91697,0 3.47156,-1.55459 3.47156,-3.47156l0 -11.9362c0,-1.91697 -1.55459,-3.47156 -3.47156,-3.47156l-14.1814 0 0 0z"/>
 </g>
</svg>
