<?xml version="1.0" encoding="UTF-8"?>
<!DOCTYPE svg PUBLIC "-//W3C//DTD SVG 1.1//EN" "http://www.w3.org/Graphics/SVG/1.1/DTD/svg11.dtd">
<!-- Creator: CorelDRAW -->
<svg xmlns="http://www.w3.org/2000/svg" xml:space="preserve" width="2480px" height="2480px" style="shape-rendering:geometricPrecision; text-rendering:geometricPrecision; image-rendering:optimizeQuality; fill-rule:evenodd; clip-rule:evenodd"
viewBox="0 0 2480 2480"
 xmlns:xlink="http://www.w3.org/1999/xlink"
 version="1.1">
 <defs>
  <style type="text/css">
   <![CDATA[
    .fil0 {fill:white}
   ]]>
  </style>
 </defs>
 <g id="Capa_x0020_1">
  <metadata id="CorelCorpID_0Corel-Layer"/>
  <g id="_138418376">
   <g>
    <g>
     <g>
      <g>
       <path id="_138420872" class="fil0" d="M2409.51 1146.21l-1120.38 -970.991c-28.0842,-24.3501 -69.7636,-24.3501 -97.8478,0l-399.45 345.972 -0.0023619 -140.124c0,-82.4624 -66.9246,-149.382 -149.381,-149.382 -82.4565,0 -149.385,66.9246 -149.385,149.382l0 399.002 -422.459 366.14c-31.0709,27.0355 -34.5062,74.2453 -7.46834,105.465 27.1891,31.0709 74.2453,34.3586 105.465,7.46834l1071.38 -928.568 1071.23 928.568c14.3391,12.25 31.5173,18.2268 48.9977,18.2268 21.0623,0 41.5282,-8.81581 56.3184,-25.6952 27.4796,-31.2197 23.8978,-78.1294 -7.02549,-105.465z"/>
       <path id="_138421016" class="fil0" d="M1334.54 713.89c-27.3367,-22.555 -60.949,-34.0587 -94.5612,-34.0587 -33.6123,0 -67.2245,11.3501 -94.7065,34.0587l-746.915 612.32c-34.6586,28.383 -54.6746,70.6587 -54.6746,115.622l0 731.83c0,82.4624 66.9246,149.382 149.382,149.382l448.148 -0.0023619 0 -746.911 597.535 0 0 746.917 448.148 0c82.31,0 149.381,-66.9246 149.381,-149.382l0 -731.83c0,-45.1159 -20.1671,-87.2381 -54.8257,-115.474l-746.911 -612.473z"/>
      </g>
     </g>
    </g>
    <g>
    </g>
    <g>
    </g>
    <g>
    </g>
    <g>
    </g>
    <g>
    </g>
    <g>
    </g>
    <g>
    </g>
    <g>
    </g>
    <g>
    </g>
    <g>
    </g>
    <g>
    </g>
    <g>
    </g>
    <g>
    </g>
    <g>
    </g>
    <g>
    </g>
   </g>
   <g>
   </g>
   <g>
   </g>
   <g>
   </g>
   <g>
   </g>
   <g>
   </g>
   <g>
   </g>
   <g>
   </g>
   <g>
   </g>
   <g>
   </g>
   <g>
   </g>
   <g>
   </g>
   <g>
   </g>
   <g>
   </g>
   <g>
   </g>
   <g>
   </g>
  </g>
 </g>
</svg>
