<svg width="10%" xmlns="http://www.w3.org/2000/svg" viewbox="0 0 512 512">


	<symbol id="instagram">
		<rect fill="transparent" width="20.0002" height="20.0002"/>
		<path id="_126806088" class="fil0" d="M17.4827 0l-10.0646 0c-4.09042,0 -7.41812,3.3277 -7.41812,7.41812l0 10.0646c0,4.09042 3.3277,7.41812 7.41812,7.41812l10.0646 0c4.09042,0 7.41812,-3.3277 7.41812,-7.41812l0 -10.0646c-9.98052e-005,-4.09042 -3.3278,-7.41812 -7.41812,-7.41812zm4.91311 17.4827c0,2.7134 -2.19971,4.91311 -4.91311,4.91311l-10.0646 0c-2.7134,0 -4.91311,-2.19971 -4.91311,-4.91311l0 -10.0646c0,-2.7135 2.19971,-4.91311 4.91311,-4.91311l10.0646 0c2.7134,0 4.91311,2.19961 4.91311,4.91311l0 10.0646 0 0z"/>
		<path id="_126812376" class="fil0" d="M12.4504 6.01017c-3.55117,0 -6.44023,2.88906 -6.44023,6.44013 0,3.55117 2.88906,6.44023 6.44023,6.44023 3.55117,0 6.44023,-2.88906 6.44023,-6.44023 0,-3.55117 -2.88906,-6.44013 -6.44023,-6.44013zm0 10.3754c-2.17336,0 -3.93522,-1.76186 -3.93522,-3.93522 0,-2.17336 1.76186,-3.93522 3.93522,-3.93522 2.17336,0 3.93522,1.76186 3.93522,3.93522 0,2.17336 -1.76186,3.93522 -3.93522,3.93522z"/>
		<circle id="_126812904" class="fil0" cx="18.9031" cy="6.05849" r="1.54323"/>
	</symbol>

	<symbol id="facebook">
		<rect fill="transparent"  width="25" height="25"/>
		<path d="M0 0l0 24.8676 13.2435 0 0 -9.60581 -3.23736 0 0 -3.92141 3.23736 0 0 -3.29329c0,-2.39501 1.94158,-4.33659 4.33669,-4.33659l3.38448 0 0 3.5262 -2.42178 0c-0.76095,0 -1.37798,0.61693 -1.37798,1.37798l0 2.7258 3.73893 0 -0.516755 3.92131 -3.22218 0 0 9.60581 7.70269 0 0 -24.8676 -24.8676 0z"/>
	</symbol>

	<symbol id="telefone">
		<path d="M18.5224 11.8423c-0.0439996,0.0658995 -0.0439996,0.131799 -0.0659995,0.219598 -0.0218998,0.285498 0.197698,0.549096 0.483296,0.571095 0.285498,0.0218998 0.549096,-0.197698 0.570995,-0.483196 0,-0.0658995 0,-0.131799 0.0219998,-0.241598 0,-0.109799 0,-0.175799 0,-0.241598 0,-0.636995 -0.109899,-1.25199 -0.307498,-1.84499 -0.263598,-0.768594 -0.724794,-1.44949 -1.27389,-2.02048 -0.680795,-0.680895 -1.51549,-1.16409 -2.45988,-1.42759 -0.439196,-0.109899 -0.922393,-0.175699 -1.38359,-0.175699 -0.153799,0 -0.307498,0 -0.483296,0.0218998 -0.153699,0.0219998 -0.307498,0.0438996 -0.461196,0.0658995 -0.285498,0.0438996 -0.483196,0.329497 -0.417297,0.592995 0.0439996,0.285598 0.329497,0.483196 0.592995,0.417297 0.131799,-0.0219998 0.241598,-0.0438996 0.373397,-0.0438996 0.0219998,0 0.0439996,0 0.0658995,0 0.109799,0 0.219598,-0.0219998 0.329497,-0.0219998 1.20789,0 2.32798,0.483296 3.11868,1.29589 0.790694,0.790694 1.27389,1.86689 1.29589,3.07488l0 0.0438996c0,0.0876993 0,0.153699 0,0.197598zm1.93868 -7.00494c-2.08648,-2.08648 -4.94166,-3.36037 -8.10434,-3.36037 -0.329497,0 -0.658895,0.0219998 -0.988392,0.0439996 -0.329397,0.0218998 -0.658895,0.0657995 -0.988292,0.131699 -0.285598,0.0438996 -0.483196,0.329497 -0.417297,0.592995 0.0438996,0.285598 0.329397,0.483196 0.592995,0.417297 0.153699,-0.0219998 0.285498,-0.0438996 0.439296,-0.0658995 0.153699,-0.0218998 0.307498,-0.0438996 0.461196,-0.0438996 0.307398,-0.0219998 0.592995,-0.0438996 0.900493,-0.0438996 2.85518,0 5.44676,1.16399 7.33564,3.03088 1.86689,1.86689 3.03098,4.45846 3.03098,7.33564 0,0.153799 0,0.329497 0,0.483196 0,0.131799 -0.0219998,0.263598 -0.0219998,0.417297 -0.0219998,0.285498 0.197598,0.549096 0.483096,0.571095 0.285598,0.0218998 0.549096,-0.197698 0.571095,-0.483196 0.0219998,-0.329497 0.0438996,-0.658895 0.0438996,-0.966392 0,-3.14067 -1.27389,-5.99595 -3.33837,-8.06044zm2.52578 13.3096l-3.88747 -2.08648c-1.29589,-0.702794 -1.33979,-0.241598 -2.70148,1.20799 -0.329397,0.351397 -0.944392,1.27379 -1.66919,1.09819 -1.51539,-0.373397 -4.34867,-2.59168 -5.27106,-3.60207 -0.439296,-0.483096 -2.32818,-2.78918 -2.35008,-3.53597 -0.0439996,-1.14209 2.45978,-1.71309 1.64719,-3.88747l-1.73509 -3.88747c-1.62529,-3.73367 -6.17155,2.24028 -5.79825,5.02956 0.966392,6.87445 13.0241,17.9878 19.7448,14.32 1.49349,-0.834693 3.51407,-3.75577 2.02058,-4.65626z"/>
	</symbol>

	<symbol id="whatsapp">
		<rect fill="transparent"  width="10%" height="10%"/>
		<path d="M24.4061 12.1933c0,6.40635 -5.23316,11.5995 -11.6897,11.5995 -2.04968,0 -3.97537,-0.523896 -5.65065,-1.44329l-6.47185 2.05658 2.11008 -6.22345c-1.06439,-1.74779 -1.67749,-3.79777 -1.67749,-5.98935 -9.99992e-005,-6.40625 5.23366,-11.5994 11.6899,-11.5994 6.45715,0 11.6897,5.19316 11.6897,11.5994zm-11.6897 -9.75212c-5.41966,0 -9.82812,4.37487 -9.82812,9.75222 0,2.13388 0.695594,4.10997 1.87219,5.71755l-1.22789 3.62187 3.77687 -1.20039c1.55179,1.01889 3.41067,1.61319 5.40726,1.61319 5.41886,0 9.82812,-4.37437 9.82812,-9.75162 0,-5.37726 -4.40896,-9.75282 -9.82842,-9.75282zm5.90305 12.4236c-0.0721994,-0.118299 -0.262998,-0.189698 -0.549296,-0.331797 -0.286798,-0.142099 -1.69599,-0.830293 -1.95788,-0.924693 -0.262698,-0.0946992 -0.454296,-0.142299 -0.645095,0.142099 -0.190798,0.284698 -0.739994,0.924693 -0.907493,1.11439 -0.167199,0.190198 -0.334197,0.213998 -0.620995,0.0716994 -0.286298,-0.142099 -1.20939,-0.442596 -2.30398,-1.41099 -0.851693,-0.753494 -1.42689,-1.68379 -1.59409,-1.96878 -0.166999,-0.284398 -0.0174999,-0.438196 0.125699,-0.579695 0.129099,-0.127499 0.286798,-0.332097 0.429897,-0.497896 0.143699,-0.166199 0.191298,-0.284398 0.286298,-0.474396 0.0959992,-0.189698 0.0481996,-0.355597 -0.0237998,-0.498196 -0.0713994,-0.142099 -0.645095,-1.54119 -0.883693,-2.11058 -0.238698,-0.568895 -0.476996,-0.474096 -0.644495,-0.474096 -0.166999,0 -0.358197,-0.0237998 -0.549296,-0.0237998 -0.190998,0 -0.501696,0.0711994 -0.764394,0.355597 -0.262498,0.284698 -1.00249,0.972592 -1.00249,2.37148 0,1.39909 1.02629,2.75088 1.16999,2.94028 0.143099,0.189398 1.98168,3.15377 4.89476,4.29227 2.91338,1.13799 2.91338,0.758294 3.43887,0.710694 0.524896,-0.0473996 1.69489,-0.687694 1.93458,-1.35119 0.238098,-0.664695 0.238098,-1.23379 0.166899,-1.35239z"/>
	</symbol>

</svg>