<?xml version="1.0" encoding="UTF-8"?>
<!DOCTYPE svg PUBLIC "-//W3C//DTD SVG 1.1//EN" "http://www.w3.org/Graphics/SVG/1.1/DTD/svg11.dtd">
<!-- Creator: CorelDRAW -->
<svg xmlns="http://www.w3.org/2000/svg" xml:space="preserve" width="25px" height="25px" style="shape-rendering:geometricPrecision; text-rendering:geometricPrecision; image-rendering:optimizeQuality; fill-rule:evenodd; clip-rule:evenodd"
viewBox="0 0 24.9008 24.9008"
 xmlns:xlink="http://www.w3.org/1999/xlink"
 version="1.1">
 <defs>
  <style type="text/css">
   <![CDATA[
    .fil0 {fill:#1F1A17}
   ]]>
  </style>
 </defs>
 <g id="Capa_x0020_1">
  <metadata id="CorelCorpID_0Corel-Layer"/>
  <g id="_197955768">
   <g>
    <path id="_126806088" class="fil0" d="M17.4827 0l-10.0646 0c-4.09042,0 -7.41812,3.3277 -7.41812,7.41812l0 10.0646c0,4.09042 3.3277,7.41812 7.41812,7.41812l10.0646 0c4.09042,0 7.41812,-3.3277 7.41812,-7.41812l0 -10.0646c-9.98052e-005,-4.09042 -3.3278,-7.41812 -7.41812,-7.41812zm4.91311 17.4827c0,2.7134 -2.19971,4.91311 -4.91311,4.91311l-10.0646 0c-2.7134,0 -4.91311,-2.19971 -4.91311,-4.91311l0 -10.0646c0,-2.7135 2.19971,-4.91311 4.91311,-4.91311l10.0646 0c2.7134,0 4.91311,2.19961 4.91311,4.91311l0 10.0646 0 0z"/>
    <path id="_126812376" class="fil0" d="M12.4504 6.01017c-3.55117,0 -6.44023,2.88906 -6.44023,6.44013 0,3.55117 2.88906,6.44023 6.44023,6.44023 3.55117,0 6.44023,-2.88906 6.44023,-6.44023 0,-3.55117 -2.88906,-6.44013 -6.44023,-6.44013zm0 10.3754c-2.17336,0 -3.93522,-1.76186 -3.93522,-3.93522 0,-2.17336 1.76186,-3.93522 3.93522,-3.93522 2.17336,0 3.93522,1.76186 3.93522,3.93522 0,2.17336 -1.76186,3.93522 -3.93522,3.93522z"/>
    <circle id="_126812904" class="fil0" cx="18.9031" cy="6.05849" r="1.54323"/>
   </g>
   <g>
   </g>
   <g>
   </g>
   <g>
   </g>
   <g>
   </g>
   <g>
   </g>
   <g>
   </g>
   <g>
   </g>
   <g>
   </g>
   <g>
   </g>
   <g>
   </g>
   <g>
   </g>
   <g>
   </g>
   <g>
   </g>
   <g>
   </g>
   <g>
   </g>
  </g>
 </g>
</svg>
