<?xml version="1.0" encoding="UTF-8" standalone="no"?>
<!-- Created with Inkscape (http://www.inkscape.org/) -->

<svg
   xmlns:dc="http://purl.org/dc/elements/1.1/"
   xmlns:cc="http://creativecommons.org/ns#"
   xmlns:rdf="http://www.w3.org/1999/02/22-rdf-syntax-ns#"
   xmlns:svg="http://www.w3.org/2000/svg"
   xmlns="http://www.w3.org/2000/svg"
   xmlns:sodipodi="http://sodipodi.sourceforge.net/DTD/sodipodi-0.dtd"
   xmlns:inkscape="http://www.inkscape.org/namespaces/inkscape"
   width="25mm"
   height="25mm"
   viewBox="0 0 25 25"
   version="1.1"
   id="svg3833"
   inkscape:version="0.92.2 (5c3e80d, 2017-08-06)"
   sodipodi:docname="linkedin-branco.svg">
  <defs
     id="defs3827" />
  <sodipodi:namedview
     id="base"
     pagecolor="#ffffff"
     bordercolor="#666666"
     borderopacity="1.0"
     inkscape:pageopacity="0.0"
     inkscape:pageshadow="2"
     inkscape:zoom="3.9875"
     inkscape:cx="70.489521"
     inkscape:cy="55.5275"
     inkscape:document-units="mm"
     inkscape:current-layer="layer1"
     showgrid="false"
     inkscape:window-width="1440"
     inkscape:window-height="837"
     inkscape:window-x="-8"
     inkscape:window-y="-8"
     inkscape:window-maximized="1"
     showguides="false" />
  <metadata
     id="metadata3830">
    <rdf:RDF>
      <cc:Work
         rdf:about="">
        <dc:format>image/svg+xml</dc:format>
        <dc:type
           rdf:resource="http://purl.org/dc/dcmitype/StillImage" />
        <dc:title></dc:title>
      </cc:Work>
    </rdf:RDF>
  </metadata>
  <g
     inkscape:label="Camada 1"
     inkscape:groupmode="layer"
     id="layer1"
     transform="translate(0,-272)">
    <g
       id="g3910"
       transform="matrix(0.05303776,0,0,0.05303776,0.33846795,272.49276)" />
    <g
       id="g3912"
       transform="matrix(0.05303776,0,0,0.05303776,0.33846795,272.49276)" />
    <g
       id="g3914"
       transform="matrix(0.05303776,0,0,0.05303776,0.33846795,272.49276)" />
    <g
       id="g3916"
       transform="matrix(0.05303776,0,0,0.05303776,0.33846795,272.49276)" />
    <g
       id="g3918"
       transform="matrix(0.05303776,0,0,0.05303776,0.33846795,272.49276)" />
    <g
       id="g3920"
       transform="matrix(0.05303776,0,0,0.05303776,0.33846795,272.49276)" />
    <g
       id="g3922"
       transform="matrix(0.05303776,0,0,0.05303776,0.33846795,272.49276)" />
    <g
       id="g3924"
       transform="matrix(0.05303776,0,0,0.05303776,0.33846795,272.49276)" />
    <g
       id="g3926"
       transform="matrix(0.05303776,0,0,0.05303776,0.33846795,272.49276)" />
    <g
       id="g3928"
       transform="matrix(0.05303776,0,0,0.05303776,0.33846795,272.49276)" />
    <g
       id="g3930"
       transform="matrix(0.05303776,0,0,0.05303776,0.33846795,272.49276)" />
    <g
       id="g3932"
       transform="matrix(0.05303776,0,0,0.05303776,0.33846795,272.49276)" />
    <g
       id="g3934"
       transform="matrix(0.05303776,0,0,0.05303776,0.33846795,272.49276)" />
    <g
       id="g3936"
       transform="matrix(0.05303776,0,0,0.05303776,0.33846795,272.49276)" />
    <g
       id="g3938"
       transform="matrix(0.05303776,0,0,0.05303776,0.33846795,272.49276)" />
    <g
       id="g4179"
       transform="matrix(0.05815338,0,0,0.05815338,-0.05728217,271.79759)"
       style="fill:#f2f2f2">
      <g
         id="g4123"
         style="fill:#f2f2f2">
        <path
           d="M 430.117,261.543 V 420.56 H 337.929 V 272.193 c 0,-37.271 -13.334,-62.707 -46.703,-62.707 -25.473,0 -40.632,17.142 -47.301,33.724 -2.432,5.928 -3.058,14.179 -3.058,22.477 V 420.56 h -92.219 c 0,0 1.242,-251.285 0,-277.32 h 92.21 v 39.309 c -0.187,0.294 -0.43,0.611 -0.606,0.896 h 0.606 v -0.896 c 12.251,-18.869 34.13,-45.824 83.102,-45.824 60.673,-0.001 106.157,39.636 106.157,124.818 z M 52.183,9.558 C 20.635,9.558 0,30.251 0,57.463 c 0,26.619 20.038,47.94 50.959,47.94 h 0.616 c 32.159,0 52.159,-21.317 52.159,-47.94 C 103.128,30.251 83.734,9.558 52.183,9.558 Z M 5.477,420.56 H 97.661 V 143.24 H 5.477 Z"
           id="LinkedIn"
           inkscape:connector-curvature="0"
           style="fill:#f2f2f2" />
      </g>
      <g
         id="g4125"
         style="fill:#f2f2f2" />
      <g
         id="g4127"
         style="fill:#f2f2f2" />
      <g
         id="g4129"
         style="fill:#f2f2f2" />
      <g
         id="g4131"
         style="fill:#f2f2f2" />
      <g
         id="g4133"
         style="fill:#f2f2f2" />
      <g
         id="g4135"
         style="fill:#f2f2f2" />
      <g
         id="g4137"
         style="fill:#f2f2f2" />
      <g
         id="g4139"
         style="fill:#f2f2f2" />
      <g
         id="g4141"
         style="fill:#f2f2f2" />
      <g
         id="g4143"
         style="fill:#f2f2f2" />
      <g
         id="g4145"
         style="fill:#f2f2f2" />
      <g
         id="g4147"
         style="fill:#f2f2f2" />
      <g
         id="g4149"
         style="fill:#f2f2f2" />
      <g
         id="g4151"
         style="fill:#f2f2f2" />
      <g
         id="g4153"
         style="fill:#f2f2f2" />
    </g>
  </g>
</svg>
