<?xml version="1.0" encoding="UTF-8"?>
<!DOCTYPE svg PUBLIC "-//W3C//DTD SVG 1.1//EN" "http://www.w3.org/Graphics/SVG/1.1/DTD/svg11.dtd">
<!-- Creator: CorelDRAW -->
<svg xmlns="http://www.w3.org/2000/svg" xml:space="preserve" width="2480px" height="2480px" style="shape-rendering:geometricPrecision; text-rendering:geometricPrecision; image-rendering:optimizeQuality; fill-rule:evenodd; clip-rule:evenodd"
viewBox="0 0 2480 2480"
 xmlns:xlink="http://www.w3.org/1999/xlink"
 version="1.1"
 enable-background="new 0 0 21.9 21.9">
 <defs>
  <style type="text/css">
   <![CDATA[
    .fil0 {fill:#DA251D}
   ]]>
  </style>
 </defs>
 <g id="Capa_x0020_1">
  <metadata id="CorelCorpID_0Corel-Layer"/>
  <path class="fil0" d="M1543.5 1273.72c-19.2696,-19.2696 -19.2696,-48.1746 0,-67.4466l722.627 -722.627c19.2696,-19.2696 28.905,-48.1746 28.905,-67.4454 0,-19.2708 -9.63539,-48.1746 -28.905,-67.4454l-134.891 -134.891c-19.2696,-19.2696 -48.1746,-28.9038 -67.443,-28.9038 -28.905,0 -48.1746,9.63539 -67.4466,28.905l-722.627 722.628c-19.2696,19.2684 -48.1746,19.2684 -67.4454,0l-722.627 -722.628c-19.2696,-19.2708 -48.1746,-28.905 -67.4454,-28.905 -19.2708,0 -48.1746,9.63421 -67.4454,28.905l-134.89 134.89c-19.2708,19.2708 -28.905,48.1758 -28.905,67.4454 0,19.2696 9.63539,48.1746 28.905,67.4454l722.627 722.627c19.2696,19.2696 19.2696,48.1746 0,67.4466l-722.627 722.627c-19.2708,19.2696 -28.905,48.1746 -28.905,67.4454 0,19.2708 9.63539,48.1746 28.905,67.4454l134.891 134.891c19.2696,19.2696 48.1746,28.905 67.4454,28.905 19.2708,0 48.1746,-9.63539 67.4454,-28.905l722.627 -722.627c19.2696,-19.2696 48.1746,-19.2696 67.4466,0l722.627 722.627c19.2696,19.2696 48.1746,28.905 67.4454,28.905 19.2708,0 48.1746,-9.63539 67.4454,-28.905l134.891 -134.891c19.2696,-19.2696 28.905,-48.1746 28.905,-67.4454 0,-19.2708 -9.63539,-48.1746 -28.905,-67.4454l-722.631 -722.627z"/>
 </g>
</svg>
