<?xml version="1.0" encoding="UTF-8"?>
<!DOCTYPE svg PUBLIC "-//W3C//DTD SVG 1.1//EN" "http://www.w3.org/Graphics/SVG/1.1/DTD/svg11.dtd">
<!-- Creator: CorelDRAW -->
<svg xmlns="http://www.w3.org/2000/svg" xml:space="preserve" width="25px" height="25px" style="shape-rendering:geometricPrecision; text-rendering:geometricPrecision; image-rendering:optimizeQuality; fill-rule:evenodd; clip-rule:evenodd"
viewBox="0 0 25 25"
 xmlns:xlink="http://www.w3.org/1999/xlink"
 version="1.1">
 <defs>
  <style type="text/css">
   <![CDATA[
    .fil0 {fill:none}
    .fil1 {fill:white}
   ]]>
  </style>
 </defs>
 <g id="Capa_x0020_1">
  <metadata id="CorelCorpID_0Corel-Layer"/>
  <rect class="fil0" width="25" height="25"/>
  <g id="_125456536">
   <g>
    <g>
     <path id="_184294824" class="fil1" d="M23.8649 2.12558c-0.189998,-0.189998 -0.415397,-0.285298 -0.675695,-0.285298 -0.260198,0 -0.485196,0.0952992 -0.675695,0.285298l-1.95188 1.93728c-1.07099,-1.01119 -2.29738,-1.79469 -3.67867,-2.35008 -1.38129,-0.555496 -2.80308,-0.833193 -4.26467,-0.833193 -2.75288,0 -5.15526,0.833193 -7.20744,2.50008 -2.05218,1.66659 -3.40347,3.84107 -4.05417,6.52405l0 0.104999c0,0.130099 0.0473996,0.242798 0.142599,0.337797 0.0950992,0.0950992 0.207698,0.142599 0.337797,0.142599l2.98808 0c0.220298,0 0.370297,-0.115199 0.450496,-0.345297 0.420297,-1.00089 0.685495,-1.58649 0.795694,-1.75669 0.700694,-1.14119 1.63159,-2.03718 2.79288,-2.68788 1.16139,-0.650595 2.41258,-0.975992 3.75387,-0.975992 2.01228,0 3.75897,0.685695 5.24066,2.05718l-2.07248 2.07198c-0.189698,0.190198 -0.285098,0.415597 -0.285098,0.675795 0,0.260298 0.0952992,0.485496 0.285098,0.675695 0.190398,0.190198 0.415697,0.285298 0.675995,0.285298l6.72695 0c0.260298,0 0.485596,-0.0950992 0.675695,-0.285298 0.189998,-0.190198 0.285098,-0.415397 0.285098,-0.675695l0 -6.72695c0,-0.260298 -0.0944992,-0.485396 -0.285098,-0.675695z"/>
     <path id="_184296048" class="fil1" d="M23.294 14.3334l-2.88298 0c-0.220198,0 -0.370397,0.114999 -0.450296,0.345297 -0.420197,1.00109 -0.685695,1.58639 -0.795694,1.75659 -0.700794,1.14089 -1.63179,2.03718 -2.79278,2.68778 -1.16139,0.650895 -2.41258,0.975992 -3.75397,0.975992 -0.970892,0 -1.90698,-0.180099 -2.80778,-0.540296 -0.900893,-0.360697 -1.70679,-0.871293 -2.41748,-1.53209l2.05718 -2.05698c0.190098,-0.189998 0.285298,-0.415497 0.285298,-0.675595 0,-0.260298 -0.0951992,-0.485796 -0.285298,-0.675695 -0.190198,-0.190398 -0.415397,-0.285598 -0.675695,-0.285598l-6.72695 0c-0.260498,0 -0.485696,0.0951992 -0.675895,0.285598 -0.190198,0.189998 -0.285198,0.415497 -0.285198,0.675695l0 6.72695c0,0.260098 0.0949992,0.485596 0.285298,0.675695 0.190298,0.189898 0.415497,0.285498 0.675795,0.285498 0.260298,0 0.485396,-0.0955992 0.675695,-0.285498l1.93698 -1.93708c1.07109,1.02079 2.28998,1.80679 3.65637,2.35728 1.36639,0.550796 2.78038,0.825793 4.24177,0.825793 2.74298,0 5.13536,-0.833293 7.17744,-2.49998 2.04208,-1.66649 3.38347,-3.84147 4.02437,-6.52415 0.0100999,-0.0199998 0.0147999,-0.0549996 0.0147999,-0.104899 0,-0.130299 -0.0476996,-0.242598 -0.142799,-0.337997 -0.0951992,-0.0945992 -0.207898,-0.142299 -0.338197,-0.142299z"/>
    </g>
   </g>
   <g>
   </g>
   <g>
   </g>
   <g>
   </g>
   <g>
   </g>
   <g>
   </g>
   <g>
   </g>
   <g>
   </g>
   <g>
   </g>
   <g>
   </g>
   <g>
   </g>
   <g>
   </g>
   <g>
   </g>
   <g>
   </g>
   <g>
   </g>
   <g>
   </g>
  </g>
 </g>
</svg>
