<?xml version="1.0" encoding="UTF-8"?>
<!DOCTYPE svg PUBLIC "-//W3C//DTD SVG 1.1//EN" "http://www.w3.org/Graphics/SVG/1.1/DTD/svg11.dtd">
<!-- Creator: CorelDRAW -->
<svg xmlns="http://www.w3.org/2000/svg" xml:space="preserve" width="2480px" height="2480px" style="shape-rendering:geometricPrecision; text-rendering:geometricPrecision; image-rendering:optimizeQuality; fill-rule:evenodd; clip-rule:evenodd"
viewBox="0 0 2480 2480"
 xmlns:xlink="http://www.w3.org/1999/xlink"
 version="1.1">
 <defs>
  <style type="text/css">
   <![CDATA[
    .fil0 {fill:#ED8211}
   ]]>
  </style>
 </defs>
 <g id="Capa_x0020_1">
  <metadata id="CorelCorpID_0Corel-Layer"/>
  <path id="XMLID_7_" class="fil0" d="M1189.99 1256.12l-598.939 -650.616c-108.067,-108.067 -108.067,-283.26 0,-391.327 108.045,-108.067 283.261,-108.067 391.329,0l830.106 830.124c6.47634,6.47516 12.5984,13.2645 18.3945,20.3454 2.52724,3.0811 4.72381,6.34526 7.10225,9.49958 3.04213,4.05775 6.17992,8.02339 9.00358,12.25 2.58392,3.85699 4.81474,7.85688 7.17665,11.8048 2.27097,3.8003 4.65059,7.5085 6.73379,11.4174 2.17886,4.05657 4.00461,8.2277 5.95672,12.3587 1.91669,4.04004 3.93021,8.02221 5.64259,12.1579 1.66042,4.04004 3.02442,8.1533 4.48408,12.25 1.60373,4.42739 3.30312,8.7981 4.66712,13.3164 1.23764,4.09672 2.13989,8.24541 3.17322,12.3976 1.16324,4.5939 2.45284,9.16891 3.37634,13.8538 0.941219,4.77577 1.5128,9.61295 2.19657,14.4242 0.588114,4.11326 1.38171,8.17101 1.7915,12.341 0.884533,8.92918 1.34629,17.9139 1.364,26.8785 0,0.131086 0.0165333,0.273981 0.0165333,0.405067 0,0.131086 -0.0165333,0.273981 -0.0165333,0.405067 -0.0177143,8.98587 -0.479467,17.9493 -1.364,26.8962 -0.405067,4.11326 -1.18095,8.11787 -1.75253,12.1933 -0.701486,4.87143 -1.27189,9.73931 -2.23082,14.5718 -0.923505,4.64941 -2.19657,9.1512 -3.35509,13.705 -1.05105,4.18766 -1.97455,8.41074 -3.2299,12.563 -1.34629,4.4451 -3.02324,8.74613 -4.57501,13.0991 -1.49509,4.17112 -2.85909,8.35878 -4.55848,12.4508 -1.67695,4.05657 -3.6515,7.95253 -5.53394,11.9182 -1.99109,4.22309 -3.87352,8.48396 -6.08781,12.6374 -2.03124,3.78259 -4.33646,7.37741 -6.53185,11.0514 -2.41859,4.07901 -4.72381,8.19227 -7.37859,12.1579 -2.69257,4.04004 -5.69928,7.82145 -8.59733,11.7139 -2.50952,3.33737 -4.83246,6.7893 -7.5085,10.0357 -5.51623,6.7149 -11.3643,13.1511 -17.4698,19.3346 -0.296419,0.296419 -0.536152,0.628267 -0.827848,0.924686l-830.141 830.159c-54.0534,54.0309 -124.854,81.057 -195.676,81.057 -70.7993,-0.0165333 -141.639,-27.0261 -195.652,-81.0405 -108.068,-108.067 -108.068,-283.26 -0.0177143,-391.327l598.929 -618.387z"/>
  <g id="_195002888">
  </g>
  <g id="_195003104">
  </g>
  <g id="_195004808">
  </g>
  <g id="_195005000">
  </g>
  <g id="_195004592">
  </g>
  <g id="_195004496">
  </g>
  <g id="_195004952">
  </g>
  <g id="_195004520">
  </g>
  <g id="_195004712">
  </g>
  <g id="_195004760">
  </g>
  <g id="_195004568">
  </g>
  <g id="_195004664">
  </g>
  <g id="_195005696">
  </g>
  <g id="_195005288">
  </g>
  <g id="_195005552">
  </g>
 </g>
</svg>
