<?xml version="1.0" encoding="UTF-8"?>
<!DOCTYPE svg PUBLIC "-//W3C//DTD SVG 1.1//EN" "http://www.w3.org/Graphics/SVG/1.1/DTD/svg11.dtd">
<!-- Creator: CorelDRAW -->
<svg xmlns="http://www.w3.org/2000/svg" xml:space="preserve" width="2295px" height="1615px" style="shape-rendering:geometricPrecision; text-rendering:geometricPrecision; image-rendering:optimizeQuality; fill-rule:evenodd; clip-rule:evenodd"
viewBox="0 0 2296.74 1615.59"
 xmlns:xlink="http://www.w3.org/1999/xlink">
 <defs>
  <style type="text/css">
   <![CDATA[
    .fil0 {fill:#00923F}
   ]]>
  </style>
 </defs>
 <g id="Capa_x0020_1">
  <metadata id="CorelCorpID_0Corel-Layer"/>
  <path class="fil0" d="M2273.49 242.497c15.6165,-15.7867 23.3408,-39.3816 23.2558,-55.0856 -0.0839089,-15.7028 -8.06353,-39.2126 -23.849,-54.8303l-110.51 -109.324c-15.7867,-15.6165 -39.3816,-23.3397 -55.0844,-23.2546 -23.5524,0.126454 -39.2126,8.06234 -54.8303,23.849l-1163 1127.94c-15.6165,15.7855 -39.1701,15.9131 -54.958,0.296636l-592.014 -585.658c-15.7867,-15.6189 -39.3828,-23.342 -55.0856,-23.2569 -15.7028,0.0850907 -39.2126,8.06234 -54.8315,23.8502l-109.321 110.508c-15.6189,15.7879 -23.342,39.384 -23.2569,55.0856 0.0850907,15.7016 8.06353,39.2126 23.8502,54.8303 293.981,290.826 530.243,556.439 804.898,828.145 15.6177,-15.7867 39.1701,-15.9143 54.958,-0.296636 271.705,-274.656 1098.96,-1078.82 1389.78,-1372.8z"/>
 </g>
</svg>
